<!-- Generated by IcoMoon.io -->
<svg version="1.1" xmlns="http://www.w3.org/2000/svg" width="36" height="32" viewBox="0 0 36 32">
<title>beef</title>
<path fill="#e35028" d="M32.772 11.095c-0.298-0.566-0.597-1.134-0.896-1.705 1.214-0.842 2.164-1.773 2.84-2.739-0.353-0.379-0.705-0.759-1.058-1.138 0.058-0.056 0.116-0.11 0.173-0.165 0.331 0.38 0.662 0.761 0.992 1.142 1.28-1.927 1.459-3.982 0.357-5.758l-0.229-0.368-0.712 0.749c-0.286 0.302-0.561 0.592-0.842 0.875-0.213 0.212-0.426 0.411-0.64 0.604-0.005 0.043-0.015 0.079-0.033 0.097-0.072 0.071-0.172 0.132-0.279 0.172-2.781 2.363-5.752 3.090-9.484 2.361-0.992-0.193-2.092-0.288-3.365-0.288-1.174 0-2.378 0.078-3.543 0.154-1.134 0.073-2.305 0.15-3.441 0.153-0.292 0-0.59 0.009-0.889 0.016 0.011 0.034 0.025 0.067 0.035 0.101 0.036 0.127-0.024 0.357-0.121 0.424-0.094 0.064-0.34 0.031-0.434-0.054-0.163-0.149-0.29-0.298-0.382-0.455-0.062 0-0.124 0.003-0.186 0.003-0.79 0-1.705-0.042-2.507-0.355-0.761-0.297-1.49-0.716-2.202-1.172 0.078-0.091 0.139-0.192 0.173-0.306 0.038-0.121-0.031-0.384-0.112-0.414-0.197-0.070-0.526 0.047-0.804 0.232-0.23-0.157-0.459-0.314-0.686-0.471-0.357-0.248-0.718-0.49-1.079-0.73-0.091 0.096-0.202 0.17-0.328 0.209-0.251 0.078-0.506 0.14-0.89 0.243 0.14-0.388 0.254-0.718 0.37-1.030-0.188-0.135-0.389-0.285-0.626-0.461-0.25-0.186-0.536-0.4-0.882-0.652l-0.508-0.37-0.025 0.628c-0.162 3.991 1.179 6.745 4.213 8.635-0.285 0.37-0.572 0.72-0.85 1.060-0.746 0.91-1.449 1.769-1.911 2.756-1.227 2.62-1.756 3.951-1.314 4.829 0.406 0.806 1.485 1.026 3.445 1.423 0.311 0.063 0.646 0.131 1.004 0.206 0.997 0.21 1.406 0.459 1.719 1.446 1.219 3.841 3.541 7.012 6.902 9.422 1.474 1.058 2.954 1.594 4.4 1.594 1.326 0 2.571-0.46 3.707-1.359-0.21-0.083-0.419-0.173-0.628-0.225-0.14-0.035-0.135-0.629-0.211-1.035 0.614 0.131 1.063 0.229 1.552 0.332 0.042 0.063 0.087 0.136 0.136 0.212 0.224-0.194 0.446-0.392 0.668-0.592-0.1 0.383-0.191 0.736-0.264 1.016 0.4-0.184 0.848-0.388 1.298-0.595-0.113-0.393-0.357-0.668-0.644-0.78 1.635-1.511 3.135-3.161 4.083-5.044 0.845-1.678 1.583-3.137 2.799-4.053 0.027 0.008 0.049 0.015 0.078 0.024-0.018-0.020-0.029-0.030-0.046-0.049 0.765-0.566 1.717-0.92 3.002-0.978 1.003-0.046 1.467-0.486 1.68-0.846 0.336-0.57 0.292-1.349-0.126-2.19-0.791-1.59-1.635-3.192-2.452-4.742zM3.039 4.452l5.649 3.104c-0.102 0.033-0.198 0.065-0.291 0.096-0.522 0.173-0.903 0.307-1.221 0.249-1.995-0.356-3.327-1.459-4.137-3.449zM4.989 10.269c0.246 0.225 0.472 0.429 0.721 0.658-0.289 0.026-0.659 0.060-1.245 0.113 0.259-0.381 0.387-0.57 0.524-0.771zM2.58 16.987c0.553-1.969 1.232-3.568 2.394-4.843-0.132 0.275-0.247 0.527-0.065 0.854 0.171 0.309 0.249 0.669 0.392 0.996 0.040 0.092 0.186 0.221 0.244 0.203 0.109-0.033 0.259-0.153 0.271-0.25 0.091-0.754-0.172-1.407-0.583-2.080 0.408-0.406 0.868-0.779 1.404-1.114l-0.351 3.827c0.22-0.149 0.539-0.206 0.97-0.158-0.465 0.284-0.463 1.029-1.054 1.082l-0.202 2.198-3.419-0.715zM6.301 17.1c0.489-0.085 0.841-0.166 1.195-0.182 0.047-0.002 0.209 0.419 0.145 0.49-0.202 0.225-0.486 0.378-0.779 0.587-0.197-0.313-0.331-0.53-0.561-0.894zM22.628 27.604c0.087-0.214 0.149-0.443 0.159-0.646 0.042-0.797 0.042-0.797-0.546-1.65 0.044 0.444 0.119 0.884 0.263 1.302 0.123 0.36-0.006 0.765-0.354 0.876-0.322 0.104-0.64 0.588-0.516 0.871 0.008 0.017 0.019 0.034 0.027 0.051-0.165 0.129-0.326 0.259-0.497 0.388-1.138 0.847-2.108 1.241-3.050 1.241 0 0 0 0 0 0-0.849 0-1.736-0.311-2.83-0.993-0.11 0-0.221 0-0.331 0-0.013-0.067-0.026-0.132-0.038-0.199 0.015-0.003 0.031-0.007 0.047-0.011-0.033-0.021-0.064-0.040-0.099-0.063-0.982-0.663-1.868-1.438-2.654-2.294 0.084 0.029 0.162 0.055 0.239 0.078 0.32 0.096 0.623-0.134 0.519-0.425-0.252-0.697 0.078-1.144 0.645-1.582-0.348-0.239-0.562-0.223-0.676 0.189-0.063 0.233-0.158 0.458-0.256 0.677-0.229 0.509-0.588 0.556-0.963 0.134-0.065-0.075-0.13-0.149-0.186-0.213-0.072 0.029-0.149 0.047-0.216 0.068-1.096-1.432-1.932-3.046-2.487-4.754 0.331 0.149 0.689 0.073 1.040 0.050 0.007-0.070 0.015-0.14 0.023-0.211-0.378-0.024-0.755-0.050-1.132-0.073-0.001 0.009-0.002 0.017-0.002 0.025-0.824-2.661-0.961-5.538-0.285-8.307-0.637-0.023-1.276-0.024-1.911-0.144 0.642 0 1.285 0.027 1.924-0.007 0.007 0 0.015-0.002 0.022-0.002 0.020-0.081 0.033-0.162 0.056-0.242 0.238-0.868 0.628-1.832 1.256-2.651-0.171-0.896-0.342-1.797-0.512-2.691 0.079-0.037 0.158-0.074 0.237-0.111 0.11 0.213 0.209 0.433 0.332 0.638 0.117 0.194 0.259 0.374 0.391 0.559 0.185-0.174 0.41-0.322 0.544-0.528 0.14-0.215 0.193-0.486 0.322-0.836 0.193 0.433 0.34 0.76 0.473 1.057-0.324 0.277-0.348 0.45-0.256 0.586 0.473-0.256 1.013-0.446 1.637-0.533 1.941-0.27 3.889-0.407 5.789-0.407 1.151 0 2.294 0.051 3.398 0.151 0.932 0.085 1.75 0.353 2.471 0.754-0.028 0.135 0.057 0.281 0.272 0.631 0.085-0.159 0.147-0.277 0.187-0.371 1.358 0.941 2.258 2.495 2.611 4.573 0.137 0.805 0.195 1.622 0.247 2.344 0.021 0.298 0.041 0.575 0.063 0.794 0.009 4.777-1.761 8.686-5.393 11.907zM27.626 7.679l5.787-2.738c-0.561 1.59-1.723 2.573-3.534 2.997l-0.322 0.078c-0.357 0.091-0.727 0.184-1.044 0.184-0.298-0.001-0.627-0.069-0.887-0.521zM30.443 18.198c-0.041-0.12-0.081-0.242-0.121-0.362 0.656-0.189 1.311-0.379 1.967-0.568 0.032 0.097 0.064 0.193 0.097 0.29-0.648 0.213-1.296 0.426-1.943 0.64zM30.165 17.748l-0.697-6.969c0.817 0.482 1.461 1.053 1.993 1.717-0.032-0.54 0.388-0.482 0.805-0.344 0.038 1.31 0.038 1.31 0.408 1.391-0.060 0.159-0.134 0.351-0.212 0.555 0.405 0.836 0.727 1.782 1.023 2.851l-3.32 0.8z"></path>
<path fill="#e35028" d="M15.837 3.611c0.195 0.144 0.362 0.326 0.542 0.491 0.137-0.185 0.274-0.371 0.361-0.486-0.686-0.903-1.313-1.728-1.94-2.554-0.056 0.015-0.113 0.029-0.169 0.043 0.011 0.166-0.044 0.394 0.044 0.488 0.548 0.583 0.481 1.515 1.162 2.017z"></path>
<path fill="#e35028" d="M8.956 28.381c-0.064 0.286-0.164 0.561-0.176 0.84-0.008 0.188 0.106 0.383 0.166 0.573 0.118-0.12 0.237-0.238 0.364-0.369 0.289 0.271 0.615 0.577 0.942 0.883-0.163-0.831-0.477-1.535-1.295-1.927z"></path>
<path fill="#e35028" d="M27.093 4.508c-0.264-0.052-0.525-0.127-0.791-0.151-0.218-0.020-0.423 0.022-0.418-0.309s-0.199-0.349-0.464-0.261c-0.453 0.152-0.644 0.419-0.435 0.953 0.674-0.712 1.361 0.082 2.107-0.232z"></path>
<path fill="#e35028" d="M18.596 7.589c-0.073-0.102-0.26-0.15-0.401-0.164-0.056-0.006-0.153 0.137-0.19 0.229-0.121 0.296-0.223 0.601-0.362 0.985 0.271-0.073 0.45-0.117 0.626-0.171 0.345-0.106 0.537-0.582 0.327-0.879z"></path>
<path fill="#e35028" d="M23.825 9.277c-0.373 0.774-0.313 1.197 0.153 1.625 0.065 0.060 0.239 0.083 0.305 0.038 0.068-0.047 0.111-0.209 0.085-0.299-0.070-0.247-0.18-0.482-0.276-0.722-0.071-0.173-0.144-0.344-0.268-0.642z"></path>
<path fill="#e35028" d="M23.106 30.908c-0.373 0.304-0.308 0.66 0.127 0.855 0.274-0.401 0.547-0.804 0.819-1.207-0.042-0.035-0.084-0.070-0.126-0.106-0.276 0.149-0.582 0.263-0.821 0.458z"></path>
<path fill="#e35028" d="M28.404 25.624c0.133 0.121 0.269 0.344 0.398 0.34 0.167-0.005 0.329-0.189 0.61-0.375-0.245-0.214-0.444-0.455-0.503-0.424-0.195 0.1-0.34 0.299-0.505 0.459z"></path>
<path fill="#e35028" d="M24.678 4.204c-0.44-0.362-0.828-0.681-1.276-1.050-0.024 0.557 0.774 1.215 1.276 1.050z"></path>
<path fill="#e35028" d="M30.696 17.595c0.107-0.46 0.213-0.921 0.335-1.444-0.506 0.223-0.697 0.892-0.335 1.444z"></path>
<path fill="#e35028" d="M19.085 27.987c-0.548 0-1 0-1.529 0 0.313 0.406 0.83 0.4 1.529 0z"></path>
<path fill="#e35028" d="M15.844 21.714c0.086 0.186 0.175 0.368 0.256 0.555 0.077 0.174 0.146 0.353 0.22 0.53 0.162-0.853 0-1.167-0.476-1.085z"></path>
<path fill="#e35028" d="M16.924 28.843c-0.024-0.011-0.157 0.133-0.165 0.211-0.006 0.059 0.104 0.145 0.18 0.188 0.171 0.097 0.353 0.175 0.605 0.299 0-0.131 0.050-0.313-0.009-0.362-0.18-0.144-0.397-0.245-0.61-0.336z"></path>
<path fill="#e35028" d="M6.977 25.725c0.034-0.038 0.069-0.076 0.104-0.114-0.245-0.225-0.49-0.451-0.819-0.754-0.083 0.763 0.313 0.819 0.716 0.868z"></path>
<path fill="#e35028" d="M14.196 8.762c0.050-0.050 0.021-0.283-0.026-0.303-0.119-0.048-0.286-0.064-0.401-0.016-0.148 0.064-0.264 0.202-0.388 0.304 0.145 0.060 0.291 0.16 0.441 0.17 0.125 0.007 0.282-0.065 0.373-0.155z"></path>
<path fill="#e35028" d="M31.090 24.204c0.067 0.069 0.135 0.139 0.202 0.209 0.189-0.252 0.377-0.504 0.596-0.797-0.506-0.092-0.736 0.101-0.798 0.588z"></path>
<path fill="#e35028" d="M0 5.013c0.203 0.242 0.375 0.448 0.546 0.653 0.094-0.594-0.027-0.719-0.546-0.653z"></path>
<path fill="#e35028" d="M27.902 26.168c0.073 0.269 0.147 0.539 0.22 0.808 0.051-0.012 0.104-0.025 0.154-0.039 0.131-0.316 0.047-0.585-0.374-0.769z"></path>
<path fill="#e35028" d="M15.791 11.571c-0.272-0.312-0.543-0.624-0.815-0.937-0.040 0.038-0.081 0.078-0.121 0.117 0.282 0.304 0.564 0.607 0.845 0.911 0.030-0.031 0.060-0.061 0.091-0.091z"></path>
<path fill="#e35028" d="M23.392 4.704c0.091-0.135 0.206-0.26 0.257-0.407 0.020-0.057-0.104-0.165-0.232-0.351-0.121 0.248-0.221 0.385-0.246 0.535-0.011 0.060 0.142 0.148 0.22 0.223z"></path>
<path fill="#e35028" d="M16.522 17.033c0 0.827-0.741 1.497-1.654 1.497s-1.654-0.67-1.654-1.497c0-0.827 0.741-1.497 1.654-1.497s1.654 0.67 1.654 1.497z"></path>
<path fill="#e35028" d="M23.931 16.504c-0.091-0.169-0.171-0.357-0.335-0.521-0.141-0.175-0.323-0.337-0.553-0.461-0.212-0.135-0.484-0.218-0.741-0.262-0.268-0.039-0.526-0.026-0.771 0.022-0.235 0.057-0.462 0.134-0.646 0.246-0.381 0.209-0.65 0.486-0.826 0.758-0.185 0.256-0.276 0.522-0.323 0.708-0.034 0.182-0.032 0.295-0.032 0.295s0.102-0.033 0.282-0.091c0.154-0.042 0.375-0.1 0.64-0.171 0.252-0.060 0.524-0.124 0.776-0.153 0.127-0.024 0.246-0.017 0.357-0.029 0.109 0.009 0.211 0.005 0.301 0.027 0.094 0.013 0.182 0.030 0.277 0.065 0.045 0.020 0.094 0.036 0.149 0.047 0.049 0.029 0.097 0.060 0.153 0.083 0.113 0.038 0.213 0.129 0.325 0.193 0.117 0.059 0.219 0.152 0.326 0.224 0.098 0.081 0.215 0.144 0.299 0.22 0.085 0.073 0.175 0.134 0.247 0.187 0.149 0.103 0.25 0.162 0.25 0.162s0.028-0.106 0.049-0.291c0.014-0.184 0.044-0.455-0.042-0.761-0.040-0.154-0.065-0.331-0.162-0.499z"></path>
</svg>
