<!-- Generated by IcoMoon.io -->
<svg version="1.1" xmlns="http://www.w3.org/2000/svg" width="51" height="32" viewBox="0 0 51 32">
<title>buns</title>
<path fill="#f9b43b" d="M21.612 6.255l0.521 0.509c0.614 0.601 1.315 0.932 1.973 0.932 0 0 0 0 0 0 0.586 0 1.108-0.27 1.436-0.741 0.264-0.379 0.215-0.856 0.164-1.106-0.079-0.381-0.261-0.67-0.526-0.834-0.451-0.28-0.899-0.421-1.333-0.421-0.473 0-1.149 0.176-1.744 0.967 0.195-0.031 0.391-0.065 0.583-0.083 0.015 0.096 0.029 0.192 0.044 0.288-0.273 0.022-0.549 0.043-0.823 0.065l-0.294 0.424z"></path>
<path fill="#f9b43b" d="M13.715 9.568l-0.738-0.883-0.639 0.958c-0.039 0.057-0.092 0.118-0.144 0.181-0.257 0.308-0.644 0.775-0.408 1.361 0.183 0.453 0.455 0.845 0.696 1.192 0.083 0.12 0.167 0.24 0.246 0.361l0.361 0.473 1.399-0.252 0.169-0.469c0.020-0.055 0.052-0.115 0.082-0.176 0.15-0.306 0.402-0.817 0.106-1.323-0.243-0.416-0.545-0.756-0.836-1.085-0.099-0.111-0.198-0.223-0.293-0.337z"></path>
<path fill="#f9b43b" d="M32.914 10.853l2.63-2.726-0.69-0.594c-0.058-0.051-0.126-0.119-0.194-0.186-0.311-0.307-0.581-0.571-1.002-0.571l-0.251 0.003-0.202 0.119c-0.565 0.331-1.036 0.755-1.462 1.16-0.588 0.556-0.119 1.143 0.222 1.571 0.102 0.129 0.222 0.278 0.341 0.433l0.608 0.792z"></path>
<path fill="#f9b43b" d="M17.666 9.021c0.332 0 0.55-0.155 0.909-0.414 0.129-0.092 0.284-0.204 0.46-0.319l1.041-0.683-1.481-1.084c-0.326-0.242-0.604-0.446-0.885-0.632-0.381-0.013-0.763-0.035-1.144-0.107 0.328 0 0.657 0.004 0.985 0.005-0.072-0.044-0.142-0.090-0.216-0.133l-0.211-0.119h-0.231c-0.426 0-0.676 0.265-0.964 0.573-0.058 0.061-0.115 0.125-0.164 0.171l-0.64 0.607 0.914 0.924c0.080 0.082 0.166 0.166 0.248 0.249 0.192-0.151 0.483-0.207 0.885-0.163-0.217 0.132-0.318 0.379-0.442 0.588 0.122 0.113 0.242 0.228 0.373 0.336l0.255 0.201h0.308z"></path>
<path fill="#f9b43b" d="M7.054 13.583c-0.065 0.345-0.131 0.696-0.208 1.050l-0.369 1.686h4.617l0.232 0.563 0.108-0.563h18.132c-0.075 0.12-0.134 0.265-0.159 0.464 0.084 0.085 0.168 0.171 0.251 0.26 0.173-0.233 0.352-0.472 0.54-0.724h15.917l-0.12-1.87c-0.014-0.277-0.029-0.506-0.057-0.733-0.461-3.606-2.299-6.548-5.621-8.996-3.762-2.771-8.691-4.296-13.879-4.296-1.875 0-3.761 0.211-5.608 0.627l-0.614 0.166 0.119 0.27c-0.099 0.141-0.179 0.322-0.168 0.533 0.011 0.19 0.088 0.336 0.184 0.449l-0.056 0.022 0.114 0.454c0.019 0.073 0.044 0.149 0.072 0.225 0.005 0.017 0.013 0.037 0.020 0.057-0.067-0.125-0.132-0.249-0.196-0.369-0.088 0.022-0.176 0.046-0.264 0.069 0.009 0.208-0.012 0.433-0.005 0.643 0.163-0.047 0.33-0.084 0.496-0.126l0.007 0.534 0.642-0.153c2.252-0.537 4.572-0.725 6.841-0.57l-0.858 0.81 1.293 1.325c0.332 0.348 0.679 0.708 1.096 1.056l0.403 0.317h0.492c0.489 0 0.814-0.224 1.218-0.5 0.121-0.083 0.266-0.182 0.429-0.284l1.723-1.072-1.116-0.835c2.216 0.639 4.245 1.619 5.967 2.887 0.169 0.125 0.321 0.253 0.479 0.38-0.586 0.16-1.121 0.947-1.124 0.955l-0.247 0.473 0.283 0.43c0.283 0.425 0.6 0.806 0.907 1.175l0.782 0.949 0.051-0.041c-0.203-0.511-0.344-1.057-0.729-1.466-0.109-0.116-0.040-0.398-0.054-0.603 0.069-0.018 0.139-0.036 0.208-0.054 0.402 0.528 0.803 1.057 1.214 1.598l1.109-0.912c0.783 1.125 1.301 2.352 1.552 3.701h-5.498c0.076-0.059 0.151-0.118 0.22-0.175 0.080-0.065 0.159-0.133 0.24-0.186l0.983-0.645-2.59-2.11-2.511 2.175 1.047 0.605c0.094 0.055 0.188 0.122 0.283 0.189 0.066 0.047 0.14 0.097 0.214 0.147h-7.91l1.821-2.351-1.27-1.328c-0.006 0.092-0.026 0.194-0.064 0.31-0.062 0.197 0.269 0.53 0.438 0.787 0.094 0.145 0.228 0.263 0.442 0.503-0.927-0.278-0.988-0.324-1.315-1.030-0.204-0.439-0.397-0.885-0.593-1.328l-0.445 0.68c-0.054 0.082-0.123 0.165-0.192 0.247-0.26 0.318-0.615 0.753-0.575 1.323 0.039 0.545 0.375 0.94 0.646 1.258 0.073 0.088 0.15 0.173 0.209 0.261l0.465 0.668h-7.327l0.912-0.897c0.341-0.33 0.695-0.672 1.016-1.061 0.452-0.546 0.072-1.080-0.205-1.47-0.093-0.132-0.206-0.289-0.323-0.47l-0.68-1.048-0.738 1.008c-0.13 0.176-0.25 0.339-0.362 0.489-0.345 0.461-0.616 0.826-0.856 1.241-0.362 0.629 0.14 1.116 0.441 1.406 0.060 0.058 0.12 0.115 0.165 0.165l0.583 0.638h-9.88c0.109-0.556 0.226-1.083 0.395-1.562 0.743-2.104 2.188-3.828 4.548-5.431 0.691-0.469 1.436-0.894 2.228-1.274l0.011-0.001-0.003-0.003c0.814-0.389 1.679-0.73 2.589-1.022l0.445-0.143-0.522-2.744-0.564 0.175c-2.13 0.659-4.063 1.571-5.744 2.713-0.749 0.509-1.458 1.067-2.105 1.659l-0.213 0.267 0.058 0.291c0.004 0.062 0.013 0.12 0.022 0.175l-0.328-0.289c-1.255 1.249-2.157 2.597-2.78 4.084-0.5 0.144-1.001 0.288-1.502 0.432 0.036 0.106 0.070 0.211 0.106 0.316 0.418-0.137 0.837-0.275 1.256-0.414-0.037 0.096-0.085 0.187-0.119 0.285-0.292 0.83-0.451 1.677-0.609 2.528zM26.721 12.586c0.105-0.512 1.145-1.161 1.603-0.995 0.101 0.036 0.186 0.361 0.14 0.512-0.163 0.533-0.729 0.877-1.566 0.924-0.049-0.111-0.207-0.294-0.177-0.44z"></path>
<path fill="#f9b43b" d="M19.798 1.853l-0.009 0.003 0.002 0.004z"></path>
<path fill="#f9b43b" d="M46.307 31.223c0.2 0.318 0.318 0.506 0.489 0.777 0.255-0.18 0.502-0.314 0.679-0.509 0.056-0.062-0.087-0.427-0.127-0.426-0.309 0.014-0.616 0.083-1.041 0.158z"></path>
<path fill="#f9b43b" d="M47.137 21.353c-0.812-0.092-1.184 0.23-1.162 0.925 0.768 0.158 0.702-0.643 1.162-0.925z"></path>
<path fill="#f9b43b" d="M36.388 24.324c0.034 0.106 0.070 0.21 0.105 0.315 0.564-0.186 1.127-0.372 1.692-0.557-0.029-0.084-0.057-0.167-0.084-0.25-0.572 0.163-1.143 0.328-1.712 0.493z"></path>
<path fill="#f9b43b" d="M37.949 18.285c-0.183 0.078-0.326 0.249-0.479 0.376 0.179 0.073 0.359 0.197 0.546 0.209 0.154 0.009 0.349-0.080 0.461-0.192 0.062-0.062 0.026-0.35-0.032-0.375-0.148-0.059-0.355-0.079-0.496-0.018z"></path>
<path fill="#f9b43b" d="M28.896 22.381c-0.201 0.48-0.357 0.85-0.52 1.241 0.714 0.093 0.597-0.573 0.815-0.909 0.023-0.038-0.202-0.231-0.294-0.332z"></path>
<path fill="#f9b43b" d="M31.2 11.161c0.023 0.203 0.152 0.416 0.291 0.575 0.074 0.084 0.268 0.062 0.408 0.088 0.015-0.171 0.014-0.344 0.047-0.51 0.050-0.236 0.124-0.467 0.194-0.718-0.217 0-0.489 0-0.75 0-0.077 0.206-0.211 0.395-0.191 0.565z"></path>
<path fill="#f9b43b" d="M28.918 8.609c0.132-0.57 0.264-1.14 0.414-1.786-0.626 0.276-0.86 1.103-0.414 1.786z"></path>
<path fill="#f9b43b" d="M16.831 11.008c0.255-0.182 0.502-0.313 0.679-0.51 0.056-0.062-0.087-0.429-0.127-0.426-0.308 0.014-0.615 0.084-1.040 0.158 0.198 0.318 0.317 0.506 0.488 0.778z"></path>
<path fill="#f9b43b" d="M30.704 9.317c-0.515-0.48-0.716-0.493-1.315-0.104 0.099 0.191 0.184 0.348 0.283 0.538 0.334-0.14 0.667-0.281 1.032-0.434z"></path>
<path fill="#f9b43b" d="M0 12.189c0.004 0.062 0.008 0.126 0.014 0.188 0.264 0.176 0.529 0.35 1.003 0.664-0.037-0.398-0.012-0.818-0.092-0.838-0.289-0.078-0.614-0.020-0.925-0.014z"></path>
<path fill="#f9b43b" d="M9.636 17.068c-0.019-0.017-0.035-0.032-0.054-0.050-0.002 0.019 0 0.033-0.002 0.050 0.019 0 0.038 0 0.056 0z"></path>
<path fill="#f9b43b" d="M1.757 12.343c0.439 0.262 0.924 0.135 1.397 0.104 0.010-0.087 0.019-0.174 0.029-0.261-0.467-0.031-0.934-0.059-1.401-0.089-0.008 0.083-0.017 0.164-0.025 0.245z"></path>
<path fill="#f9b43b" d="M30.284 18.921c0-0.446 0-0.893 0-1.338-0.082 0.003-0.165 0.006-0.248 0.012 0.033 0.453 0.067 0.904 0.099 1.356 0.050-0.009 0.1-0.019 0.149-0.030z"></path>
<path fill="#f9b43b" d="M10.484 1.159c-0.336-0.386-0.672-0.773-1.008-1.159-0.050 0.048-0.1 0.096-0.151 0.144 0.349 0.375 0.698 0.75 1.047 1.126 0.037-0.037 0.074-0.073 0.112-0.111z"></path>
<path fill="#f9b43b" d="M49.156 4.689c0 0.239 0 0.476 0 0.714 0.465 0.099 0.934 0.198 1.4 0.298 0.037-0.11 0.073-0.218 0.109-0.327-0.503-0.228-1.005-0.456-1.508-0.684z"></path>
<path fill="#f9b43b" d="M45.85 20.436l-0.079-1.234h-1.236c-0.316 0-0.632 0.011-1.027 0.022-0.634 0.020-1.264 0.025-1.741-0.031-0.556-0.067-1.064-0.098-1.551-0.098-0.444 0-0.866 0.035-1.274 0.091h-7.817c-0.145-0.006-0.285-0.009-0.419-0.009l-3.829 0.022c-1.996 0.008-4.176 0.012-6.717 0.012l-13.019-0.008-0.054 1.261c-0.114 2.691 0.933 5.416 2.874 7.477 1.946 2.067 4.617 3.279 7.326 3.327 3.344 0.060 6.7 0.089 9.974 0.089 2.737 0 5.499-0.021 8.21-0.062 2.831-0.042 5.61-1.318 7.626-3.5 1.384-1.497 2.306-3.352 2.63-5.271l0.045 0.041 0.087-1.064-0.014 0.001c0.024-0.392 0.025-0.742 0.004-1.065zM27.476 19.81c0.065 0.173 0.1 0.335 0.133 0.498-0.062-0.166-0.13-0.332-0.221-0.497-0.033-0.061-0.050-0.116-0.054-0.178l-0.011-0.231 0.152 0.408zM41.162 26.006c-1.527 1.654-3.616 2.621-5.73 2.654-5.915 0.090-12.061 0.081-18.097-0.026-2.004-0.036-3.993-0.946-5.454-2.498-1.145-1.217-1.88-2.726-2.097-4.295l10.377 0.006c2.542 0 4.712-0.004 6.706-0.013v0.002l0.503-0.003c0.060-0.001 0.125-0.001 0.186-0.001l1.012 0.006-0.011-0.013 2.224-0.013c0.264 0 0.495 0.021 0.816 0.074h7.135l0.1-0.012c0.677-0.152 1.439-0.175 2.319-0.092l0.666 0.059c0.402 0.030 0.87 0.040 1.356 0.029-0.2 1.483-0.904 2.934-2.012 4.136z"></path>
</svg>
