<!-- Generated by IcoMoon.io -->
<svg version="1.1" xmlns="http://www.w3.org/2000/svg" width="33" height="32" viewBox="0 0 33 32">
<title>burger</title>
<path fill="#fff" d="M6.097 22.625c-0.004-0.163-0.006-0.347-0.011-0.532 0.032-0.017 0.063-0.032 0.095-0.049 0.049 0.109 0.12 0.213 0.144 0.328 0.036 0.165 0.091 0.356 0.040 0.503-0.039 0.116-0.225 0.182-0.356 0.277-0.25-0.473-0.604-0.62-1.030-0.466-0.075 0.028-0.125 0.136-0.181 0.212-0.173 0.237-0.344 0.475-0.512 0.716-0.078 0.112-0.146 0.229-0.24 0.379-0.298-0.235-0.592-0.469-0.886-0.702 0.017-0.032 0.033-0.065 0.049-0.095 0.131 0.067 0.269 0.122 0.392 0.203 0.163 0.108 0.298 0.16 0.417-0.057 0.022-0.041 0.11-0.045 0.169-0.065 0.060-0.021 0.162-0.032 0.17-0.065 0.016-0.075 0.002-0.166-0.029-0.239-0.057-0.136-0.134-0.263-0.203-0.394 0.037-0.017 0.073-0.035 0.109-0.052 0.060 0.103 0.121 0.206 0.247 0.419-0.056-0.64 0.453-0.473 0.699-0.661 0.449-0.346 0.456 0.442 0.916 0.341z"></path>
<path fill="#fff" d="M11.478 27.223c-0.538-0.009-0.941 0.103-1.117 0.63-0.074 0.22-0.361 0.216-0.505 0.010-0.075-0.11-0.146-0.225-0.253-0.391-0.067 0.178-0.106 0.28-0.174 0.46-0.041-0.11-0.080-0.164-0.067-0.189 0.151-0.297 0.24-0.585-0.044-0.858 0.085-0.087 0.158-0.206 0.261-0.25 0.071-0.029 0.186 0.046 0.304 0.081 0.003 0.065 0.007 0.138 0.011 0.212 0.024 0.424 0.257 0.563 0.63 0.371 0.161-0.082 0.322-0.172 0.468-0.279 0.261-0.192 0.394-0.101 0.488 0.203z"></path>
<path fill="#fff" d="M12.474 15.706c-0.065 0.646-0.209 1.197-0.645 1.628-0.053 0.052-0.196 0.052-0.276 0.021-0.042-0.017-0.068-0.161-0.049-0.233 0.068-0.26 0.191-0.509 0.234-0.771 0.066-0.411 0.44-0.42 0.736-0.645z"></path>
<path fill="#fff" d="M15.893 21.964c-0.414 0.556-0.414 0.556-0.287 0.711-0.184 0.109-0.447 0.266-0.708 0.422 0.011-0.091 0.021-0.182 0.032-0.272-0.121-0.235-0.243-0.47-0.365-0.704 0.382 0.219 0.633 0.16 0.843-0.222 0.178-0.322 0.348-0.144 0.485 0.065z"></path>
<path fill="#fff" d="M14.82 29.36c-0.194-0.029-0.321-0.049-0.485-0.073-0.014 0.056-0.035 0.143-0.084 0.344-0.247-0.293-0.45-0.531-0.655-0.772 0.511-0.331 0.703-0.262 1.223 0.501z"></path>
<path fill="#fff" d="M17.832 22.565c0.224-0.284 0.427-0.541 0.63-0.795 0.039 0.029 0.077 0.059 0.116 0.087-0.062 0.078-0.145 0.148-0.18 0.237-0.049 0.126-0.103 0.273-0.083 0.399 0.039 0.252-0.284 0.838-0.526 0.88-0.045 0.009-0.109-0.007-0.142-0.037-0.027-0.024-0.040-0.091-0.027-0.129 0.071-0.235 0.153-0.467 0.212-0.642z"></path>
<path fill="#fff" d="M16.497 23.591c0.284-0.072 0.569-0.143 0.89-0.224 0.048 0.093-0.35 0.339 0.032 0.483-0.315-0.057-0.63-0.116-0.945-0.174 0.009-0.029 0.017-0.057 0.024-0.085z"></path>
<path fill="#fff" d="M9.823 22.681c-0.108-0.328-0.168-0.511-0.227-0.695 0.021-0.031 0.043-0.063 0.065-0.095 0.151 0.115 0.327 0.21 0.435 0.356 0.030 0.041-0.141 0.232-0.273 0.435z"></path>
<path fill="#fff" d="M13.22 23.685c0.334 0.136 0.669 0.273 1.003 0.409-0.019 0.052-0.037 0.103-0.056 0.153-0.339-0.123-0.678-0.248-1.016-0.373 0.024-0.062 0.046-0.125 0.069-0.189z"></path>
<path fill="#fff" d="M12.203 31.091c0.312 0.245 0.578 0.457 0.901 0.713-0.6-0.090-0.907-0.327-0.901-0.713z"></path>
<path fill="#fff" d="M14.119 26.592c0.318 0.174 0.269 0.434-0.226 0.861 0.039-0.137 0.082-0.276 0.118-0.414 0.038-0.147 0.072-0.295 0.108-0.447z"></path>
<path fill="#fff" d="M11.469 32c-0.091-0.189-0.162-0.321-0.217-0.458-0.025-0.060-0.049-0.163-0.019-0.194 0.042-0.044 0.187-0.066 0.196-0.049 0.083 0.154 0.164 0.315 0.203 0.483 0.011 0.056-0.103 0.141-0.164 0.217z"></path>
<path fill="#fff" d="M12.424 28.654c-0.214-0.217-0.422-0.435-0.017-0.846 0.053 0.333 0.092 0.58 0.132 0.826-0.039 0.007-0.077 0.013-0.115 0.020z"></path>
<path fill="#fff" d="M10.544 22.521c0.212 0.191 0.422 0.379 0.634 0.57-0.037 0.038-0.075 0.075-0.111 0.113-0.238-0.164-0.516-0.287-0.627-0.577 0.035-0.034 0.070-0.071 0.105-0.106z"></path>
<path fill="#fff" d="M9.665 20.328c0.226-0.125 0.439-0.242 0.716-0.396 0.006 0.083 0.040 0.261 0.016 0.269-0.232 0.079-0.427 0.44-0.732 0.127z"></path>
<path fill="#fff" d="M9.414 28.438c-0.032 0.394-0.062 0.787-0.093 1.182-0.045-0.003-0.091-0.007-0.136-0.011 0.029-0.389 0.057-0.78 0.087-1.17 0.048-0.001 0.095-0.001 0.143-0.001z"></path>
<path fill="#fff" d="M18.776 19.654c0.015 0.311 0.029 0.622 0.044 0.933-0.032 0.004-0.064 0.007-0.095 0.011-0.025-0.311-0.050-0.622-0.075-0.931 0.042-0.004 0.085-0.009 0.126-0.013z"></path>
<path fill="#fff" d="M13.375 4.525c-0.214 0.017-0.43 0.034-0.646 0.051l-0.232 0.333 0.409 0.399c0.483 0.472 1.032 0.731 1.549 0.731 0 0 0 0 0 0 0.46 0 0.87-0.212 1.127-0.582 0.207-0.298 0.169-0.673 0.128-0.868-0.062-0.3-0.204-0.526-0.412-0.655-0.354-0.219-0.706-0.331-1.046-0.331-0.371 0-0.902 0.138-1.369 0.759 0.153-0.024 0.307-0.051 0.457-0.065 0.012 0.075 0.024 0.15 0.035 0.226z"></path>
<path fill="#fff" d="M6.3 7.509l-0.579-0.694-0.502 0.752c-0.030 0.045-0.072 0.093-0.113 0.142-0.202 0.242-0.506 0.609-0.321 1.068 0.143 0.356 0.357 0.663 0.546 0.935 0.065 0.095 0.131 0.189 0.193 0.284l0.283 0.371 1.098-0.197 0.133-0.369c0.015-0.043 0.041-0.090 0.065-0.138 0.118-0.24 0.316-0.641 0.082-1.038-0.191-0.326-0.427-0.593-0.656-0.852-0.077-0.088-0.155-0.175-0.229-0.265z"></path>
<path fill="#fff" d="M20.89 7.896l0.478 0.621 2.064-2.139-0.542-0.467c-0.045-0.039-0.099-0.093-0.153-0.146-0.245-0.241-0.455-0.448-0.787-0.448l-0.196 0.003-0.158 0.094c-0.444 0.26-0.815 0.592-1.147 0.911-0.461 0.437-0.094 0.896 0.174 1.233 0.081 0.1 0.174 0.217 0.268 0.338z"></path>
<path fill="#fff" d="M10.464 9.997c0.047 0.046 0.094 0.091 0.13 0.13l0.474 0.52 0.735-0.724c0.268-0.259 0.545-0.527 0.797-0.832 0.354-0.429 0.057-0.848-0.161-1.154-0.073-0.103-0.161-0.227-0.254-0.369l-0.533-0.823-0.579 0.792c-0.102 0.138-0.196 0.266-0.284 0.384-0.27 0.362-0.484 0.648-0.672 0.975-0.285 0.493 0.11 0.875 0.346 1.102z"></path>
<path fill="#fff" d="M9.31 4.542c-0.056-0.035-0.112-0.070-0.169-0.104l-0.166-0.094h-0.181c-0.335 0-0.53 0.209-0.756 0.45-0.045 0.049-0.090 0.098-0.129 0.135l-0.502 0.476 0.718 0.725c0.063 0.065 0.13 0.131 0.195 0.196 0.151-0.118 0.38-0.163 0.694-0.128-0.17 0.105-0.25 0.298-0.347 0.462 0.096 0.088 0.19 0.178 0.293 0.263l0.2 0.157h0.242c0 0 0 0 0 0 0.261 0 0.432-0.122 0.713-0.324 0.101-0.072 0.223-0.161 0.361-0.251l0.817-0.536-1.162-0.85c-0.256-0.191-0.474-0.351-0.694-0.497-0.299-0.010-0.599-0.027-0.898-0.083 0.257 0 0.516 0.004 0.772 0.004z"></path>
<path fill="#fff" d="M16.472 10.104l0.526 0.754 1.606-2.075-0.996-1.042c-0.006 0.072-0.021 0.152-0.050 0.243-0.049 0.155 0.211 0.417 0.343 0.617 0.074 0.113 0.178 0.206 0.346 0.395-0.728-0.218-0.775-0.254-1.032-0.809-0.161-0.344-0.311-0.693-0.465-1.041l-0.349 0.533c-0.042 0.065-0.097 0.129-0.15 0.194-0.204 0.25-0.483 0.59-0.452 1.038 0.030 0.427 0.295 0.738 0.508 0.987 0.057 0.068 0.116 0.136 0.164 0.204zM17.767 9.096c0.079 0.029 0.145 0.284 0.109 0.402-0.127 0.419-0.572 0.688-1.23 0.726-0.037-0.087-0.161-0.231-0.138-0.345 0.082-0.404 0.898-0.912 1.259-0.782z"></path>
<path fill="#fff" d="M22.993 10.365c0.075 0.043 0.148 0.096 0.222 0.148 0.258 0.183 0.58 0.41 1.036 0.429 0.417 0 0.721-0.25 0.965-0.451 0.063-0.051 0.125-0.105 0.188-0.146l0.771-0.506-2.033-1.656-1.971 1.707 0.821 0.475z"></path>
<path fill="#fff" d="M12.222 2.108c-0.060 0.023-0.156 0.059-0.267 0.101 0.032 0.127 0.105 0.269 0.107 0.391 1.354-0.323 2.774-0.501 4.223-0.501 0.748 0 1.488 0.044 2.214 0.131-0.155 0.082-0.284 0.219-0.424 0.367-0.046 0.048-0.093 0.098-0.131 0.135l-0.501 0.472 0.712 0.731c0.257 0.269 0.523 0.546 0.828 0.8l0.202 0.161h0.244c0.255 0 0.434-0.123 0.703-0.308 0.103-0.072 0.227-0.157 0.369-0.245l0.84-0.523-1.162-0.875c-0.304-0.231-0.554-0.421-0.817-0.592 2.532 0.425 4.868 1.373 6.768 2.774 2.197 1.618 3.41 3.537 3.708 5.863 0.001 0.017 0.004 0.035 0.006 0.053h-17.473c0.146 0.072 0.171 0.254 0.114 0.611-0.161-0.192-0.323-0.386-0.511-0.611h-7.664c0.042 0.174 0.034 0.422-0.031 0.766-0.071-0.171-0.138-0.344-0.213-0.515-0.037-0.085-0.077-0.167-0.116-0.252h-1.152c0.005-0.028 0.010-0.055 0.015-0.082 0.113-0.604 0.22-1.175 0.404-1.696 0.613-1.738 1.798-3.157 3.727-4.467 1.161-0.787 2.48-1.405 3.894-1.857-0.085-0.446-0.17-0.893-0.255-1.338-1.596 0.495-3.088 1.188-4.397 2.077-0.595 0.404-1.125 0.825-1.605 1.265 0.032 0.162-0.032 0.523 0.381 0.392-0.366 0.194-0.731 0.386-1.096 0.58-0.016-0.034-0.030-0.071-0.044-0.105 0.133-0.174 0.269-0.349 0.408-0.531-1.067 1.061-1.826 2.229-2.287 3.535-0.219 0.62-0.341 1.269-0.458 1.897-0.053 0.283-0.107 0.57-0.171 0.861l-0.179 0.821h4.282c-0.245-0.052-0.489-0.104-0.733-0.156 0-0.17 0-0.34 0-0.51 0.359 0.163 0.717 0.326 1.076 0.489-0.019 0.059-0.039 0.118-0.058 0.176h25.586l-0.066-1.033c-0.011-0.205-0.021-0.376-0.042-0.544-0.346-2.711-1.736-4.93-4.247-6.779-2.881-2.123-6.662-3.291-10.647-3.291-1.474 0-2.922 0.168-4.31 0.482 0.003 0.007 0.006 0.014 0.009 0.021-0.592 0.505 0.276 0.507 0.238 0.858zM7.467 3.362c0.168 0.154 0.322 0.294 0.493 0.45-0.197 0.017-0.45 0.042-0.851 0.077 0.177-0.26 0.265-0.389 0.359-0.526z"></path>
<path fill="#fff" d="M11.471 2.242c-0.069 0.017-0.138 0.037-0.207 0.054 0.008 0.163-0.009 0.339-0.004 0.504 0.147-0.043 0.299-0.075 0.448-0.113-0.082-0.153-0.16-0.301-0.237-0.445z"></path>
<path fill="#fff" d="M11.074 1.455l-0.007 0.001 0.002 0.003z"></path>
<path fill="#fff" d="M26.117 8.138l0.613 0.745 0.039-0.032c-0.159-0.402-0.27-0.83-0.572-1.15-0.085-0.091-0.032-0.313-0.043-0.473 0.055-0.014 0.109-0.028 0.164-0.043 0.315 0.414 0.63 0.83 0.952 1.254l1.172-0.962-0.713-0.732c-0.31-0.321-0.578-0.597-0.871-0.848l-0.191-0.164h-0.252c-0.517 0-1.035 0.769-1.039 0.776l-0.194 0.372 0.223 0.337c0.222 0.332 0.47 0.632 0.713 0.921z"></path>
<path fill="#fff" d="M30.984 22.704c0.058 0.053 0.113 0.105 0.169 0.156 0.021-0.294 0.029-0.589 0.010-0.882l-0.041-0.633h-0.635c-0.244 0-0.491 0.007-0.736 0.015-0.234 0.007-0.468 0.014-0.702 0.014v0c-0.303 0-0.549-0.013-0.776-0.039-0.42-0.050-0.805-0.075-1.174-0.075-1.773 0-3.177 0.602-4.264 1.836-0.171-0.197-0.333-0.391-0.479-0.588-0.772-1.051-1.829-1.185-2.664-1.185h-0.055c-0.712 0.006-1.444 0.010-2.201 0.014 0.146 0.389 0.214 0.787 0.162 1.221-0.005 0.042-0.039 0.088-0.082 0.131 0.733-0.004 1.441-0.009 2.132-0.014h0.045c0.82 0 1.231 0.166 1.575 0.635 0.232 0.316 0.492 0.612 0.741 0.898 0.112 0.128 0.226 0.257 0.34 0.391l0.576 0.68 0.5-0.738c0.904-1.333 2.038-1.928 3.675-1.928 0.241 0 0.497 0.017 0.766 0.042 0-0.315 0-0.62 0-0.919 0.062 0 0.125-0.003 0.188-0.003 0 0.128-0.029 0.265 0.007 0.382 0.050 0.168 0.114 0.359 0.235 0.472 0.031 0.028 0.060 0.067 0.086 0.113 0.205 0.015 0.419 0.027 0.668 0.027v0c0.248 0 0.495-0.009 0.744-0.015 0.007-0.001 0.015-0.001 0.022-0.001-0.080 1.37-0.685 2.746-1.712 3.859-1.266 1.371-2.999 2.172-4.755 2.197-4.667 0.072-9.45 0.065-14.215-0.021-1.669-0.029-3.322-0.785-4.536-2.073-1.051-1.118-1.682-2.536-1.783-3.976l8.541 0.006c2.222 0 4.092-0.004 5.8-0.011-0.026-0.029-0.048-0.059-0.060-0.085-0.139-0.316-0.214-0.667-0.381-0.967-0.060-0.106-0.082-0.204-0.087-0.297-1.566 0.006-3.278 0.009-5.273 0.009l-9.872-0.006-0.028 0.647c-0.085 2.016 0.701 4.059 2.158 5.606 1.461 1.552 3.465 2.464 5.496 2.498 2.609 0.046 5.24 0.070 7.821 0.070 2.146 0 4.313-0.017 6.438-0.047 2.124-0.032 4.212-0.993 5.727-2.633 1.14-1.236 1.841-2.754 2.024-4.298-0.137 0.013-0.298 0.027-0.495 0.045 0.177-0.261 0.265-0.39 0.358-0.529zM19.064 29.057c-0.004-0.049-0.007-0.098-0.011-0.147 0.245-0.006 0.499-0.050 0.726 0.010 0.063 0.017 0.044 0.346 0.073 0.658-0.371-0.247-0.579-0.382-0.787-0.521zM21.529 29.114c-0.371 0.024-0.752 0.123-1.096-0.082 0.007-0.065 0.014-0.128 0.020-0.192 0.366 0.024 0.732 0.046 1.099 0.070-0.007 0.067-0.014 0.136-0.022 0.204z"></path>
<path fill="#fff" d="M2.101 18.928c2.486 0.007 4.976 0.009 7.485 0.010-0.054-0.1-0.104-0.2-0.148-0.301-0.12-0.275 0.188-0.746 0.501-0.846 0.118-0.038 0.208-0.112 0.273-0.204-0.431 0-0.859-0.001-1.289-0.001 0.148 0.409 0.293 0.813 0.435 1.21-0.356-0.156-0.656-0.699-0.782-1.211-2.165 0-4.32-0.003-6.47-0.009-0.24-0.001-0.437-0.075-0.572-0.212-0.123-0.125-0.186-0.298-0.182-0.497 0.011-0.563 0.494-0.683 0.898-0.685 1.373-0.007 2.748-0.009 4.121-0.010-0.009-0.044-0.015-0.086-0.013-0.129 0.012-0.273 0.108-0.539 0.171-0.817 0.465 0.223 0.759 0.552 0.957 0.946l2.611 0.001c-0.028-0.166-0.055-0.331-0.071-0.499 0.146 0.212 0.254 0.369 0.333 0.499l1.111 0.001c0.415 0 0.83 0.003 1.246 0.006 0.418 0.003 0.837 0.006 1.255 0.006 0.735 0 1.335-0.009 1.889-0.028l0.074-0.001c0.093 0 0.175 0.009 0.254 0.021-0.060-0.065-0.12-0.14-0.18-0.194 0.16-0.157 0.3-0.348 0.491-0.447 0.058-0.029 0.25 0.206 0.488 0.413-0.212 0.139-0.354 0.277-0.484 0.335 0.135 0.070 0.26 0.168 0.392 0.313 0.307 0.338 0.623 0.654 0.966 0.987l-6.959 0.001c-0.133 0-0.264 0-0.397 0-0.12 0.483-0.43 0.994-0.681 1.063-0.060 0.060-0.12 0.12-0.18 0.179 0.047 0.037 0.097 0.073 0.145 0.109 0.372 0 0.741 0 1.114 0l10.285-0.001-1.18-1.158c-0.266-0.261-0.517-0.501-0.755-0.73-0.511-0.491-0.95-0.912-1.357-1.36-0.021-0.024-0.045-0.045-0.068-0.069-0.015 0.090-0.175 0.171-0.269 0.257-0.112-0.127-0.279-0.241-0.316-0.386-0.013-0.051 0.063-0.128 0.169-0.233-0.429-0.305-0.909-0.452-1.476-0.452l-0.12 0.001c-0.538 0.019-1.123 0.028-1.842 0.028-0.416 0-0.831-0.004-1.246-0.006-0.418-0.003-0.837-0.006-1.269-0.006l-4.967-0.001c-0.087 0-0.173 0-0.259 0 0.032 0.070 0.077 0.169 0.153 0.337-0.484-0.097-0.881-0.177-1.28-0.255 0.009-0.029 0.020-0.051 0.030-0.078-0.678 0.001-1.356 0.002-2.034 0.005 0.298 0.274 0.526 0.485 0.753 0.693-0.034 0.037-0.067 0.075-0.1 0.112-0.383-0.048-0.758-0.106-0.696-0.805-0.271 0.001-0.542 0.001-0.813 0.002-0.229 0.001-0.439 0.034-0.64 0.081 0.015 0.010 0.030 0.017 0.045 0.028-0.551 0.423-0.87 0.857-0.626 1.535 0.102 0.282-0.193 0.506-0.503 0.412-0.149-0.044-0.299-0.099-0.504-0.169-0.004 0.041-0.014 0.080-0.014 0.122 0 0.007 0.001 0.014 0.001 0.021 0.046 0.144 0.084 0.263 0.139 0.437-0.044-0.027-0.079-0.045-0.11-0.061 0.068 0.408 0.252 0.78 0.538 1.072 0.387 0.397 0.931 0.617 1.533 0.618z"></path>
<path fill="#fff" d="M31.555 15.985c-0.197-0.333-0.88-0.528-1.506-0.544-0.062 0.168-0.194 0.313-0.363 0.366-0.171 0.053-0.345 0.095-0.608 0.166 0.055-0.15 0.103-0.285 0.148-0.415-0.085 0.034-0.158 0.075-0.215 0.125-0.842 0.741-1.638 1.535-2.452 2.308 0.079 0.091 0.158 0.182 0.237 0.273 1.237 0.004 2.479 0.072 3.704-0.042 0.465-0.044 1.057-0.454 1.277-0.864 0.181-0.332 0.007-0.986-0.223-1.372z"></path>
<path fill="#fff" d="M25.322 23.067c0.139-0.369 0.28-0.736 0.378-0.996-0.252-0.055-0.252-0.055-0.279-0.948-0.307-0.101-0.621-0.146-0.543 0.323 0.093 0.553-0.114 0.814-0.677 0.898 0.312 0.141 0.623 0.282 0.934 0.422 0.062 0.101 0.124 0.2 0.186 0.301z"></path>
<path fill="#fff" d="M32.795 24.714c0.044-0.047-0.067-0.336-0.1-0.335-0.242 0.011-0.483 0.066-0.817 0.125 0.157 0.25 0.25 0.397 0.384 0.611 0.201-0.143 0.394-0.247 0.533-0.401z"></path>
<path fill="#fff" d="M32.531 22.674c-0.637-0.072-0.929 0.181-0.911 0.727 0.603 0.125 0.55-0.506 0.911-0.727z"></path>
<path fill="#fff" d="M28.478 21.811c-0.502 0.158-0.298-0.41-0.42-0.463-0.26 0.338-0.491 0.639-0.721 0.939 0.015 0.034 0.029 0.070 0.045 0.105 0.366-0.195 0.731-0.387 1.096-0.58z"></path>
<path fill="#fff" d="M25.502 24.815c-0.021-0.066-0.044-0.131-0.066-0.196-0.448 0.128-0.896 0.257-1.343 0.387 0.027 0.082 0.055 0.165 0.082 0.248 0.442-0.146 0.885-0.291 1.327-0.439z"></path>
<path fill="#fff" d="M27.334 27.23c0.083 0.182 0.169 0.359 0.249 0.539 0.075 0.169 0.141 0.343 0.213 0.516 0.158-0.83-0.001-1.135-0.462-1.055z"></path>
<path fill="#fff" d="M25.32 14.35c-0.143 0.061-0.255 0.196-0.376 0.295 0.14 0.058 0.282 0.155 0.428 0.164 0.121 0.008 0.274-0.062 0.362-0.151 0.047-0.047 0.021-0.275-0.025-0.293-0.115-0.047-0.278-0.063-0.389-0.015z"></path>
<path fill="#fff" d="M18.445 23.741c0.018-0.029-0.158-0.181-0.231-0.26-0.157 0.376-0.279 0.667-0.408 0.975 0.559 0.073 0.47-0.449 0.639-0.714z"></path>
<path fill="#fff" d="M20.573 9.278c0.011-0.133 0.010-0.27 0.037-0.4 0.039-0.185 0.098-0.366 0.152-0.564-0.17 0-0.383 0-0.588 0-0.060 0.163-0.166 0.31-0.151 0.444 0.019 0.16 0.119 0.326 0.229 0.451 0.058 0.067 0.211 0.049 0.321 0.069z"></path>
<path fill="#fff" d="M18.557 5.354c-0.492 0.217-0.676 0.866-0.325 1.402 0.104-0.447 0.207-0.894 0.325-1.402z"></path>
<path fill="#fff" d="M9.278 8.239c0.044-0.049-0.067-0.336-0.1-0.335-0.242 0.011-0.483 0.066-0.816 0.124 0.156 0.249 0.249 0.397 0.384 0.611 0.2-0.142 0.394-0.247 0.532-0.4z"></path>
<path fill="#fff" d="M19.633 7.311c-0.404-0.376-0.561-0.386-1.033-0.082 0.078 0.15 0.144 0.273 0.222 0.422 0.262-0.11 0.524-0.22 0.81-0.341z"></path>
<path fill="#fff" d="M1.986 8.34c-0.022-0.066-0.044-0.132-0.066-0.197-0.448 0.129-0.896 0.259-1.344 0.387 0.028 0.083 0.055 0.166 0.082 0.247 0.442-0.146 0.885-0.292 1.327-0.437z"></path>
<path fill="#fff" d="M3.056 13.356c-0.001 0.015 0 0.025-0.001 0.040 0.015 0 0.029 0 0.044 0-0.015-0.014-0.027-0.026-0.043-0.040z"></path>
<path fill="#fff" d="M18.614 13.172c0.066 0.067 0.132 0.135 0.197 0.203 0.182-0.245 0.366-0.491 0.578-0.774-0.491-0.090-0.715 0.098-0.775 0.572z"></path>
<path fill="#fff" d="M15.882 15.825c0.127-0.31 0.045-0.568-0.362-0.746 0.071 0.261 0.142 0.523 0.213 0.784 0.049-0.012 0.1-0.025 0.149-0.038z"></path>
<path fill="#fff" d="M19.304 14.849c0-0.35 0-0.701 0-1.050-0.065 0.003-0.13 0.006-0.194 0.009 0.026 0.355 0.051 0.71 0.077 1.065 0.039-0.008 0.079-0.016 0.118-0.024z"></path>
<path fill="#fff" d="M2.974 0c-0.039 0.037-0.079 0.075-0.118 0.112 0.274 0.295 0.548 0.589 0.822 0.885 0.029-0.029 0.057-0.058 0.087-0.088-0.264-0.303-0.527-0.607-0.791-0.909z"></path>
</svg>
