<!-- Generated by IcoMoon.io -->
<svg version="1.1" xmlns="http://www.w3.org/2000/svg" width="36" height="32" viewBox="0 0 36 32">
<title>cheese</title>
<path fill="#f9b43b" d="M1.336 4.16c0.164-0.252 0.332-0.503 0.502-0.752 0.054-0.081 0.102-0.193 0.179-0.225 0.433-0.174 0.801-0.036 1.075 0.443 0.13-0.101 0.319-0.177 0.356-0.297 0.047-0.153-0.017-0.347-0.059-0.516-0.030-0.117-0.106-0.221-0.16-0.333-0.032 0.019-0.065 0.037-0.097 0.054 0.011 0.189 0.021 0.38 0.030 0.546-0.47 0.123-0.504-0.688-0.955-0.319-0.245 0.202-0.774 0.050-0.695 0.705-0.137-0.214-0.203-0.319-0.269-0.422-0.037 0.020-0.073 0.038-0.111 0.058 0.076 0.132 0.159 0.26 0.223 0.398 0.035 0.074 0.052 0.167 0.037 0.245-0.006 0.033-0.112 0.048-0.172 0.070s-0.15 0.031-0.172 0.073c-0.116 0.226-0.256 0.178-0.427 0.072-0.127-0.079-0.272-0.131-0.409-0.195-0.016 0.035-0.031 0.067-0.047 0.1 0.31 0.231 0.621 0.458 0.935 0.691 0.092-0.157 0.158-0.281 0.234-0.399z"></path>
<path fill="#f9b43b" d="M14.796 3.452c-0.328 0.094-0.618 0.177-0.906 0.26-0.008 0.030-0.014 0.059-0.022 0.089 0.326 0.049 0.651 0.098 0.978 0.146-0.397-0.136 0.002-0.404-0.050-0.495z"></path>
<path fill="#f9b43b" d="M7.26 2.554c-0.116-0.147-0.302-0.238-0.46-0.35-0.022 0.033-0.042 0.067-0.063 0.099 0.067 0.187 0.137 0.372 0.258 0.706 0.128-0.214 0.297-0.415 0.265-0.456z"></path>
<path fill="#f9b43b" d="M11.453 7.344c-0.033 0.144-0.070 0.288-0.107 0.431 0.493-0.456 0.535-0.726 0.202-0.893-0.032 0.155-0.061 0.311-0.096 0.462z"></path>
<path fill="#f9b43b" d="M7.498 0.441c0.024-0.010-0.016-0.191-0.025-0.276-0.28 0.167-0.495 0.294-0.724 0.432 0.325 0.31 0.515-0.068 0.749-0.157z"></path>
<path fill="#f9b43b" d="M13.022 25.747c0.352 0.115 0.705 0.232 1.057 0.347 0.018-0.052 0.036-0.105 0.052-0.158-0.348-0.128-0.696-0.256-1.045-0.386-0.021 0.066-0.042 0.131-0.064 0.198z"></path>
<path fill="#f9b43b" d="M12.442 30.686c0.039-0.007 0.079-0.015 0.117-0.023-0.049-0.253-0.098-0.506-0.163-0.846-0.402 0.435-0.181 0.653 0.046 0.868z"></path>
<path fill="#f9b43b" d="M9.144 31.782c0.047 0.004 0.094 0.005 0.141 0.007 0.019-0.407 0.037-0.813 0.056-1.22-0.050 0.003-0.098 0.005-0.147 0.007-0.017 0.403-0.034 0.805-0.050 1.206z"></path>
<path fill="#f9b43b" d="M27.592 9.016c-0.014 0.028 0.029 0.082 0.075 0.192 0.063-0.184 0.099-0.292 0.163-0.477 0.115 0.168 0.192 0.282 0.275 0.393 0.155 0.206 0.45 0.202 0.517-0.026 0.164-0.551 0.574-0.679 1.127-0.687-0.106-0.311-0.247-0.399-0.507-0.192-0.145 0.113-0.307 0.212-0.471 0.303-0.376 0.211-0.621 0.076-0.661-0.36-0.007-0.075-0.013-0.151-0.019-0.216-0.123-0.033-0.244-0.108-0.316-0.073-0.105 0.049-0.175 0.172-0.261 0.264 0.303 0.27 0.221 0.571 0.077 0.879z"></path>
<path fill="#f9b43b" d="M33.602 2.798c-0.203 0.4-0.457 0.468-0.86 0.256 0.134 0.238 0.266 0.475 0.4 0.711-0.008 0.096-0.016 0.187-0.023 0.282 0.263-0.171 0.528-0.339 0.713-0.459-0.136-0.155-0.136-0.155 0.271-0.74-0.151-0.212-0.33-0.389-0.502-0.051z"></path>
<path fill="#f9b43b" d="M35.69 4.239c-0.328 0.094-0.617 0.177-0.906 0.26-0.008 0.030-0.015 0.059-0.022 0.089 0.326 0.049 0.651 0.098 0.978 0.146-0.397-0.135 0.002-0.403-0.050-0.495z"></path>
<path fill="#f9b43b" d="M28.153 3.341c-0.116-0.146-0.301-0.237-0.46-0.35-0.021 0.032-0.042 0.067-0.062 0.098 0.067 0.187 0.136 0.373 0.258 0.707 0.127-0.213 0.296-0.415 0.264-0.456z"></path>
<path fill="#f9b43b" d="M32.459 5.097c-0.348-0.129-0.696-0.257-1.044-0.386-0.021 0.066-0.043 0.132-0.065 0.198 0.353 0.115 0.706 0.232 1.058 0.347 0.017-0.053 0.035-0.107 0.051-0.158z"></path>
<path fill="#f9b43b" d="M32.346 8.132c-0.033 0.144-0.071 0.288-0.107 0.431 0.493-0.456 0.535-0.726 0.202-0.893-0.031 0.155-0.061 0.311-0.096 0.462z"></path>
<path fill="#f9b43b" d="M30.771 9.847c0.039-0.007 0.078-0.015 0.117-0.023-0.050-0.252-0.098-0.505-0.164-0.845-0.402 0.436-0.182 0.653 0.047 0.868z"></path>
<path fill="#f9b43b" d="M29.184 4.292c0.037-0.039 0.073-0.081 0.111-0.121-0.224-0.187-0.448-0.376-0.671-0.564-0.034 0.039-0.069 0.077-0.104 0.114 0.125 0.293 0.415 0.411 0.665 0.571z"></path>
<path fill="#f9b43b" d="M28.391 1.228c0.024-0.009-0.016-0.191-0.024-0.276-0.28 0.166-0.495 0.294-0.723 0.432 0.322 0.311 0.513-0.067 0.747-0.157z"></path>
<path fill="#f9b43b" d="M16.608 26.243l0.084-0.001c2.184-0.048 3.923-1.86 3.875-4.041-0.046-2.137-1.821-3.877-3.959-3.877l-0.084 0.001c-1.052 0.023-2.036 0.46-2.773 1.231-0.734 0.768-1.125 1.767-1.1 2.811 0.052 2.138 1.826 3.876 3.957 3.876zM16.609 20.596c0.898 0 1.655 0.73 1.687 1.626 0.033 0.923-0.69 1.707-1.609 1.747-0.024 0.001-0.049 0.002-0.072 0.002-0.316 0-0.611-0.094-0.865-0.247 0.009-0.014 0.016-0.023 0.025-0.038-0.107-0.152-0.232-0.279-0.356-0.217-0.297-0.299-0.486-0.706-0.495-1.155-0.018-0.922 0.719-1.694 1.64-1.718l0.045-0.001z"></path>
<path fill="#f9b43b" d="M8.398 25.436l0.081-0.001c0.697-0.020 1.322-0.292 1.814-0.714 0.146 0.181 0.366 0.285 0.563 0.411 0.037-0.040 0.074-0.081 0.111-0.122-0.172-0.142-0.342-0.287-0.513-0.429 0.556-0.552 0.897-1.317 0.873-2.16-0.044-1.57-1.359-2.848-2.93-2.848l-0.082 0.001c-0.775 0.022-1.501 0.35-2.042 0.922s-0.827 1.316-0.805 2.091c0.045 1.571 1.36 2.849 2.931 2.849zM8.397 21.74v0.116c0.411 0 0.647 0.234 0.649 0.643 0.002 0.411-0.233 0.648-0.655 0.652-0.375 0-0.596-0.217-0.658-0.646 0.056-0.43 0.278-0.649 0.661-0.649l0.004-0.117z"></path>
<path fill="#f9b43b" d="M25.019 22.421l0.059-0.001c0.711-0.016 1.377-0.313 1.875-0.837s0.76-1.204 0.74-1.914c-0.042-1.462-1.291-2.645-2.766-2.596-1.445 0.051-2.603 1.268-2.581 2.715 0.023 1.452 1.221 2.633 2.673 2.633zM24.655 19.733c-0.009-0.066 0.098-0.2 0.213-0.341 0.050-0.060 0.102-0.127 0.157-0.2 0.051 0.071 0.099 0.136 0.144 0.195 0.122 0.16 0.218 0.287 0.215 0.377-0.003 0.099-0.238 0.337-0.313 0.346-0.16-0.028-0.396-0.243-0.415-0.377z"></path>
<path fill="#f9b43b" d="M33.13 25.665c-0.22-0.025-0.441-0.052-0.663-0.067-1.153-0.078-2.057-0.987-2.1-2.114-0.045-1.159 0.807-2.14 1.981-2.283 0.204-0.024 0.408-0.059 0.609-0.094 0.111-0.020 0.22-0.038 0.332-0.056l0.101-0.016-0.166-6.192-0.045-0.033c-0.057-0.044-0.115-0.086-0.175-0.129-0.129-0.093-0.251-0.18-0.36-0.284-1.305-1.235-2.614-2.466-3.924-3.697l-1.671-1.574-0.658 1.729-0.389-0.632-2.023-0.911 0.503 0.477c0.682 0.645 1.363 1.293 2.043 1.938 0.639 0.606 1.276 1.212 1.914 1.817 0.088 0.084 0.172 0.172 0.274 0.279l0.009 0.010-3.71-0.515c-3.824-0.531-7.778-1.081-11.669-1.605-0.609-0.082-0.902-0.221-0.916-0.799-0.004-0.22-0.109-0.437-0.213-0.651-0.751-1.563-2.022-2.424-3.675-2.491-0.143-0.007-0.279 0.003-0.417 0.008 0.196-0.112 0.443-0.155 0.732-0.159-0.107-0.311-0.247-0.398-0.507-0.192-0.146 0.114-0.307 0.211-0.471 0.303-0.377 0.212-0.621 0.076-0.661-0.36-0.007-0.075-0.012-0.151-0.019-0.216-0.123-0.033-0.244-0.108-0.316-0.073-0.105 0.048-0.175 0.172-0.261 0.264 0.247 0.219 0.234 0.461 0.144 0.71-0.86 0.345-1.575 0.996-2.131 1.951-0.122 0.211-0.305 0.39-0.4 0.393l-0.067 0.001c-0.255 0-0.516-0.049-0.818-0.104-0.083-0.016-0.168-0.031-0.255-0.047 0.1-0.122 0.196-0.24 0.291-0.355 0.27-0.332 0.526-0.646 0.795-0.936 1.854-2 3.99-3.581 6.447-4.783 0.296 0.098 0.592 0.194 0.888 0.292 0.018-0.053 0.035-0.105 0.052-0.158-0.232-0.085-0.464-0.172-0.696-0.257 1.519-0.721 3.16-1.298 4.935-1.737 0.487-0.119 0.75-0.053 1.087 0.269 1.756 1.676 3.517 3.345 5.279 5.014l1.714 1.624 0.064-0.017c0.918-0.246 1.377-0.749 1.443-1.584l0.006-0.056-0.041-0.038c-1.088-1.030-2.062-1.957-2.965-2.824 0.113-0.17 0.224-0.339 0.338-0.508 0.054-0.081 0.101-0.193 0.179-0.224 0.432-0.175 0.8-0.036 1.075 0.443 0.13-0.101 0.319-0.177 0.355-0.298 0.048-0.152-0.017-0.346-0.059-0.515-0.029-0.117-0.105-0.22-0.16-0.332-0.032 0.018-0.064 0.036-0.097 0.053 0.011 0.19 0.020 0.381 0.029 0.546-0.469 0.124-0.503-0.687-0.954-0.318-0.246 0.202-0.774 0.049-0.695 0.705-0.137-0.215-0.203-0.319-0.27-0.422-0.037 0.020-0.073 0.038-0.11 0.058 0.076 0.132 0.159 0.26 0.223 0.398 0.035 0.073 0.052 0.167 0.037 0.245-0.002 0.011-0.024 0.019-0.043 0.025-1.205-1.158-2.282-2.207-3.304-3.217-0.951-0.942-1.789-1.343-2.805-1.343-0.433 0-0.905 0.076-1.446 0.231-2.502 0.719-4.734 1.648-6.713 2.793-0.081-0.067-0.162-0.135-0.243-0.203-0.035 0.038-0.069 0.076-0.104 0.113 0.037 0.087 0.091 0.156 0.151 0.217-3.168 1.878-5.683 4.321-7.589 7.39-0.021 0.034-0.056 0.066-0.093 0.1-0.021 0.020-0.042 0.039-0.062 0.060l-0.034 0.036 0.437 16.253-0.001-0.001 0.017 0.582 0.527 0.067-0.361-0.43 0.073-0.159c0.081 0.038 0.162 0.075 0.244 0.112 0.263 0.119 0.512 0.231 0.715 0.397l0.255 0.206 0.982 0.129c1.231 0.161 2.462 0.322 3.692 0.492 0.93 0.129 1.86 0.259 2.791 0.388-0.065 0.059-0.123 0.135-0.185 0.202 0.303 0.27 0.221 0.57 0.076 0.879-0.013 0.027 0.030 0.082 0.076 0.191 0.063-0.183 0.099-0.292 0.162-0.476 0.116 0.168 0.192 0.281 0.275 0.392 0.155 0.207 0.45 0.202 0.517-0.025 0.164-0.552 0.574-0.679 1.127-0.688-0.030-0.089-0.065-0.154-0.103-0.204 4.235 0.588 8.469 1.176 12.702 1.767l0.095 0.013 0.048-0.131c0.072-0.198 0.147-0.403 0.204-0.61 0.198-0.726 0.48-0.811 0.675-0.811 0.197 0 0.447 0.098 0.76 0.296-0.502 0.398-0.885 0.775-1.169 1.152l-0.121 0.159 3.334 0.464c0.981 0.137 1.979 0.293 2.942 0.446 0.45 0.070 0.9 0.141 1.349 0.211l0.011 0.001h0.010c0.471-0.012 0.942-0.023 1.413-0.038l0.117-0.004-0.169-6.249-0.389-0.045zM5.952 24.44c-0.029-0.117-0.105-0.221-0.16-0.332-0.032 0.019-0.064 0.036-0.096 0.053 0.010 0.19 0.020 0.381 0.029 0.547-0.47 0.122-0.504-0.689-0.954-0.318-0.246 0.202-0.774 0.049-0.695 0.705-0.137-0.215-0.203-0.319-0.27-0.422-0.037 0.019-0.073 0.038-0.11 0.058 0.076 0.132 0.159 0.259 0.223 0.397 0.034 0.074 0.052 0.167 0.037 0.246-0.007 0.034-0.112 0.048-0.172 0.071s-0.15 0.030-0.172 0.073c-0.045 0.088-0.095 0.126-0.147 0.142-0.067-0.009-0.133-0.019-0.2-0.027-0.026-0.014-0.053-0.025-0.081-0.043-0.127-0.079-0.271-0.131-0.408-0.195-0.016 0.033-0.032 0.066-0.048 0.099 0.036 0.025 0.070 0.052 0.106 0.078-0.042-0.006-0.084-0.012-0.127-0.018l-0.352-13.090c0.12 0.016 0.239 0.032 0.356 0.049 0.385 0.054 0.75 0.104 1.121 0.137 0.279 0.025 0.395 0.13 0.491 0.448 0.53 1.755 1.746 2.806 3.517 3.044 1.68 0.22 3.096-0.445 4.060-1.907 0.229-0.347 0.391-0.411 0.746-0.358 3.375 0.483 6.81 0.958 10.131 1.419l2.853 0.396 1.016-0.294 0.153 0.457 0.254 0.036c0.853 0.118 1.705 0.237 2.568 0.358l1.361 0.191 0.018 0.578c0.020 0.685 0.040 1.334 0.037 1.987-0.001 0.068-0.127 0.226-0.248 0.286-1.834 0.904-2.733 2.33-2.675 4.243 0.057 1.887 1.024 3.247 2.874 4.043 0.141 0.061 0.28 0.199 0.286 0.261 0.038 0.426 0.046 0.858 0.054 1.314 0.003 0.127 0.005 0.256 0.008 0.388l-13.859-1.929c-4.519-0.629-9.029-1.257-13.538-1.885 0.152-0.232 0.306-0.463 0.461-0.693 0.054-0.081 0.101-0.192 0.179-0.223 0.432-0.175 0.801-0.036 1.075 0.442 0.13-0.101 0.319-0.177 0.356-0.297 0.045-0.154-0.018-0.348-0.061-0.517zM29.866 29.416l1.848 1.7-0.15 0.166c-0.922-0.115-1.776-0.254-1.699-1.84l0.002-0.026zM8.491 13.915c-0.246 0.016-0.492-0.020-0.734-0.101l-0.113-0.038-0.036 0.113c-0.172 0.542-0.415 0.862-1.062 0.831l0.542-1.293-0.058-0.056c-0.363-0.346-0.576-0.804-0.6-1.291-0.026-0.525 0.154-1.027 0.507-1.416 0.351-0.385 0.828-0.609 1.345-0.633 0.029-0.001 0.057-0.002 0.085-0.002 1.054 0 1.909 0.821 1.948 1.869 0.037 1.051-0.78 1.955-1.824 2.017zM6.937 7.945c0.012 0.018 0.020 0.029 0.032 0.046-0.018 0.005-0.036 0.009-0.053 0.015 0.008-0.021 0.013-0.037 0.022-0.061zM10.913 29.057c-0.145 0.113-0.308 0.211-0.471 0.302-0.377 0.212-0.621 0.076-0.662-0.36-0.005-0.059-0.009-0.116-0.015-0.172 0.414 0.058 0.829 0.115 1.243 0.173-0.032 0.018-0.060 0.028-0.096 0.056z"></path>
</svg>
