<!-- Generated by IcoMoon.io -->
<svg version="1.1" xmlns="http://www.w3.org/2000/svg" width="36" height="32" viewBox="0 0 36 32">
<title>cucumber</title>
<path fill="#8bc03f" d="M1.512 13.75c0.383-0.248 0.77-0.49 1.159-0.73 0.124-0.077 0.259-0.203 0.385-0.198 0.705 0.027 1.13 0.448 1.21 1.278 0.242-0.061 0.55-0.047 0.676-0.192 0.159-0.181 0.192-0.487 0.237-0.747 0.031-0.18-0.008-0.371-0.015-0.558-0.056 0.004-0.11 0.008-0.165 0.014-0.104 0.269-0.208 0.538-0.299 0.773-0.725-0.122-0.27-1.263-1.12-1.030-0.464 0.127-1.099-0.413-1.397 0.542-0.056-0.381-0.083-0.565-0.11-0.75-0.062 0.003-0.125 0.008-0.187 0.011 0.022 0.23 0.059 0.459 0.061 0.687 0.002 0.123-0.033 0.264-0.101 0.362-0.029 0.042-0.184-0.003-0.282-0.008-0.096-0.004-0.225-0.051-0.281-0.005-0.3 0.241-0.464 0.087-0.636-0.164-0.127-0.187-0.294-0.349-0.442-0.521-0.043 0.036-0.086 0.072-0.127 0.108 0.286 0.509 0.575 1.018 0.865 1.532 0.224-0.161 0.392-0.292 0.57-0.406z"></path>
<path fill="#8bc03f" d="M7.77 23.435c0.565-0.658 1.211-0.58 1.982-0.253 0.044-0.494-0.094-0.703-0.582-0.579-0.273 0.069-0.556 0.101-0.837 0.125-0.319 0.030-0.541-0.040-0.66-0.189 0.087-0.116 0.12-0.253 0.096-0.417-0.017-0.113-0.064-0.21-0.125-0.3 0.036-0.108 0.075-0.216 0.109-0.309-0.15-0.121-0.271-0.298-0.392-0.297-0.175 0.003-0.349 0.131-0.523 0.206 0.013 0.030 0.019 0.056 0.029 0.084-0.166 0.055-0.337 0.105-0.437 0.219-0.336 0.38-0.642 0.795-0.902 1.231-0.159 0.266-0.042 0.549 0.219 0.736 0.249 0.178 0.588 0.148 0.798-0.087 0.153-0.172 0.265-0.38 0.411-0.559 0.015-0.018 0.036-0.035 0.053-0.053 0.010 0.053 0.020 0.107 0.031 0.157 0.086 0.384 0.497 0.561 0.731 0.287z"></path>
<path fill="#8bc03f" d="M19.207 18.201c-0.076-0.384-0.215-0.738-0.661-0.379-0.527 0.426-0.922 0.364-1.345-0.177 0.037 0.409 0.075 0.82 0.112 1.23-0.069 0.124-0.137 0.248-0.206 0.372 0.47-0.070 0.939-0.142 1.27-0.192-0.093-0.296-0.093-0.296 0.831-0.854z"></path>
<path fill="#8bc03f" d="M15.547 20.289c-0.402-0.394-0.803-0.787-1.204-1.181-0.069 0.078-0.14 0.156-0.21 0.233 0.415 0.378 0.83 0.757 1.245 1.134 0.056-0.062 0.113-0.124 0.17-0.186z"></path>
<path fill="#8bc03f" d="M13.928 23.829c-0.14 0.195-0.275 0.39-0.418 0.58-0.134 0.179-0.275 0.353-0.414 0.528 0.963-0.325 1.188-0.671 0.832-1.108z"></path>
<path fill="#8bc03f" d="M30.405 19.689c-0.492-0.064-0.705 0.069-0.6 0.56 0.058 0.274 0.081 0.559 0.096 0.841 0.036 0.652-0.312 0.894-0.93 0.655-0.107-0.042-0.214-0.084-0.307-0.121-0.126 0.146-0.308 0.26-0.31 0.381-0.005 0.175 0.118 0.353 0.186 0.531 0.569-0.23 0.922 0.082 1.244 0.486 0.028 0.036 0.129 0.014 0.313 0.026-0.21-0.209-0.331-0.331-0.54-0.54 0.303-0.047 0.511-0.073 0.716-0.111 0.384-0.071 0.576-0.476 0.311-0.72-0.637-0.587-0.535-1.23-0.18-1.987z"></path>
<path fill="#8bc03f" d="M35.166 16.959c0.14-0.217 0.248-0.386 0.414-0.64-1.415 0.247-1.638 0.476-1.493 1.414 0.471-0.135 0.94-0.269 1.513-0.435-0.253-0.198-0.362-0.285-0.433-0.339z"></path>
<path fill="#8bc03f" d="M22.459 18.459c-0.275 0.060-0.524 0.25-0.782 0.391 0.030 0.051 0.061 0.101 0.092 0.153 0.3 0.032 0.598 0.064 1.132 0.123-0.204-0.319-0.365-0.682-0.442-0.666z"></path>
<path fill="#8bc03f" d="M31.206 15.539c0.189 0.147 0.379 0.29 0.563 0.439 0.174 0.141 0.342 0.288 0.513 0.433-0.289-0.975-0.627-1.212-1.076-0.872z"></path>
<path fill="#8bc03f" d="M33.042 19.265c0.016-0.058 0.031-0.117 0.047-0.175-0.375-0.103-0.751-0.205-1.256-0.344 0.322 0.837 0.765 0.683 1.21 0.519z"></path>
<path fill="#8bc03f" d="M29.923 5.631c-0.265-0.659-0.462-1.344-0.708-2.010-1.182-3.199-4.049-3.947-6.356-3.505-2.571 0.493-4.402 2.039-5.767 4.207-0.314 0.498-0.626 0.996-0.957 1.482-0.107 0.158-0.257 0.292-0.407 0.411-0.428 0.337-0.622 0.776-0.492 1.295 0.087 0.347-0.005 0.592-0.208 0.842-0.571 0.705-1.281 1.248-2.038 1.731-0.084 0.053-0.206 0.069-0.309 0.064-0.831-0.032-1.267 0.375-1.441 1.191-0.115 0.541-0.3 1.097-0.588 1.563-0.742 1.198-1.716 2.2-2.883 3.006-0.095 0.066-0.214 0.13-0.325 0.136-0.959 0.062-1.291 0.366-1.431 1.323-0.141 0.96-0.523 1.779-1.351 2.346-0.385 0.264-0.754 0.548-1.126 0.829-0.186 0.14-0.361 0.181-0.606 0.122-0.726-0.172-1.439 0.273-1.506 0.971-0.088 0.919-0.42 1.756-0.719 2.612-0.298 0.853-0.54 1.724-0.677 2.166-0.238 2.656 1.060 4.682 3.128 5.307 0.58 0.175 1.204 0.275 1.808 0.28 1.248 0.011 2.496-0.104 3.744-0.096 1.178 0.008 2.116-0.341 2.678-1.44 0.045-0.088 0.148-0.165 0.242-0.206 0.675-0.291 1.351-0.581 2.033-0.854 0.69-0.275 1.393-0.428 2.154-0.307s1.349-0.416 1.426-1.189c0.016-0.161 0.097-0.375 0.22-0.458 0.604-0.409 1.221-0.797 1.837-1.186 0.005 0.235 0.113 0.452 0.553 0.608-0.382 0.042-0.567 0.063-0.753 0.083 0.001 0.063 0.003 0.125 0.004 0.188 0.23-0.014 0.46-0.043 0.689-0.036 0.123 0.003 0.262 0.042 0.357 0.114 0.042 0.030-0.009 0.184-0.018 0.281-0.008 0.096-0.058 0.224-0.016 0.281 0.23 0.309 0.070 0.466-0.188 0.628-0.192 0.121-0.359 0.281-0.538 0.424 0.036 0.045 0.070 0.088 0.104 0.132 0.52-0.268 1.038-0.537 1.563-0.808-0.151-0.23-0.275-0.403-0.383-0.585-0.232-0.392-0.461-0.789-0.687-1.185-0.072-0.126-0.194-0.265-0.184-0.392 0.002-0.026 0.014-0.045 0.017-0.071 0.078-0.048 0.153-0.101 0.23-0.149 0.179-0.109 0.415-0.154 0.63-0.174 0.647-0.059 1.104-0.407 1.208-1.035 0.097-0.58 0.394-1.023 0.795-1.415 0.689-0.671 1.495-1.144 2.426-1.4 0.671-0.185 1.082-0.722 0.974-1.358-0.122-0.717 0.071-1.325 0.469-1.907 0.469-0.687 0.91-1.394 1.382-2.080 0.066-0.097 0.224-0.169 0.348-0.181 0.915-0.091 1.409-0.87 1.144-1.742-0.103-0.336-0.16-0.74-0.075-1.071 0.359-1.386 0.835-2.744 0.815-4.205-0.001-0.116 0.123-0.258 0.225-0.347 0.538-0.468 0.624-1.109 0.271-1.719-0.279-0.49-0.529-0.998-0.737-1.516zM25.293 15.891c-0.047 0.070-0.1 0.138-0.148 0.204-0.569-0.248-0.695-0.186-1.11 0.243-0.255 0.264-0.587 0.476-0.921 0.635-0.426 0.202-0.631 0.47-0.511 0.834 0.103 0.313 0.37 0.447 0.72 0.398 0.192-0.009 0.367-0.060 0.529-0.145-0.11 0.512-0.209 1.018-0.34 1.515-0.021 0.085-0.182 0.142-0.288 0.192-0.25 0.12-0.487 0.258-0.724 0.394 0.070-0.108 0.155-0.21 0.241-0.301 0.103-0.108 0.264-0.159 0.399-0.235-0.039-0.064-0.078-0.129-0.116-0.194-0.442 0.25-0.886 0.5-1.376 0.776-0.189 0.219-0.442 0.503-0.686 0.799-0.040 0.048-0.060 0.151-0.035 0.201 0.015 0.030 0.042 0.058 0.074 0.082-0.407 0.399-0.777 0.837-1.063 1.367-0.245 0.452-0.552 0.696-1.009 0.899-1.507 0.665-2.866 1.553-3.92 2.851-0.061 0.075-0.176 0.138-0.273 0.149-0.641 0.070-1.25 0.245-1.847 0.461-0.22-0.296-0.521-0.33-1.049-0.229 0.061 0.186 0.123 0.375 0.186 0.568-0.009 0.003-0.019 0.007-0.028 0.011-0.518 0.221-1.040 0.435-1.562 0.647-0.538 0.218-0.893 0.627-1.193 1.104-0.067 0.106-0.203 0.233-0.314 0.238-1.271 0.061-2.544 0.104-3.818 0.14-0.256 0.007-0.513-0.037-0.769-0.065-1.471-0.162-2.004-1.454-1.825-2.468 0.107-0.609 0.331-1.199 0.522-1.793 0.185-0.57 0.386-1.136 0.598-1.697 0.041-0.109 0.146-0.225 0.251-0.274 1.264-0.588 2.389-1.393 3.291-2.433 0.491-0.564 0.738-1.337 1.105-2.010 0.076-0.14 0.17-0.297 0.298-0.378 0.914-0.578 1.742-1.231 2.476-1.966 0.063 0.145 0.143 0.282 0.236 0.414-0.134 0.22-0.226 0.453-0.241 0.676-0.022 0.331 0.181 0.609 0.494 0.679 0.3 0.067 0.629-0.101 0.719-0.428 0.103-0.37 0.31-0.585 0.672-0.699 0.348-0.109 0.506-0.422 0.424-0.752-0.075-0.303-0.363-0.488-0.705-0.456-0.409 0.038-0.843 0.325-1.159 0.696-0.063-0.13-0.125-0.259-0.188-0.389 0.909-0.965 1.659-2.072 2.199-3.364 0.044-0.106 0.162-0.204 0.27-0.26 0.36-0.188 0.702-0.401 1.032-0.626 0.048 0.168 0.142 0.32 0.336 0.449 0.345 0.229 0.619 0.562 0.943 0.826 0.091 0.073 0.312 0.129 0.363 0.080 0.085-0.083 0.161-0.25 0.149-0.363 0.263-0.053 0.45-0.273 0.498-0.63 0.050-0.382 0.247-0.648 0.57-0.848 0.37-0.23 0.463-0.582 0.259-0.904-0.187-0.296-0.552-0.37-0.907-0.168-0.62 0.353-0.976 0.88-1.11 1.451-0.132-0.136-0.281-0.261-0.437-0.381 0.548-0.442 1.050-0.941 1.506-1.495 0.477-0.581 0.796-1.232 0.844-1.998 0.006-0.102 0.059-0.208 0.117-0.298 0.417-0.648 0.854-1.286 1.258-1.942 0.773-1.256 1.78-2.247 3.152-2.823 0.936-0.392 1.894-0.475 2.869-0.126 0.675 0.243 1.16 0.696 1.436 1.343 0.278 0.652 0.497 1.329 0.746 1.994 0.078 0.208 0.176 0.412 0.267 0.617-0.036-0.035-0.076-0.068-0.11-0.103-0.103-0.106-0.149-0.27-0.22-0.407-0.065 0.036-0.131 0.072-0.198 0.109 0.232 0.452 0.466 0.903 0.725 1.403 0.013 0.011 0.028 0.026 0.041 0.037-0.028 0.391-0.174 0.793-0.249 1.187-0.025 0.132-0.036 0.268-0.040 0.403-0.008 0.237-0.049 0.417-0.291 0.567-0.146 0.090-0.198 0.366-0.243 0.569-0.043 0.192-0.048 0.349-0.311 0.361-0.172 0.007-0.305 0.054-0.417 0.12-0.124-0.053-0.243-0.264-0.585-0.879-0.386 0.062-0.746 0.188-0.403 0.648 0.407 0.542 0.33 0.935-0.227 1.338 0.407-0.022 0.814-0.043 1.221-0.065 0.051 0.034 0.1 0.066 0.161 0.088 0.072 0.043 0.144 0.087 0.217 0.131-0.003-0.027-0.007-0.053-0.010-0.081 0.020 0.003 0.034 0.011 0.053 0.013 0.070 0.006 0.14 0.012 0.198 0.017-0.081 0.611-0.159 1.201-0.239 1.792-0.006 0.044-0.030 0.101-0.064 0.125-0.657 0.46-0.958 1.194-1.387 1.831z"></path>
<path fill="#8bc03f" d="M21.55 15.675c-0.353-0.079-0.648 0.092-0.759 0.463-0.126 0.426-0.264 0.804-0.738 1.007-0.092 0.040-0.164 0.102-0.223 0.177-0.015-0.2-0.097-0.416-0.080-0.601 0.003-0.040-0.27-0.105-0.392-0.151 0.039 0.492 0.070 0.869 0.102 1.271 0.114-0.041 0.186-0.093 0.242-0.149-0.015 0.173 0.013 0.355 0.105 0.509 0.196 0.326 0.577 0.445 0.882 0.231 0.724-0.506 1.148-1.217 1.326-2.006 0.037-0.409-0.152-0.679-0.467-0.75z"></path>
<path fill="#8bc03f" d="M11.629 24.526c-0.291-0.136-0.606-0.038-0.794 0.251-0.078 0.12-0.142 0.207-0.2 0.27 0.035-0.147 0.070-0.301 0.111-0.473-0.371 0.159-0.534 0.336-0.592 0.52-0.061-0.024-0.115-0.044-0.196-0.082-0.3-0.143-0.637-0.059-0.812 0.201-0.18 0.265-0.156 0.626 0.117 0.822 0.26 0.186 0.569 0.304 0.857 0.452 0.806 0.009 1.586-0.453 1.827-1.126 0.128-0.353 0.003-0.682-0.318-0.834z"></path>
<path fill="#8bc03f" d="M16.765 20.386c-0.236-0.012-0.465 0.116-0.569 0.398-0.125 0.344-0.388 0.522-0.698 0.654-0.146 0.063-0.309 0.089-0.447 0.163-0.275 0.147-0.413 0.378-0.334 0.698 0.077 0.314 0.287 0.48 0.607 0.485 0.785 0.012 1.861-0.831 2.054-1.601 0.098-0.388-0.155-0.753-0.613-0.795z"></path>
<path fill="#8bc03f" d="M24.944 8.419c0.022 0.23-0.011 0.464-0.010 0.696 0.001 0.36 0.231 0.621 0.566 0.653 0.319 0.030 0.585-0.167 0.666-0.502 0.026-0.106 0.036-0.217 0.053-0.325 0.012-0.002 0.023-0.004 0.036-0.006-0.051-0.411-0.044-0.841-0.171-1.226-0.089-0.274-0.32-0.543-0.558-0.718-0.281-0.205-0.691-0.071-0.879 0.196-0.193 0.276-0.14 0.562 0.125 0.857 0.090 0.099 0.159 0.245 0.172 0.376z"></path>
<path fill="#8bc03f" d="M24.748 12.184c-0.314 0.074-0.518 0.37-0.448 0.731 0.060 0.319-0.030 0.471-0.353 0.547-0.349 0.081-0.529 0.403-0.457 0.724 0.076 0.344 0.372 0.543 0.739 0.496 0.72-0.094 1.312-0.731 1.372-1.572-0.017-0.087-0.033-0.283-0.091-0.466-0.118-0.37-0.419-0.542-0.763-0.459z"></path>
<path fill="#8bc03f" d="M19.811 7.29c0.067-0.028 0.223-0.066 0.347-0.15 0.362-0.242 0.706-0.507 1.065-0.752 0.265-0.18 0.375-0.479 0.263-0.765-0.112-0.283-0.42-0.47-0.709-0.385-0.641 0.189-1.175 0.555-1.549 1.11-0.267 0.393 0.018 0.903 0.585 0.942z"></path>
<path fill="#8bc03f" d="M20.164 19.664c-0.265-0.11-0.575-0.075-0.687 0.171-0.194 0.42-0.525 0.674-0.856 0.956-0.216 0.185-0.229 0.457-0.089 0.707 0.138 0.247 0.358 0.37 0.645 0.324 0.22-0.036 0.442-0.152 0.644-0.31 0.159 0.103 0.318 0.203 0.476 0.305-0.464-0.431 0.254-0.554 0.239-0.715-0.101-0.015-0.191-0.027-0.287-0.042 0.168-0.241 0.284-0.512 0.309-0.774 0.004-0.277-0.114-0.508-0.393-0.623z"></path>
<path fill="#8bc03f" d="M14.929 24.3c-0.31-0.186-0.623-0.085-0.887 0.243-0.079 0.098-0.25 0.119-0.371 0.188-0.211 0.121-0.492 0.207-0.598 0.391-0.086 0.151-0.024 0.47 0.092 0.629 0.127 0.175 0.39 0.253 0.515 0.328 0.735-0.008 1.134-0.357 1.43-0.856 0.218-0.366 0.139-0.731-0.181-0.923z"></path>
<path fill="#8bc03f" d="M9.023 27.331c-0.171-0.091-0.448-0.077-0.644-0.009-0.327 0.114-0.626 0.308-0.938 0.466-0.27 0.137-0.403 0.359-0.364 0.655s0.221 0.483 0.525 0.53c0.455 0.070 1.46-0.453 1.659-0.86 0.031-0.064 0.049-0.136 0.105-0.299-0.092-0.136-0.173-0.39-0.342-0.482z"></path>
</svg>
