<!-- Generated by IcoMoon.io -->
<svg version="1.1" xmlns="http://www.w3.org/2000/svg" width="60" height="32" viewBox="0 0 60 32">
<title>drops</title>
<path fill="#e45028" d="M11.751 7.345c-0.046-0.028 1.146-1.343 0.816-2.113-0.084-0.889-1.383-0.893-1.93-2.006-0.671-1.423 0.531-2.336 1.511-2.199 1.073 0.109 2.183 1.13 2.466 2.201 0.122 0.646 0.246 1.423-0.483 2.311-0.558 0.899-2.22 1.619-2.38 1.806z"></path>
<path fill="#f9b43b" d="M22.042 3.527c-0.030-0.006 0.372-0.945 0.050-1.299-0.211-0.465-0.916-0.219-1.421-0.717-0.629-0.642-0.146-1.365 0.411-1.478 0.602-0.146 1.395 0.195 1.748 0.721 0.186 0.326 0.398 0.723 0.168 1.342-0.136 0.593-0.904 1.299-0.955 1.43z"></path>
<path fill="#f9b43b" d="M51.835 11.373c0.039 0.011 0.142-1.361 0.736-1.591 0.531-0.431 1.207 0.293 2.102 0 1.129-0.39 1.006-1.552 0.422-2.025-0.616-0.541-1.752-0.612-2.487-0.195-0.417 0.279-0.908 0.627-1.017 1.512-0.204 0.795 0.264 2.11 0.244 2.299z"></path>
<path fill="#e45028" d="M54.826 29.525c0.018 0.036 1.112-0.76 1.685-0.462 0.68 0.123 0.598 1.089 1.421 1.572 1.054 0.596 1.838-0.235 1.797-0.973-0.013-0.805-0.728-1.7-1.536-1.984-0.49-0.135-1.082-0.28-1.815 0.201-0.731 0.353-1.396 1.54-1.551 1.645z"></path>
<path fill="#f9b43b" d="M6.361 29.587c0.003 0.031-1.013-0.076-1.255 0.336-0.382 0.339 0.061 0.941-0.266 1.569-0.428 0.79-1.261 0.543-1.533 0.044-0.317-0.533-0.225-1.39 0.173-1.883 0.257-0.274 0.573-0.594 1.233-0.556 0.606-0.046 1.508 0.48 1.649 0.491z"></path>
<path fill="#e45028" d="M6.724 15.034c-0.008 0.058-1.87-0.587-2.511 0.070-0.87 0.46-0.305 1.77-1.201 2.792-1.158 1.277-2.614 0.451-2.903-0.594-0.358-1.127 0.197-2.677 1.166-3.415 0.605-0.395 1.343-0.849 2.567-0.489 1.161 0.182 2.621 1.554 2.882 1.636z"></path>
</svg>
