<!-- Generated by IcoMoon.io -->
<svg version="1.1" xmlns="http://www.w3.org/2000/svg" width="32" height="32" viewBox="0 0 32 32">
<title>fb</title>
<path fill="#fff" d="M32 30.235c0 0.975-0.791 1.765-1.766 1.765h-8.154v-12.392h4.159l0.623-4.83h-4.782v-3.083c0-1.398 0.388-2.35 2.394-2.35l2.558-0.001v-4.32c-0.443-0.058-1.96-0.191-3.726-0.191-3.687 0-6.212 2.251-6.212 6.383v3.562h-4.17v4.83h4.17v12.392h-15.326c-0.975 0-1.766-0.79-1.766-1.765v-28.469c0-0.975 0.791-1.766 1.766-1.766h28.468c0.975 0 1.766 0.791 1.766 1.766v28.469z"></path>
</svg>
