<!-- Generated by IcoMoon.io -->
<svg version="1.1" xmlns="http://www.w3.org/2000/svg" width="32" height="32" viewBox="0 0 32 32">
<title>inst</title>
<path fill="#fff" d="M28.195 0h-24.393c-2.101 0-3.803 1.698-3.803 3.796v24.409c0 2.095 1.702 3.795 3.803 3.795h24.392c2.101 0 3.804-1.699 3.804-3.795v-24.409c0.001-2.097-1.702-3.796-3.803-3.796zM23 5c0-0.552 0.448-1 1-1h3.001c0.552 0 0.999 0.449 0.999 1v3.001c0 0.552-0.448 1-0.999 1h-3.001c-0.552 0-1-0.448-1-1v-3.001zM16.037 9.898c3.399 0 6.154 2.748 6.154 6.138s-2.755 6.139-6.154 6.139-6.154-2.748-6.154-6.139c0-3.39 2.755-6.138 6.154-6.138zM28.999 27.999c0 0.552-0.448 1-1 1h-23.999c-0.552 0-1-0.449-1-1v-14.999h4c-0.521 0.749-0.697 2.149-0.697 3.036 0 5.355 4.367 9.712 9.733 9.712s9.734-4.357 9.734-9.712c0-0.889-0.127-2.266-0.772-3.036h4v14.999z"></path>
</svg>
