<!-- Generated by IcoMoon.io -->
<svg version="1.1" xmlns="http://www.w3.org/2000/svg" width="32" height="32" viewBox="0 0 32 32">
<title>kkal</title>
<path fill="#fff" d="M20.294 25.793c0.079 0.144 0.115 0.311 0.182 0.463 0.019 0.043 0.086 0.102 0.113 0.094 0.051-0.015 0.12-0.071 0.125-0.116 0.046-0.376-0.096-0.697-0.312-1.035-0.057 0.222-0.235 0.37-0.109 0.595z"></path>
<path fill="#fff" d="M23.872 27.502c0.149 0.067 0.298 0.135 0.447 0.201 0.030 0.048 0.059 0.096 0.089 0.144 0.067-0.177 0.134-0.353 0.181-0.476-0.121-0.026-0.121-0.026-0.133-0.454-0.147-0.048-0.298-0.070-0.259 0.155 0.043 0.266-0.056 0.39-0.324 0.43z"></path>
<path fill="#fff" d="M25.624 25.84c0 0.202 0 0.403 0 0.627 0.038 0.107 0.088 0.25 0.142 0.392 0.009 0.023 0.040 0.050 0.063 0.051 0.027 0.001 0.064-0.015 0.083-0.037 0.1-0.113 0.032-0.521-0.082-0.627-0.057-0.054-0.088-0.145-0.113-0.225-0.017-0.056-0.003-0.122-0.003-0.183-0.030 0.001-0.060 0.001-0.090 0.002z"></path>
<path fill="#fff" d="M25.392 27.524c0.175-0.093 0.35-0.185 0.524-0.277-0.24 0.076-0.142-0.196-0.2-0.222-0.124 0.163-0.235 0.306-0.345 0.449 0.007 0.017 0.014 0.033 0.021 0.050z"></path>
<path fill="#fff" d="M21.41 29.27c0.002 0.024 0.004 0.047 0.006 0.071 0.099 0.066 0.198 0.132 0.376 0.249-0.014-0.149-0.004-0.307-0.035-0.315-0.109-0.029-0.231-0.008-0.347-0.005z"></path>
<path fill="#fff" d="M23.859 28.893c0.212-0.070 0.423-0.139 0.634-0.209-0.011-0.031-0.021-0.063-0.031-0.095-0.214 0.062-0.429 0.124-0.643 0.186 0.014 0.040 0.027 0.079 0.040 0.118z"></path>
<path fill="#fff" d="M22.070 29.328c0.164 0.098 0.346 0.051 0.524 0.039 0.003-0.033 0.007-0.065 0.011-0.098-0.175-0.011-0.35-0.022-0.525-0.034-0.003 0.031-0.006 0.062-0.010 0.093z"></path>
<path fill="#fff" d="M21.009 28.045c-0.075 0.18-0.133 0.319-0.195 0.466 0.268 0.035 0.225-0.215 0.306-0.341 0.008-0.013-0.076-0.086-0.111-0.124z"></path>
<path fill="#fff" d="M26.204 6.81c0.229-0.225 0.303-0.514 0.338-0.852-0.155 0.118-0.35 0.123-0.386 0.338-0.023 0.137-0.087 0.267-0.122 0.404-0.010 0.038 0.004 0.113 0.026 0.122 0.041 0.016 0.116 0.016 0.144-0.011z"></path>
<path fill="#fff" d="M27.811 9.826c0.137-0.081 0.274-0.163 0.371-0.221-0.066-0.081-0.066-0.081 0.15-0.372-0.072-0.11-0.161-0.203-0.254-0.034-0.11 0.199-0.241 0.23-0.441 0.116 0.063 0.122 0.127 0.246 0.191 0.368-0.005 0.048-0.011 0.095-0.016 0.143z"></path>
<path fill="#fff" d="M29.324 9.97c0.127-0.022 0.295-0.329 0.275-0.46-0.010-0.066 0.018-0.143 0.044-0.209 0.018-0.046 0.062-0.083 0.095-0.124-0.021-0.015-0.040-0.030-0.061-0.046-0.106 0.134-0.212 0.268-0.329 0.416-0.031 0.092-0.074 0.214-0.112 0.336-0.006 0.020 0.001 0.055 0.014 0.067 0.018 0.016 0.051 0.024 0.074 0.020z"></path>
<path fill="#fff" d="M29.115 9.968c-0.168 0.043-0.317 0.080-0.466 0.117-0.004 0.015-0.009 0.030-0.012 0.045 0.165 0.030 0.33 0.061 0.495 0.091-0.2-0.075 0.008-0.205-0.017-0.253z"></path>
<path fill="#fff" d="M26.102 14.374c-0.020-0.089-0.063-0.172-0.106-0.253-0.005-0.010-0.081 0.003-0.103 0.026-0.015 0.016-0.003 0.069 0.011 0.101 0.029 0.072 0.065 0.14 0.113 0.24 0.031-0.040 0.091-0.085 0.085-0.113z"></path>
<path fill="#fff" d="M25.455 8.311c0.013-0.004-0.005-0.097-0.009-0.141-0.145 0.080-0.256 0.142-0.374 0.207 0.159 0.164 0.262-0.025 0.383-0.066z"></path>
<path fill="#fff" d="M24.866 12.623c-0.015 0.204-0.030 0.408-0.045 0.613 0.023 0.002 0.047 0.004 0.071 0.006 0.017-0.206 0.033-0.413 0.049-0.619-0.026 0-0.050 0-0.075 0.001z"></path>
<path fill="#fff" d="M29.864 8.513c-0.008-0.163-0.015-0.325-0.023-0.488-0.022 0.002-0.044 0.004-0.066 0.006 0.012 0.163 0.026 0.325 0.039 0.488 0.017-0.002 0.033-0.004 0.050-0.006z"></path>
<path fill="#fff" d="M15.948 9.915c0.857 0 1.661-0.331 2.262-0.933 0.606-0.607 0.952-1.437 0.951-2.277-0.003-1.759-1.411-3.189-3.138-3.189l-0.063 0.001c-0.882-0.022-1.708 0.316-2.326 0.955-0.584 0.604-0.905 1.394-0.904 2.225 0.002 1.705 1.33 3.116 3.025 3.212 0.065 0.003 0.131-0.011 0.194 0.005zM14.606 6.695c-0.001-0.336 0.137-0.671 0.376-0.918 0.24-0.248 0.555-0.384 0.885-0.384l0.081 0.002 0.075-0.002c0.682 0 1.26 0.602 1.261 1.316 0 0.34-0.15 0.694-0.403 0.948-0.174 0.174-0.476 0.382-0.933 0.382-0.029 0-0.059-0.001-0.088-0.003-0.702-0.040-1.253-0.629-1.254-1.341z"></path>
<path fill="#fff" d="M3.658 26.986c-0.069 0.305-0.175 0.599-0.188 0.898-0.009 0.201 0.113 0.408 0.177 0.612 0.126-0.128 0.252-0.255 0.389-0.393 0.308 0.289 0.657 0.615 1.006 0.942-0.175-0.887-0.51-1.639-1.384-2.057z"></path>
<path fill="#fff" d="M13.148 21.326c0 0.464 0 0.927 0 1.441 0.088 0.247 0.202 0.578 0.328 0.904 0.020 0.053 0.093 0.115 0.144 0.118 0.063 0.003 0.148-0.036 0.191-0.085 0.231-0.26 0.075-1.196-0.189-1.443-0.133-0.124-0.203-0.334-0.259-0.518-0.039-0.129-0.008-0.281-0.008-0.422-0.069 0.002-0.138 0.004-0.206 0.005z"></path>
<path fill="#fff" d="M3.612 8.561c-0.077-0.11-0.278-0.16-0.429-0.175-0.061-0.006-0.163 0.147-0.203 0.245-0.129 0.316-0.238 0.642-0.386 1.051 0.289-0.079 0.48-0.124 0.668-0.183 0.369-0.114 0.573-0.622 0.349-0.939z"></path>
<path fill="#fff" d="M1.934 17.681c-0.551 0.176-0.327-0.45-0.461-0.51-0.287 0.373-0.54 0.703-0.793 1.033 0.016 0.038 0.032 0.077 0.049 0.115 0.401-0.213 0.803-0.425 1.206-0.638z"></path>
<path fill="#fff" d="M1.828 31.254c-0.026-0.011-0.168 0.142-0.177 0.228-0.006 0.061 0.111 0.153 0.191 0.199 0.182 0.104 0.376 0.188 0.646 0.319 0-0.14 0.053-0.334-0.010-0.386-0.191-0.154-0.424-0.262-0.651-0.361z"></path>
<path fill="#fff" d="M10.346 16.356c-0.158 0.068-0.281 0.215-0.414 0.324 0.155 0.064 0.31 0.17 0.472 0.18 0.133 0.009 0.301-0.069 0.398-0.165 0.053-0.053 0.022-0.303-0.028-0.323-0.127-0.051-0.305-0.068-0.427-0.016z"></path>
<path fill="#fff" d="M11.505 18.818c0.301 0.324 0.602 0.648 0.903 0.973 0.032-0.032 0.064-0.064 0.096-0.096-0.29-0.333-0.58-0.667-0.87-1-0.043 0.040-0.087 0.082-0.13 0.123z"></path>
<path fill="#fff" d="M5.232 16.005c-0.011-0.010-0.019-0.018-0.029-0.027-0.003 0.010-0.005 0.020-0.008 0.030 0.012-0.001 0.026-0.002 0.038-0.003z"></path>
<path fill="#fff" d="M31.827 28.020c-0.307-1.179-0.623-2.357-0.938-3.534-0.114-0.425-0.228-0.851-0.342-1.277-0.093 0.31-0.227 0.588-0.739 0.522 0.171-0.408 0.335-0.798 0.537-1.279-0.286-1.076-0.57-2.153-0.853-3.229-0.186-0.701-0.37-1.402-0.556-2.104-0.061-0.055-0.118-0.123-0.144-0.181-0.2-0.457-0.308-0.961-0.548-1.393-0.213-0.383-0.134-0.692 0.006-1.009-0.322-1.213-0.643-2.427-0.973-3.638-0.062-0.23-0.156-0.437-0.269-0.625 0.14 0.051 0.28 0.103 0.421 0.154 0.010-0.027 0.019-0.053 0.029-0.080-0.175-0.072-0.35-0.143-0.525-0.215-0.002 0.004-0.003 0.008-0.004 0.012-0.412-0.598-1.073-0.951-1.859-0.951h-0.039c-0.432 0.006-0.863 0.007-1.293 0.008-0.273 0.518-0.33 1.104-0.070 1.827 0.006 0.018 0.005 0.034 0.011 0.051 0.46-0.001 0.92-0.002 1.391-0.009 0.191 0 0.324 0.054 0.396 0.321 0.052 0.191 0.102 0.383 0.154 0.575-0.033 0.019-0.064 0.041-0.097 0.058-0.195 0.101-0.317 0.028-0.33-0.194-0.002-0.039-0.004-0.078-0.006-0.111-0.062-0.019-0.122-0.058-0.16-0.043-0.054 0.022-0.092 0.086-0.137 0.131 0.148 0.143 0.102 0.294 0.023 0.449-0.006 0.013 0.014 0.041 0.035 0.099 0.035-0.094 0.056-0.147 0.091-0.241 0.056 0.087 0.093 0.147 0.132 0.205 0.076 0.108 0.226 0.111 0.265-0.004 0.043-0.131 0.115-0.21 0.206-0.259 0.353 1.304 0.701 2.61 1.048 3.916l0.183 0.691c0.269 1.012 0.536 2.025 0.803 3.037 0.288 1.090 0.575 2.179 0.864 3.268 0.178 0.667 0.356 1.335 0.535 2.002 0.315 1.173 0.63 2.346 0.935 3.52 0.035 0.135 0.017 0.26-0.006 0.288-0.617 0.243-1.112 0.392-1.558 0.47-1.081 0.189-2.22 0.345-3.383 0.463-0.768 0.079-1.567 0.115-2.34 0.151l-0.622 0.029c-0.402 0.020-0.804 0.030-1.206 0.041-0.254 0.006-0.508 0.013-0.764 0.022-0.113 0.004-0.211 0.027-0.295 0.055h-7.844c-0.080-0.028-0.175-0.049-0.283-0.054-0.24-0.012-0.479-0.021-0.719-0.031-0.244-0.010-0.489-0.020-0.733-0.032l-0.482-0.022c-0.565-0.027-1.132-0.053-1.696-0.095l-0.205-0.015c-0.76-0.056-1.545-0.115-2.297-0.217-0.901-0.123-1.864-0.284-3.12-0.52-0.381-0.071-0.519-0.169-0.581-0.26v-0.262c0.008-0.023 0.016-0.048 0.023-0.074l0.204-0.792c0.082-0.32 0.165-0.638 0.248-0.957-0.087-0.017-0.174-0.035-0.261-0.052 0.122-0.365 0.246-0.585 0.454-0.684 0.199-0.746 0.399-1.492 0.599-2.238 0.193-0.718 0.386-1.435 0.578-2.153 0.182-0.684 0.363-1.369 0.543-2.054 0.177-0.67 0.354-1.34 0.532-2.010 0.132-0.494 0.265-0.988 0.398-1.482-0.212 0.020-0.481 0.044-0.899 0.082 0.195-0.287 0.291-0.428 0.394-0.58 0.175 0.161 0.337 0.307 0.513 0.468 0.034-0.124 0.066-0.248 0.1-0.373 0.332-1.23 0.675-2.503 0.997-3.762 0.197-0.772 0.197-0.772 0.844-0.772l0.122 0.002c0.881 0.020 1.762 0.014 2.644 0.010 0.356-0.002 0.713-0.004 1.068-0.004 0.081 0 0.163-0.006 0.249-0.014l1.098-0.079c-0.491-0.558-0.498-1.395-1.014-1.944-0.095-0.1-0.035-0.344-0.047-0.521 0.048-0.012 0.097-0.025 0.145-0.037-0.303-0.738-0.41-1.506-0.309-2.3-0.061-0.013-0.123-0.026-0.185-0.039 0-0.245 0-0.489 0-0.733 0.103 0.047 0.207 0.094 0.31 0.141 0.443-1.746 1.512-2.89 3.271-3.484 0.164-0.055 0.349-0.099 0.546-0.144 0.064-0.015 0.13-0.030 0.195-0.046h1.278c0.056 0.019 0.116 0.034 0.178 0.043 1.313 0.183 2.373 0.816 3.15 1.879 0.988 1.352 1.227 2.84 0.71 4.421-0.105 0.322-0.266 0.65-0.437 0.998-0.088 0.178-0.175 0.356-0.256 0.536l-0.603 1.327 1.556 0.002c-0.21-0.187-0.489-0.312-0.873-0.348 0.035-0.319-0.011-0.681 0.131-0.94 0.097-0.177 0.457-0.208 0.76-0.329 0.111 0.127 0.239 0.273 0.367 0.418 0.717 0.807 1.402 0.738 1.855-0.178 0.038 0.040 0.074 0.090 0.105 0.15 0.068-0.050 0.165-0.085 0.186-0.145 0.027-0.077-0.002-0.177-0.021-0.263-0.013-0.060-0.049-0.114-0.075-0.17 0.010-0.023 0.020-0.046 0.030-0.070-0.030 0-0.059 0.001-0.089 0.001l-1.002-0.002c0.054-0.131 0.103-0.265 0.148-0.403 0.705-2.156 0.367-4.269-0.978-6.11-0.951-1.302-2.26-2.158-3.798-2.512-0.004 0.043-0.010 0.085-0.013 0.128-0.756 0.051-1.531 0.251-2.231-0.166 0.005-0.047 0.010-0.095 0.015-0.142h-0.326l-0.114 0.029c-0.091 0.023-0.183 0.045-0.276 0.066-0.174 0.040-0.354 0.087-0.539 0.14 0.021 0.262 0.021 0.645 0.057 1.019-0.417-0.276-0.731-0.484-1.001-0.663-1.962 0.894-3.258 2.48-3.765 4.633-0.322 1.366-0.215 2.722 0.305 3.982-0.788 0.004-1.577 0.007-2.365-0.011l-0.164-0.002c-1.761 0-2.31 0.801-2.663 2.184-0.073 0.287-0.151 0.575-0.225 0.863 0.023 0.34 0.071 0.682 0.118 1.12-0.138 0-0.274 0-0.411 0-0.157 0.589-0.316 1.177-0.471 1.754-0.17 0.63-0.34 1.26-0.507 1.89-0.179 0.671-0.356 1.343-0.534 2.014-0.18 0.683-0.361 1.366-0.543 2.049-0.191 0.717-0.384 1.433-0.576 2.15-0.054 0.202-0.108 0.404-0.162 0.606 0.097 0.183 0.104 0.499 0.012 0.975-0.055-0.134-0.11-0.268-0.166-0.402-0.124 0.465-0.249 0.93-0.373 1.394-0.104 0.39-0.204 0.781-0.304 1.172 0.13 0.121 0.253 0.233 0.375 0.345-0.037 0.041-0.074 0.082-0.111 0.123-0.128-0.016-0.254-0.035-0.366-0.072l-0.096 0.374-0.139 0.15v1.223l0.049 0.146c0.294 0.868 0.986 1.411 2.061 1.612 1.288 0.242 2.279 0.406 3.213 0.535 0.809 0.11 1.623 0.17 2.412 0.229l0.204 0.015c0.582 0.044 1.165 0.071 1.749 0.098l0.476 0.023c0.25 0.012 0.5 0.022 0.751 0.032 0.172 0.007 0.344 0.014 0.517 0.021l0.135 0.065h8.693l0.13-0.062c0.186-0.006 0.371-0.011 0.556-0.015 0.416-0.011 0.832-0.022 1.249-0.043l0.615-0.029c0.799-0.037 1.625-0.074 2.446-0.159 0.119-0.012 0.237-0.026 0.355-0.039 0.216-0.407 0.635-0.169 1.042-0.124 0.129-0.017 0.259-0.032 0.387-0.049 0.077-0.036 0.15-0.093 0.218-0.175-0.191-0.232-0.41-0.499-0.629-0.765 0.028-0.061 0.055-0.12 0.082-0.18 0.198 0.102 0.421 0.173 0.589 0.312 0.24 0.198 0.536 0.41 0.633 0.678 0.281-0.044 0.56-0.090 0.835-0.138 0.575-0.1 1.186-0.282 1.924-0.574 1.112-0.439 1.367-1.606 1.134-2.505zM23.201 9.389c0.001 0.065 0.002 0.133 0.004 0.19-0.033 0.007-0.061 0.005-0.086-0.002 0.027-0.062 0.054-0.126 0.082-0.188zM22.148 5.301c-0.24-0.287-0.479-0.573-0.763-0.912 0.725-0.092 0.893 0.083 0.763 0.912zM2.503 30.34c0.564 0 1.047 0 1.633 0-0.747 0.428-1.299 0.435-1.633 0zM15.727 30.631c-0.004-0.054-0.008-0.108-0.012-0.163 0.269-0.006 0.549-0.055 0.798 0.012 0.070 0.019 0.047 0.381 0.079 0.724-0.408-0.271-0.637-0.422-0.866-0.573zM18.439 30.692c-0.409 0.027-0.828 0.136-1.207-0.090 0.007-0.071 0.014-0.141 0.022-0.212 0.403 0.026 0.806 0.052 1.209 0.077-0.008 0.075-0.015 0.149-0.023 0.224z"></path>
</svg>
