<!-- Generated by IcoMoon.io -->
<svg version="1.1" xmlns="http://www.w3.org/2000/svg" width="42" height="32" viewBox="0 0 42 32">
<title>logo</title>
<path fill="#e55028" d="M30.183 14.156c-0.41 0.551-1.087 0.889-1.891 0.927-1.158 0.054-1.721-0.952-1.82-3.092-0.084-1.818 0.301-5.301 0.239-6.652l-0.045-0.965c-0.386 0.018-2.18 7.548-3.15 8.882-0.286 0.432-0.768 0.826-1.362 0.853-1.368 0.063-2.309-1.473-2.419-3.853-0.072-1.561 0.213-4.443 0.061-7.723-0.016-0.355-0.087-0.496-0.152-0.493-1.287 0.060-4.158 8.719-4.296 13.046-0.019 0.63 0.094 1.688 0.249 2.246-1.552-0.105-3.213-0.125-3.286-1.685-0.066-1.431 0.679-4.48 1.569-7.182 0.622-1.882 3.030-8.345 5.571-8.462 2.815-0.131 2.486 4.962 2.71 9.771 0.036 0.771 0.062 1.335 0.161 1.749 2.643-7.666 3.134-9.93 4.71-10.003 0.901-0.042 1.601 1.135 1.674 2.711 0.043 0.917 0.031 2.771 0.084 3.897 0.235 5.067 0.758 4.882 1.392 6.028z"></path>
<path fill="#e55028" d="M38.795 6.756c-0.021 1.018-2.661 5.15-5.168 5.099-1.378-0.028-2.066-0.921-2.042-2.095 0.021-1.018 0.512-2.043 0.886-2.711-2.406-0.409-2.696-1.529-2.683-2.156 0.025-1.253 1.23-1.888 1.998-1.872 0.611 0.013 0.789 0.518 0.782 0.847-0.008 0.375-0.173 0.827-0.436 1.37 1.186 0.292 3.13 0.315 3.111 1.241-0.017 0.846-1.442 2.244-1.465 3.388-0.009 0.422 0.174 0.661 0.504 0.668 1.316 0.027 3.008-2.949 3.775-4.407 0.546 0.106 0.745 0.314 0.739 0.627z"></path>
<path fill="#f9b43b" d="M40.489 17.844c-0.015 0.742-1.938 3.753-3.766 3.716-1.005-0.021-1.506-0.671-1.488-1.527 0.015-0.743 0.373-1.489 0.646-1.975-1.753-0.298-1.965-1.114-1.955-1.57 0.019-0.913 0.896-1.375 1.456-1.364 0.445 0.009 0.574 0.377 0.569 0.617-0.006 0.274-0.126 0.602-0.317 0.998 0.864 0.213 2.28 0.23 2.266 0.904-0.013 0.617-1.050 1.635-1.067 2.469-0.007 0.308 0.127 0.482 0.367 0.487 0.959 0.020 2.192-2.149 2.75-3.211 0.398 0.077 0.544 0.229 0.539 0.457z"></path>
<path fill="#f9b43b" d="M40.783 25.366c-0.012 0.584-1.527 2.956-2.967 2.927-0.791-0.016-1.187-0.529-1.172-1.203 0.012-0.584 0.294-1.173 0.509-1.556-1.381-0.235-1.548-0.878-1.54-1.237 0.015-0.72 0.707-1.083 1.147-1.074 0.35 0.007 0.453 0.297 0.449 0.487-0.005 0.215-0.099 0.475-0.251 0.786 0.68 0.168 1.797 0.181 1.786 0.713-0.010 0.485-0.828 1.287-0.841 1.945-0.005 0.242 0.1 0.379 0.29 0.383 0.755 0.015 1.727-1.693 2.166-2.53 0.314 0.061 0.429 0.18 0.425 0.36z"></path>
<path fill="#8bc334" d="M38.285 11.060c0.018-0.854 0.947-1.482 2.052-1.459 1.125 0.023 1.989 0.563 1.975 1.25-0.023 1.104-1.15 2.207-2.275 2.184s-1.765-1.328-1.752-1.974z"></path>
<path fill="#f9b43b" d="M21.918 29.487c0.011-0.534 0.592-0.927 1.283-0.912 0.703 0.014 1.244 0.352 1.235 0.781-0.014 0.691-0.719 1.38-1.422 1.365s-1.103-0.83-1.095-1.234z"></path>
<path fill="#e55028" d="M13.011 20.152c0.011-0.534 0.592-0.927 1.283-0.912 0.703 0.014 1.244 0.352 1.235 0.782-0.014 0.69-0.719 1.379-1.422 1.365s-1.104-0.831-1.095-1.234z"></path>
<path fill="#f9b43b" d="M26.063 24.109c-0.027 1.288-1.103 2.878-3.705 2.825-1.482-0.030-2.537-0.735-2.522-1.483 0.005-0.219 0.151-0.422 0.385-0.558 0.395 0.239 0.879 0.494 1.807 0.513 1.456 0.030 2.134-0.974 2.154-1.979 0.020-0.979-0.571-1.688-1.447-1.731-0.747-0.015-1.43-0.016-1.939 0.27-0.422-0.15-0.623-0.451-0.617-0.734 0.011-0.541 0.453-0.751 1.020-0.74 0.245 0.005 0.502 0.049 0.757 0.118 0.909-0.316 2.257-1.294 2.285-2.686 0.025-1.185-0.978-1.928-2.64-1.962-0.348-0.007-0.71 0.025-1.085 0.068 0.087 0.144 0.136 0.287 0.133 0.428-1.675 3.111-1.974 9.549-0.818 11.596-0.171 0.19-0.998 0.276-1.371 0.269-0.927-0.019-1.523-0.573-1.62-1.477-0.368-2.817 0.573-7.206 1.378-9.38 0.11-0.346 0.232-0.627 0.366-0.882-0.611 0.258-1.146 0.596-1.541 0.96-0.423-0.124-0.713-0.401-0.708-0.672 0.002-0.090 0.029-0.167 0.082-0.257 0.294-0.496 2.511-1.765 5.436-1.706 3.8 0.078 4.848 1.801 4.825 2.934-0.034 1.636-1.797 2.786-3.119 3.158 1.68 0.422 2.528 1.806 2.501 3.107z"></path>
<path fill="#f9b43b" d="M36.285 18.052c-0.011 0.532-2.015 3.981-3.934 3.941-0.784-0.016-1.28-0.447-1.444-1.347-0.56 0.675-1.316 1.304-2.156 1.287-0.98-0.020-1.458-0.646-1.434-1.823 0.009-0.475 0.127-1.426 0.147-2.393 0.013-0.629-0.009-0.953-0.097-1.417 0.407-0.062 0.801-0.124 1.193-0.116 0.686 0.014 0.974 0.356 0.958 1.14-0.009 0.462-0.158 1.58-0.174 2.351-0.011 0.532 0.082 0.744 0.236 0.747 0.21 0.004 0.764-0.348 1.3-1.164 0.054-0.602 0.137-1.23 0.149-1.763 0.010-0.504-0.024-0.884-0.104-1.108 0.24-0.038 0.52-0.074 0.772-0.068 0.896 0.018 1.293 0.488 1.27 1.595-0.008 0.364-0.195 1.328-0.209 2-0.013 0.644 0.064 0.954 0.316 0.959 0.476 0.009 1.842-1.672 2.506-3.325 0.338-0.092 0.713 0.070 0.704 0.505z"></path>
<path fill="#f9b43b" d="M33.242 26.221c-0.971 0.033-1.939 0.393-2.784 0.924l-0.006 0.306c-0.034 1.677-0.717 4.585-2.521 4.548-0.749-0.015-1.162-0.467-1.146-1.247 0.025-1.213 0.991-2.502 2.234-3.478 0.001-0.074 0.003-0.137-0.007-0.191-0.366 0.373-0.771 0.555-1.203 0.546-0.717-0.015-1.119-0.509-1.102-1.341 0.026-1.266 1.391-2.473 2.699-2.446 0.432 0.009 0.861 0.187 0.853 0.535-0.005 0.264-0.283 0.426-0.855 0.562-0.071-0.18-0.164-0.256-0.259-0.258-0.454-0.009-1.023 0.981-1.036 1.656-0.006 0.296 0.076 0.413 0.203 0.416 0.274 0.006 0.73-0.629 0.583-1.201 0.514-0.328 0.651-0.325 0.851-0.321 0.444 0.009 0.638 0.309 0.695 1.133 0.821-0.416 1.67-0.662 2.388-0.648 0.264 0.005 0.493 0.168 0.413 0.504zM28.944 28.444c-0.692 0.808-1.133 1.728-1.15 2.583-0.005 0.222 0.045 0.369 0.172 0.372 0.485 0.010 0.847-1.671 0.978-2.955z"></path>
<path fill="#f9b43b" d="M37.772 26.060c-0.010 0.506-1.774 3.161-3.736 3.121-1.488-0.030-2.542-1.086-2.513-2.531 0.028-1.393 0.938-2.481 2.076-2.458 0.813 0.017 1.287 0.543 1.269 1.408-0.019 0.928-0.74 1.6-1.371 2.019 0.205 0.342 0.496 0.538 0.854 0.546 0.812 0.017 1.898-0.974 2.72-2.445 0.425-0.128 0.708-0.007 0.701 0.341zM33.179 26.198c-0.004 0.201 0.002 0.391 0.030 0.56 0.334-0.342 0.596-0.737 0.605-1.222 0.005-0.232-0.076-0.392-0.171-0.394-0.2-0.004-0.453 0.518-0.464 1.056z"></path>
<path fill="#e55028" d="M0.002 12.636h-0.001l-0.001 0.002z"></path>
<path fill="#e55028" d="M7.144 22.166c0.145-0.145 0.29-0.29 0.475-0.475 0.050 0.36-0.010 0.642-0.174 0.906-0.024 0.051-0.048 0.101-0.071 0.151-0.046 0.146-0.143 0.248-0.272 0.325-0.029 0.020-0.059 0.040-0.088 0.061-0.051 0.032-0.104 0.064-0.155 0.096-0.034 0.009-0.068 0.016-0.102 0.025 0.003 0.051 0.006 0.103 0.010 0.155 0.528 0.103 1.051 0.129 1.562-0.089 0.488-0.208 0.787-0.63 1.132-0.998 0.046-0.109 0.127-0.182 0.226-0.242 0.068-0.118 0.157-0.214 0.278-0.278 0.076-0.117 0.184-0.194 0.311-0.245 0.206-0.248 0.507-0.267 0.789-0.334-0.036-0.303-0.387-0.277-0.511-0.489-0.844-0.555-1.719-1.031-2.764-1.063-0.055 0.016-0.109 0.033-0.164 0.049-0.112 0.039-0.222 0.079-0.334 0.114-0.992 0.315-1.877 0.878-2.849 1.238-0.731 0.272-1.483 0.371-2.259 0.315-0.231-0.017-0.448-0.19-0.691-0.064 0.409 0.744 1.073 1.197 1.816 1.538 0.858 0.394 1.733 0.251 2.603 0.023 0.215-0.101 0.43-0.203 0.644-0.304 0.196-0.138 0.392-0.276 0.588-0.413z"></path>
<path fill="#f9b43b" d="M13.962 25.069c-0.505-0.17-1.023-0.304-1.543-0.104-0.73 0.281-1.462 0.555-2.208 0.792-0.599 0.19-1.204 0.342-1.844 0.279-0.138-0.014-0.306-0.093-0.435 0.102 1.211 0.495 2.37 1.153 3.75 0.794 0.389-0.157 0.778-0.313 1.167-0.47 0.028-0.018 0.057-0.035 0.086-0.053 0.544-0.272 1.055-0.607 1.623-0.83-0.037-0.359-0.384-0.357-0.596-0.51z"></path>
<path fill="#f9b43b" d="M9.48 15.105c-0.354-0.197-0.81-0.188-1.188-0.165-0.518 0.029-1.017 0.031-1.521-0.071-0.040-0.019-0.079-0.038-0.118-0.057 0.141 0.391 0.428 0.673 0.703 0.971 0.177 0.191 0.354 0.233 0.599 0.25 0.642 0.047 1.263-0.165 1.902-0.127 0.097 0.025 0.195 0.049 0.292 0.075-0.137-0.359-0.344-0.696-0.668-0.876z"></path>
<path fill="#e55028" d="M16.715 30.207c-0.504-0.213-0.989-0.223-1.427 0.13-0.247 0.2-0.514 0.338-0.86 0.444 0.504 0.245 0.996 0.345 1.498 0.27 0.346-0.050 0.699-0.162 0.879-0.531 0.070-0.146 0.103-0.232-0.090-0.313z"></path>
</svg>
