<!-- Generated by IcoMoon.io -->
<svg version="1.1" xmlns="http://www.w3.org/2000/svg" width="26" height="32" viewBox="0 0 26 32">
<title>map-marker</title>
<path fill="#e45028" d="M12.817 32c-0.034 0-0.068 0-0.103 0-0.040-0.042-0.075-0.091-0.12-0.125-1.564-1.15-3.045-2.397-4.445-3.745-1.481-1.425-2.84-2.955-4.062-4.604-1.071-1.445-1.991-2.985-2.7-4.644-0.636-1.488-1.087-3.023-1.266-4.636-0.263-2.383 0.078-4.666 1.089-6.845 0.778-1.676 1.869-3.115 3.267-4.32 0.914-0.789 1.922-1.436 3.023-1.931 0.941-0.423 1.914-0.758 2.938-0.924 0.486-0.080 0.972-0.15 1.459-0.225 0.579 0 1.159 0 1.738 0 0.065 0.016 0.129 0.040 0.195 0.046 1.123 0.11 2.215 0.339 3.279 0.73 2.227 0.818 4.084 2.145 5.573 3.985 1.217 1.504 2.045 3.205 2.487 5.090 0.576 2.456 0.378 4.869-0.425 7.245-0.967 2.863-2.58 5.355-4.481 7.669-0.841 1.024-1.752 1.993-2.666 2.952-1.205 1.263-2.506 2.425-3.868 3.518-0.309 0.248-0.608 0.51-0.912 0.766z"></path>
<path fill="#fff" d="M16.574 10.351c-0.224 0.303-0.596 0.488-1.038 0.509-0.636 0.029-0.945-0.523-0.999-1.698-0.046-0.998 0.166-2.911 0.131-3.652l-0.024-0.53c-0.212 0.010-1.196 4.145-1.73 4.878-0.157 0.237-0.422 0.453-0.748 0.468-0.751 0.035-1.268-0.809-1.329-2.116-0.040-0.857 0.117-2.44 0.033-4.241-0.009-0.195-0.048-0.273-0.083-0.271-0.706 0.033-2.283 4.788-2.359 7.164-0.011 0.346 0.052 0.927 0.137 1.233-0.853-0.058-1.764-0.069-1.804-0.925-0.037-0.786 0.372-2.46 0.861-3.944 0.341-1.034 1.664-4.583 3.060-4.647 1.545-0.071 1.365 2.725 1.488 5.366 0.019 0.424 0.034 0.733 0.089 0.961 1.451-4.21 1.721-5.453 2.586-5.493 0.496-0.023 0.879 0.623 0.919 1.489 0.023 0.503 0.017 1.522 0.047 2.14 0.129 2.782 0.415 2.68 0.763 3.309z"></path>
<path fill="#fff" d="M21.304 6.287c-0.012 0.559-1.461 2.828-2.838 2.8-0.757-0.016-1.135-0.506-1.121-1.15 0.012-0.559 0.281-1.122 0.487-1.489-1.322-0.224-1.481-0.839-1.473-1.184 0.014-0.688 0.676-1.037 1.097-1.028 0.335 0.007 0.433 0.284 0.43 0.465-0.004 0.206-0.095 0.454-0.24 0.752 0.651 0.16 1.719 0.173 1.708 0.681-0.009 0.464-0.792 1.232-0.804 1.86-0.005 0.232 0.095 0.363 0.277 0.367 0.723 0.015 1.651-1.619 2.073-2.42 0.299 0.058 0.409 0.173 0.406 0.345z"></path>
<path fill="#fff" d="M22.233 12.376c-0.008 0.407-1.064 2.061-2.067 2.040-0.552-0.012-0.827-0.369-0.818-0.839 0.009-0.407 0.205-0.818 0.355-1.085-0.962-0.164-1.079-0.612-1.074-0.863 0.011-0.502 0.492-0.755 0.799-0.749 0.244 0.005 0.315 0.207 0.312 0.339-0.003 0.15-0.069 0.331-0.174 0.548 0.474 0.117 1.252 0.126 1.244 0.496-0.007 0.339-0.576 0.898-0.586 1.356-0.004 0.169 0.070 0.265 0.201 0.268 0.527 0.011 1.203-1.18 1.511-1.763 0.22 0.042 0.299 0.126 0.296 0.251z"></path>
<path fill="#fff" d="M22.395 16.506c-0.007 0.32-0.839 1.623-1.629 1.607-0.434-0.009-0.652-0.29-0.644-0.661 0.007-0.32 0.161-0.644 0.279-0.854-0.758-0.129-0.85-0.482-0.846-0.68 0.009-0.395 0.388-0.595 0.63-0.59 0.193 0.004 0.248 0.163 0.246 0.267-0.002 0.118-0.055 0.261-0.137 0.431 0.374 0.092 0.987 0.1 0.981 0.391-0.006 0.266-0.455 0.707-0.462 1.068-0.002 0.133 0.055 0.208 0.159 0.21 0.415 0.009 0.948-0.93 1.19-1.389 0.172 0.034 0.234 0.099 0.232 0.198z"></path>
<path fill="#fff" d="M21.023 8.65c0.010-0.469 0.52-0.814 1.127-0.801 0.618 0.012 1.092 0.309 1.084 0.686-0.012 0.607-0.632 1.212-1.249 1.2s-0.969-0.729-0.962-1.085z"></path>
<path fill="#fff" d="M12.036 18.769c0.006-0.293 0.325-0.509 0.705-0.501 0.386 0.008 0.682 0.194 0.678 0.429-0.008 0.379-0.395 0.758-0.781 0.75s-0.606-0.457-0.601-0.678z"></path>
<path fill="#fff" d="M7.145 13.643c0.006-0.294 0.325-0.509 0.705-0.501 0.386 0.008 0.683 0.193 0.678 0.429-0.008 0.379-0.395 0.757-0.781 0.749s-0.606-0.456-0.601-0.677z"></path>
<path fill="#fff" d="M14.311 15.816c-0.014 0.707-0.605 1.58-2.034 1.551-0.814-0.017-1.393-0.404-1.385-0.814 0.002-0.12 0.083-0.232 0.211-0.307 0.217 0.131 0.483 0.272 0.992 0.282 0.799 0.016 1.172-0.535 1.183-1.087 0.011-0.537-0.313-0.927-0.795-0.951-0.41-0.008-0.786-0.009-1.064 0.148-0.232-0.082-0.342-0.247-0.339-0.403 0.006-0.297 0.249-0.412 0.56-0.406 0.135 0.003 0.276 0.027 0.416 0.065 0.499-0.174 1.239-0.711 1.255-1.475 0.013-0.65-0.538-1.058-1.45-1.077-0.191-0.004-0.39 0.013-0.595 0.037 0.048 0.079 0.075 0.157 0.073 0.235-0.92 1.708-1.084 5.243-0.449 6.368-0.094 0.104-0.548 0.151-0.753 0.147-0.509-0.011-0.836-0.314-0.889-0.811-0.202-1.547 0.315-3.957 0.757-5.151 0.060-0.19 0.127-0.344 0.201-0.485-0.335 0.141-0.63 0.327-0.846 0.528-0.232-0.068-0.392-0.22-0.389-0.369 0.001-0.049 0.016-0.091 0.045-0.141 0.162-0.273 1.379-0.97 2.985-0.936 2.087 0.043 2.662 0.989 2.65 1.611-0.019 0.898-0.987 1.53-1.713 1.734 0.922 0.232 1.389 0.991 1.373 1.706z"></path>
<path fill="#fff" d="M19.925 12.49c-0.006 0.292-1.106 2.186-2.16 2.164-0.43-0.009-0.703-0.245-0.793-0.739-0.308 0.371-0.723 0.716-1.184 0.706-0.539-0.011-0.8-0.355-0.788-1.001 0.006-0.261 0.070-0.783 0.081-1.314 0.007-0.345-0.005-0.523-0.054-0.778 0.224-0.034 0.44-0.068 0.656-0.063 0.376 0.008 0.534 0.196 0.525 0.626-0.006 0.254-0.087 0.868-0.096 1.291-0.006 0.292 0.045 0.409 0.13 0.41 0.115 0.002 0.42-0.191 0.713-0.639 0.030-0.33 0.075-0.676 0.081-0.968 0.006-0.277-0.013-0.485-0.058-0.609 0.131-0.021 0.285-0.040 0.425-0.038 0.492 0.010 0.71 0.268 0.697 0.876-0.004 0.2-0.106 0.729-0.115 1.098-0.007 0.354 0.035 0.524 0.174 0.527 0.261 0.005 1.011-0.918 1.376-1.826 0.187-0.050 0.393 0.039 0.388 0.277z"></path>
<path fill="#fff" d="M18.254 16.976c-0.533 0.018-1.065 0.216-1.528 0.508l-0.003 0.168c-0.019 0.921-0.394 2.518-1.384 2.498-0.411-0.008-0.638-0.256-0.629-0.685 0.013-0.666 0.544-1.374 1.227-1.909 0.001-0.040 0.002-0.076-0.004-0.105-0.201 0.205-0.423 0.305-0.66 0.3-0.394-0.008-0.614-0.279-0.605-0.736 0.014-0.696 0.764-1.358 1.482-1.344 0.238 0.005 0.473 0.103 0.469 0.294-0.003 0.145-0.155 0.234-0.47 0.309-0.038-0.099-0.090-0.141-0.142-0.141-0.249-0.006-0.562 0.539-0.569 0.91-0.003 0.162 0.041 0.227 0.111 0.228 0.15 0.003 0.401-0.345 0.32-0.659 0.283-0.18 0.358-0.178 0.467-0.176 0.243 0.005 0.35 0.17 0.381 0.622 0.451-0.228 0.917-0.364 1.311-0.356 0.145 0.002 0.27 0.091 0.226 0.276zM15.894 18.197c-0.38 0.443-0.622 0.949-0.631 1.419-0.003 0.122 0.024 0.203 0.094 0.205 0.267 0.005 0.465-0.918 0.537-1.623z"></path>
<path fill="#fff" d="M20.741 16.887c-0.006 0.278-0.975 1.736-2.051 1.714-0.817-0.017-1.396-0.596-1.38-1.39 0.016-0.765 0.515-1.363 1.14-1.35 0.446 0.009 0.707 0.298 0.697 0.773-0.011 0.51-0.406 0.879-0.753 1.109 0.112 0.188 0.272 0.295 0.47 0.299 0.446 0.009 1.042-0.535 1.493-1.343 0.233-0.070 0.388-0.003 0.384 0.187zM18.219 16.963c-0.002 0.11 0.002 0.215 0.017 0.308 0.183-0.187 0.327-0.405 0.333-0.671 0.003-0.127-0.042-0.215-0.094-0.216-0.11-0.003-0.249 0.285-0.255 0.58z"></path>
<path fill="#fff" d="M0.001 9.516v0l-0.001 0.001z"></path>
<path fill="#fff" d="M3.923 14.749c0.080-0.080 0.16-0.159 0.261-0.261 0.027 0.197-0.006 0.353-0.096 0.497-0.013 0.028-0.026 0.055-0.039 0.083-0.026 0.080-0.079 0.136-0.15 0.178-0.016 0.011-0.032 0.022-0.048 0.033-0.028 0.018-0.057 0.035-0.085 0.053-0.019 0.005-0.037 0.009-0.056 0.013 0.002 0.028 0.003 0.057 0.006 0.085 0.29 0.057 0.578 0.071 0.858-0.049 0.268-0.114 0.432-0.346 0.622-0.548 0.025-0.060 0.070-0.1 0.124-0.133 0.037-0.064 0.086-0.118 0.152-0.152 0.042-0.064 0.101-0.107 0.171-0.135 0.113-0.136 0.278-0.147 0.434-0.183-0.020-0.166-0.212-0.152-0.28-0.268-0.463-0.305-0.944-0.566-1.518-0.584-0.030 0.009-0.060 0.018-0.090 0.027-0.062 0.021-0.122 0.043-0.183 0.062-0.545 0.174-1.030 0.482-1.564 0.68-0.401 0.149-0.815 0.204-1.241 0.173-0.127-0.009-0.246-0.104-0.379-0.035 0.225 0.409 0.589 0.657 0.997 0.845 0.471 0.217 0.952 0.138 1.43 0.012 0.118-0.055 0.236-0.111 0.354-0.167 0.106-0.075 0.214-0.151 0.321-0.226z"></path>
<path fill="#fff" d="M7.667 16.343c-0.278-0.093-0.562-0.167-0.847-0.058-0.401 0.154-0.803 0.305-1.213 0.435-0.329 0.104-0.661 0.187-1.013 0.153-0.075-0.008-0.168-0.052-0.239 0.056 0.665 0.272 1.302 0.633 2.059 0.436 0.213-0.086 0.427-0.172 0.641-0.258 0.016-0.010 0.032-0.019 0.047-0.029 0.299-0.15 0.579-0.334 0.891-0.456-0.020-0.197-0.211-0.196-0.327-0.28z"></path>
<path fill="#fff" d="M5.206 10.872c-0.195-0.108-0.445-0.103-0.652-0.091-0.285 0.017-0.559 0.018-0.835-0.039-0.022-0.011-0.043-0.021-0.065-0.031 0.078 0.215 0.235 0.37 0.386 0.533 0.097 0.105 0.194 0.127 0.328 0.137 0.353 0.025 0.693-0.090 1.044-0.069 0.053 0.013 0.107 0.027 0.16 0.041-0.075-0.198-0.188-0.383-0.366-0.482z"></path>
<path fill="#fff" d="M9.179 19.165c-0.277-0.117-0.543-0.122-0.783 0.072-0.135 0.11-0.282 0.186-0.472 0.244 0.277 0.135 0.547 0.19 0.822 0.149 0.19-0.028 0.384-0.089 0.483-0.292 0.038-0.080 0.057-0.128-0.049-0.172z"></path>
</svg>
