<!-- Generated by IcoMoon.io -->
<svg version="1.1" xmlns="http://www.w3.org/2000/svg" width="35" height="32" viewBox="0 0 35 32">
<title>meat</title>
<path fill="#e35028" d="M13.796 1.735l-0.002 0h0.002z"></path>
<path fill="#e35028" d="M6.354 3.539c0.018 0.041 0.082 0.098 0.108 0.090 0.048-0.015 0.115-0.067 0.12-0.111 0.044-0.359-0.091-0.666-0.297-0.989-0.054 0.212-0.224 0.353-0.105 0.568 0.076 0.137 0.111 0.297 0.174 0.442z"></path>
<path fill="#e35028" d="M10.11 5.060c0.064-0.168 0.128-0.336 0.173-0.455-0.115-0.025-0.115-0.025-0.127-0.434-0.141-0.046-0.284-0.067-0.248 0.148 0.042 0.253-0.052 0.372-0.309 0.411 0.142 0.064 0.284 0.128 0.426 0.192 0.029 0.046 0.057 0.091 0.085 0.137z"></path>
<path fill="#e35028" d="M11.468 4.165c0.026 0.001 0.061-0.015 0.080-0.035 0.096-0.108 0.031-0.497-0.079-0.599-0.055-0.052-0.084-0.138-0.108-0.215-0.017-0.054-0.003-0.117-0.003-0.175-0.029 0.001-0.057 0.001-0.086 0.002 0 0.193 0 0.385 0 0.598 0.037 0.103 0.084 0.24 0.136 0.375 0.008 0.022 0.038 0.048 0.060 0.049z"></path>
<path fill="#e35028" d="M11.552 4.486c-0.229 0.073-0.136-0.187-0.191-0.212-0.119 0.155-0.224 0.292-0.33 0.429 0.007 0.016 0.013 0.032 0.020 0.048 0.167-0.089 0.334-0.177 0.501-0.265z"></path>
<path fill="#e35028" d="M7.611 6.724c-0.014-0.142-0.004-0.293-0.033-0.3-0.104-0.028-0.22-0.008-0.331-0.005 0.001 0.023 0.003 0.045 0.005 0.067 0.094 0.063 0.189 0.126 0.359 0.238z"></path>
<path fill="#e35028" d="M10.193 5.859c-0.010-0.030-0.020-0.060-0.030-0.091-0.204 0.059-0.409 0.118-0.614 0.178 0.013 0.037 0.025 0.075 0.038 0.113 0.201-0.066 0.404-0.133 0.606-0.199z"></path>
<path fill="#e35028" d="M11.239 7.443c0.072-0.378 0-0.517-0.21-0.481 0.038 0.082 0.077 0.163 0.114 0.246 0.034 0.077 0.065 0.157 0.097 0.235z"></path>
<path fill="#e35028" d="M8.378 6.512c0.003-0.031 0.007-0.062 0.010-0.093-0.167-0.010-0.335-0.021-0.502-0.032-0.003 0.029-0.006 0.059-0.009 0.088 0.157 0.094 0.331 0.048 0.501 0.037z"></path>
<path fill="#e35028" d="M6.969 5.368c0.008-0.013-0.072-0.082-0.105-0.119-0.072 0.172-0.127 0.304-0.187 0.445 0.256 0.033 0.214-0.206 0.292-0.327z"></path>
<path fill="#e35028" d="M27.169 15.791c0.369-0.145 0.898 0.322 1.182 1.044s0.216 1.424-0.153 1.569c-0.369 0.145-0.898-0.322-1.182-1.044s-0.216-1.424 0.153-1.569z"></path>
<path fill="#e35028" d="M30.814 19.005c0.355-0.139 0.7-0.275 1.061-0.417-0.215-0.992-0.522-1.948-0.922-2.864-0.049 0.114-0.097 0.226-0.145 0.338-0.199-0.247-0.48-0.466-0.578-0.749-0.143-0.42-0.157-0.885-0.228-1.344 0.015 0.001 0.027 0.005 0.042 0.006-0.18-0.297-0.371-0.589-0.574-0.875-0.087 0.109-0.172 0.216-0.267 0.333 0.087 0.084 0.224 0.216 0.537 0.518-0.334 0.060-0.639 0.115-0.933 0.167 0.994 1.496 1.67 3.125 2.007 4.887z"></path>
<path fill="#e35028" d="M26.401 10.258c-1.52-0.752-2.861-0.105-3.351 1.495-1.081 3.536 2.037 10.942 5.346 12.696 1.517 0.804 2.844 0.338 3.622-1.585 0.043-0.449 0.248-1.281 0.182-2.091-0.051-0.631-0.137-1.249-0.254-1.855-0.364 0.318-0.718 0.48-1.060 0.49 0.101 0.632 0.158 1.281 0.171 1.946 0.018 0.064 0.036 0.127 0.058 0.183-0.019-0.001-0.035-0.002-0.054-0.004-0.001 0.689-0.332 1.705-0.821 1.954-0.476 0.242-1.574-0.114-2.037-0.573-2.792-2.769-4.311-6.143-4.159-10.122 0.025-0.651 0.185-1.115 0.46-1.396-0.148-0.142-0.295-0.283-0.445-0.425 0.384-0.234 0.687-0.194 0.925 0.147 0.349-0.088 0.785-0.020 1.296 0.21 0.184 0.147 0.544 0.372 0.828 0.669 0.321 0.337 0.622 0.682 0.906 1.035 0.236-0.174 0.603-0.275 1.159-0.344-0.247-0.326-0.51-0.646-0.788-0.958-0.538-0.605-1.254-1.114-1.983-1.474z"></path>
<path fill="#e35028" d="M18.968 15.261c0.010 0.045 0.021 0.089 0.032 0.134 0.219-0.028 0.439-0.056 0.658-0.084-0.050-0.081-0.1-0.162-0.151-0.243-0.18 0.064-0.359 0.129-0.539 0.193z"></path>
<path fill="#e35028" d="M14.555 19.685c-0.023-0.062-0.124-0.094-0.167-0.124-0.303 0.212-0.436 0.472-0.373 0.709 0.018 0.067 0.124 0.169 0.171 0.159 0.21-0.044 0.45-0.529 0.37-0.744z"></path>
<path fill="#e35028" d="M7.035 21.928c0.063 0.027 0.164-0.005 0.233-0.039 0.028-0.014 0.031-0.108 0.022-0.161-0.029-0.172-0.069-0.342-0.114-0.56-0.104 0.112-0.175 0.183-0.241 0.259-0.13 0.148-0.082 0.423 0.1 0.501z"></path>
<path fill="#e35028" d="M3.819 22.422c0.082 0.060 0.165 0.118 0.308 0.221-0.049-0.466-0.198-0.645-0.537-0.71-0.047-0.009-0.135 0.030-0.152 0.070-0.018 0.041 0.009 0.128 0.046 0.162 0.103 0.094 0.222 0.172 0.335 0.256z"></path>
<path fill="#e35028" d="M10.216 24.983c-0.004-0.094 0.029-0.225-0.020-0.271-0.068-0.066-0.197-0.067-0.299-0.096-0.021 0.037-0.043 0.075-0.064 0.112 0.113 0.114 0.225 0.227 0.337 0.341 0.015-0.028 0.030-0.056 0.046-0.085z"></path>
<path fill="#e35028" d="M8.738 20.123c-0.009 0.037 0.071 0.138 0.099 0.133 0.069-0.011 0.151-0.052 0.19-0.108 0.051-0.072 0.064-0.169 0.092-0.252-0.084 0.014-0.18 0.009-0.253 0.048-0.060 0.032-0.111 0.111-0.128 0.179z"></path>
<path fill="#e35028" d="M16.151 17.904l0.147 0.19 3.533-4.149-0.637-0.597-0.101 0.034c-1.949 0.657-2.796 2.317-3.364 3.838l-0.035 0.094 0.26 0.336c0 0-0 0-0 0 0.067 0.16 0.124 0.24 0.197 0.254z"></path>
<path fill="#e35028" d="M20.913 25.706c-0.19 0.025-0.38 0.049-0.571 0.074-0.059-0.030-0.118-0.059-0.177-0.089 0.042 0.218 0.083 0.435 0.113 0.588 0.137-0.049 0.137-0.049 0.413 0.371 0.176-0.042 0.34-0.114 0.164-0.314-0.208-0.238-0.185-0.423 0.058-0.629z"></path>
<path fill="#e35028" d="M20.158 20.75c0.089 0.008 0.261-0.068 0.384-0.136 0.049-0.027 0.090-0.142 0.096-0.202 0.019-0.197 0.020-0.388 0.030-0.633-0.208 0.175-0.347 0.288-0.48 0.404-0.261 0.227-0.291 0.542-0.030 0.567z"></path>
<path fill="#e35028" d="M14.693 22.059c-0.072 0.007-0.225 0.087-0.268 0.142-0.045 0.056-0.035 0.151 0.011 0.179 0.128 0.075 0.287 0.124 0.435 0.182 0.107 0.041 0.217 0.081 0.405 0.151 0.099-0.543-0.070-0.704-0.583-0.653z"></path>
<path fill="#e35028" d="M14.918 24.113c0.174-0.34 0.174-0.34-0.304-0.42-0.105 0.453-0.105 0.453 0.304 0.42z"></path>
<path fill="#e35028" d="M19.652 24.985c0.176-0.194 0.351-0.388 0.527-0.582-0.037-0.031-0.075-0.062-0.112-0.094-0.168 0.2-0.337 0.4-0.505 0.6 0.030 0.025 0.060 0.051 0.090 0.075z"></path>
<path fill="#e35028" d="M23.344 22.811c-0.289 0.13-0.091 0.353-0.095 0.53-0 0.018 0.128 0.039 0.187 0.056-0.035-0.227-0.063-0.402-0.093-0.586z"></path>
<path fill="#e35028" d="M30.104 27.502c-0.164-0.054-0.302-0.1-0.44-0.146 0.127 0.301 0.219 0.325 0.44 0.146z"></path>
<path fill="#e35028" d="M20.905 28.983c0.215 0.067 0.431 0.134 0.646 0.201 0.008-0.029 0.016-0.059 0.024-0.088-0.218-0.060-0.436-0.12-0.653-0.18-0.005 0.022-0.011 0.045-0.016 0.067z"></path>
<path fill="#e35028" d="M18.413 28.905c0.004-0.094 0.008-0.18 0.015-0.357-0.181 0.135-0.294 0.221-0.383 0.288 0.127 0.024 0.242 0.045 0.368 0.069z"></path>
<path fill="#e35028" d="M28.169 8.755c-0.008 0.082-0.057 0.183-0.109 0.238-0.037 0.039-0.207 0.002-0.276-0.051-0.255-0.191-0.473-0.436-0.74-0.601-0.118-0.072-0.188-0.158-0.234-0.252-1.025-0.359-2.487-0.524-3.59-0.097l-0.146 0.057c-4.788 1.885-8.060 4.879-10.003 9.154-0.344 0.757-0.716 1.509-1.141 2.221 0.086 0.001 0.172 0.005 0.259 0.006-0.102 0.067-0.21 0.089-0.319 0.095-0.971 1.601-2.225 2.982-4.081 3.714-0.42 0.165-0.868 0.295-1.332 0.387-0.516 0.101-1.481 0.224-2.271-0.045-0.032-0.062-0.115-0.106-0.3-0.2 0.002 0.041 0.005 0.075 0.008 0.108-1.391-0.462-2.434-0.215-3.211 0.762-0.924 1.161-0.909 2.43 0.044 3.668 0.341 0.442 0.579 0.977 0.639 1.431 0.202 1.545 1.087 2.453 2.559 2.627 1.432 0.171 2.451-0.56 2.959-2.124 0.134-0.413 0.351-0.987 0.677-1.184 3.158-1.912 6.282-2.273 9.314-1.087-0.028 0.131 0.030 0.293-0.038 0.426 0.19-0.090 0.289-0.198 0.306-0.323 0.229 0.094 0.458 0.183 0.687 0.266 0.009-0.229 0.033-0.459 0.006-0.683-0.043-0.351 0.177-0.51 0.393-0.712l-0.023-0.008c-0.887-0.289-1.805-0.587-2.734-0.767l-0.19-0.037c-2.65-0.511-2.65-0.511-3.483-2.859-0.12-0.34 0.085-0.92 0.298-1.312 0.641-1.183 1.333-2.366 2.003-3.509 0.248-0.424 0.496-0.847 0.742-1.272 0.394-0.679 0.818-1.308 1.273-1.899-0.114-0.056-0.232-0.113-0.365-0.179 0.075-0.060 0.219-0.208 0.241-0.191 0.085 0.062 0.204 0.093 0.315 0.133 0.543-0.678 1.128-1.306 1.771-1.879 0.036-0.295 0.073-0.591 0.107-0.886 0.060 0.010 0.12 0.020 0.18 0.030 0.002 0.205 0.029 0.414 0.002 0.614 0.698-0.593 1.454-1.137 2.285-1.633-0.275 2.11-0.231 4.080 0.126 5.923 0.11-0.121 0.228-0.245 0.366-0.284 0.135-0.039 0.32 0.092 0.494 0.151-0.279 0.545-0.184 0.974 0.241 1.271 0.076 0.052 0.209 0.029 0.317 0.030 0.122 0.003 0.244 0.002 0.366 0.004-0.583-1.78-0.775-3.605-0.564-5.462 0.073-0.646 0.232-1.22 0.459-1.71-0.008-0.034-0.017-0.070-0.028-0.103 0.043-0.033 0.093-0.072 0.141-0.11 0.096-0.179 0.201-0.344 0.317-0.495-0.015-0.139-0.125-0.269-0.333-0.378-0.185-0.096-0.373-0.188-0.569-0.254-0.349-0.117-0.352-0.302-0.128-0.589 0.347 0.509 0.713 0.813 1.325 0.631 0.098-0.029 0.184-0.006 0.249 0.047 0.19-0.145 0.391-0.27 0.611-0.357 1.077-0.424 2.408-0.071 3.652 0.969 3.93 3.287 5.651 7.495 5.116 12.508-0.157 1.463-0.769 2.445-1.773 2.84-0.895 0.352-2.088 0.223-3.45-0.373-0.143-0.139-0.326-0.303-0.535-0.488-0.59-0.526-1.399-1.247-2.032-2.084-1.056-1.397-1.843-2.832-2.361-4.3-0.031 0.030-0.060 0.062-0.081 0.096-0.024 0.039-0.045 0.081-0.067 0.121-0.056 0.006-0.112 0.013-0.159 0.037-0.018 0.010-0.033 0.029-0.049 0.046 0.038-0.084 0.083-0.185 0.149-0.33-0.563 0.473-0.74-0.113-1.080-0.22-0.617-0.193 0.118-0.718-0.283-1.081-0.076 0.055-0.157 0.115-0.242 0.177 0.195 0.908 0.461 1.788 0.814 2.634 0.063 0.018 0.12 0.041 0.159 0.076 0.040 0.037 0.034 0.173 0 0.274 0.774 1.728 1.889 3.325 3.338 4.804-0.027-0.021-0.053-0.044-0.082-0.065-0.045-0.031-0.15-0.048-0.171-0.024-0.041 0.047-0.076 0.145-0.053 0.194 0.186 0.404 0.525 0.638 0.949 0.842-0.040-0.129-0.038-0.258-0.060-0.373 0.497 0.468 1.024 0.925 1.594 1.368-2.781 0.749-5.326 0.758-7.926 0.046 0.008-0.084 0.017-0.167 0.025-0.248-0.018-0.013-0.034-0.024-0.052-0.037-0.047 0.080-0.093 0.158-0.14 0.238-0.162-0.047-0.324-0.086-0.487-0.138l-0.283-0.091c0.075 0.531 0.060 1.020-0.145 1.485 2.591 0.853 5.228 1.032 7.969 0.539-0.001-0.002-0.002-0.004-0.003-0.006 0.044-0.018 0.088-0.035 0.132-0.052 0.004 0.010 0.008 0.021 0.011 0.032 0.912-0.172 1.836-0.415 2.773-0.736-0.026-0.003-0.050-0.006-0.079-0.010 0.229-0.255 0.404-0.459 0.592-0.653 0.058-0.060 0.178-0.141 0.221-0.119 0.105 0.055 0.236 0.152 0.26 0.255 0.013 0.055 0.010 0.11 0 0.164 0.001-0 0.001-0 0.002-0.001 0.247-0.097 0.494-0.2 0.74-0.306 0.821-0.355 1.518-0.994 2.193-1.614 0.303-0.277 0.615-0.564 0.932-0.817l0.042-0.034 0.017-0.052c1.657-5.174-1.491-13.17-5.957-15.952zM11.278 21.23c0.237 0.153 0.237 0.153 0.122 0.527-0.263-0.29-0.263-0.29-0.122-0.527zM10.901 22.371c0.099 0.15 0.157 0.235 0.213 0.323 0.077 0.12 0.162 0.237 0.226 0.365 0.023 0.046 0.017 0.139-0.015 0.172s-0.128 0.037-0.171 0.011c-0.299-0.185-0.375-0.409-0.252-0.87zM10.557 23.579c-0.001-0-0.002-0.001-0.003-0.001 0-0 0.001-0.001 0.001-0.001 0.001 0.001 0.001 0.001 0.002 0.003zM6.215 24.029c0.18 0.142 0.361 0.284 0.542 0.426-0.014 0.020-0.027 0.039-0.040 0.058-0.185-0.137-0.371-0.273-0.556-0.409 0.019-0.025 0.037-0.050 0.054-0.076zM1.44 26.952c-0.029 0.016-0.122-0.039-0.153-0.085-0.112-0.163-0.192-0.352-0.317-0.503-0.198-0.236-0.022-0.45-0.004-0.723 0.329 0.349 0.567 0.695 0.597 1.147 0.004 0.055-0.066 0.135-0.122 0.165zM2.188 29.443c0.039-0.187 0.077-0.363 0.125-0.592 0.049 0.037 0.165 0.104 0.157 0.121-0.067 0.167 0.040 0.451-0.283 0.47zM3.080 30.283c-0.008-0.027-0.015-0.054-0.022-0.082 0.137-0.029 0.275-0.081 0.409-0.071 0.037 0.003 0.061 0.189 0.111 0.363-0.235-0.099-0.366-0.154-0.498-0.209zM5.853 29.21c-0.024-0.043-0.048-0.086-0.073-0.13 0.238-0.12 0.476-0.241 0.714-0.363 0.020 0.035 0.039 0.070 0.059 0.105-0.233 0.129-0.466 0.259-0.7 0.387zM7.903 26.815c-0.185 0.148-0.37 0.296-0.554 0.444-0.012-0.018-0.024-0.036-0.036-0.054 0.025-0.050 0.051-0.101 0.076-0.152-0.19 0.095-0.378 0.196-0.56 0.305-0.197 0.117-0.385 0.278-0.558 0.461-0.003 0.013-0.005 0.027-0.007 0.040-0.005-0.006-0.010-0.011-0.015-0.017-0.338 0.366-0.605 0.823-0.705 1.247-0.27 1.147-0.761 1.611-1.529 1.373-0.33-0.103-0.599-0.672-0.837-1.174-0.091-0.193-0.181-0.383-0.274-0.55-0.273-0.492-0.486-0.991-0.634-1.485-0.053-0.176-0.122-0.366-0.192-0.559-0.192-0.525-0.409-1.12-0.249-1.428 0.134-0.26 0.308-0.433 0.517-0.515 0.479-0.189 1.086 0.107 1.511 0.387 0.21 0.139 0.477 0.238 0.763 0.301-0.209 0.108-0.48 0.126-0.639 0.35 0.137-0.051 0.279-0.091 0.409-0.157 0.107-0.053 0.19-0.131 0.282 0.024s0.193 0.105 0.29-0.012c0.095-0.113 0.137-0.22 0.112-0.325 0.027-0.052 0.054-0.103 0.081-0.155 0.028 0.010 0.056 0.022 0.083 0.033-0.018 0.013-0.037 0.025-0.052 0.042 0.057 0.008 0.11 0.015 0.166 0.023-0.023 0.084-0.046 0.169-0.069 0.252 0.243-0 0.483-0.027 0.696-0.089 0.602-0.176 1.333-0.489 2.006-0.79 0.536-0.24 1.089-0.486 1.648-0.675 0.271-0.092 0.709-0.029 1.018 0.125-0.035-0.088-0.070-0.176-0.105-0.265 0.039 0.015 0.080 0.031 0.119 0.046 0.022-0.023 0.044-0.046 0.066-0.068 0.060 0.066 0.127 0.125 0.191 0.186 0.058-0.080 0.134-0.153 0.171-0.243 0.038-0.093 0.038-0.2 0.062-0.345 0.106 0.152 0.186 0.267 0.259 0.371-0.279 0.348 0.21 0.256 0.226 0.458-0.032 0.019-0.081 0.050-0.139 0.085 0.060 0.129 0.216 0.275-0.021 0.379-0.088-0.11-0.167-0.209-0.247-0.308-0.037 0.018-0.073 0.035-0.11 0.052 0.038 0.159 0.034 0.354 0.128 0.466 0.079 0.095 0.273 0.094 0.436 0.141 0.014 0.233-0.199 0.115-0.337 0.179-0.136-0.039-0.279-0.074-0.45-0.119 0.011 0.128 0.027 0.239 0.028 0.346-0.029 0.018-0.062 0.037-0.090 0.053-0.080 0.048-0.152 0.090-0.227 0.134-0.001-0.002-0.004-0.003-0.005-0.005-0.097-0.109-0.182-0.227-0.273-0.34-0.020 0.016-0.039 0.032-0.059 0.048 0.055 0.168 0.102 0.3 0.153 0.403-0.104 0.057-0.205 0.112-0.308 0.157-0.048 0.021-0.098 0.041-0.146 0.062 0.176-0.032 0.351-0.063 0.525-0.103 0.015 0.019 0.032 0.034 0.049 0.049-0.207 0.032-0.413 0.066-0.624 0.075-0.302 0.129-0.61 0.254-0.91 0.373-0.385 0.153-0.777 0.31-1.162 0.483 0.018-0.006 0.034-0.010 0.056-0.021zM11.203 25.903c0.013-0.005 0.023-0.006 0.036-0.011-0.002 0.005-0.006 0.009-0.009 0.014-0.009-0.001-0.018-0.002-0.028-0.003zM9.838 27.372c-0.068-0.305 0.069-0.478 0.435-0.506-0.18 0.163-0.082 0.511-0.435 0.506zM11.865 25.504c0.209 0.009 0.424-0.107 0.636-0.168 0.015 0.041 0.029 0.082 0.044 0.124-0.273 0.075-0.549 0.15-0.834 0.228-0.018-0.038-0.027-0.081-0.009-0.127 0.011-0.032 0.017-0.059 0.019-0.084 0.048 0.015 0.096 0.025 0.145 0.027zM30.476 12.394c-0.035-0.304-0.068-0.59-0.112-0.963 0.094 0.030 0.303 0.074 0.301 0.102-0.017 0.29 0.293 0.667-0.189 0.861zM22.227 18.749c0.003 0.008 0.008 0.017 0.013 0.026-0.007-0.004-0.013-0.008-0.020-0.011 0.003-0.005 0.005-0.010 0.007-0.015zM32.394 25.386c-0.167-0.172-0.337-0.19-0.501-0.070-0.029 0.021-0.037 0.074-0.051 0.113-0.044 0.123-0.088 0.247-0.13 0.371-0.019 0.058-0.034 0.118-0.055 0.194-0.157-0.064-0.313-0.127-0.469-0.189 0.003-0.016 0.006-0.032 0.009-0.047 0.065 0.011 0.131 0.018 0.193 0.037 0.084 0.026 0.148 0.032 0.172-0.076 0.004-0.020 0.042-0.033 0.064-0.049s0.066-0.034 0.065-0.048c-0.003-0.035-0.020-0.072-0.042-0.099-0.041-0.051-0.090-0.096-0.137-0.144 0.013-0.012 0.027-0.024 0.040-0.035 0.039 0.037 0.078 0.072 0.159 0.148-0.104-0.268 0.135-0.26 0.217-0.372 0.15-0.204 0.251 0.134 0.436 0.031-0.022-0.069-0.046-0.148-0.071-0.227 0.011-0.011 0.023-0.022 0.035-0.032 0.035 0.040 0.078 0.076 0.103 0.122 0.036 0.067 0.084 0.141 0.081 0.21-0.002 0.055-0.074 0.107-0.118 0.164zM33.474 18.642c0.17 0.044 0.192 0.099 0.087 0.272-0.027-0.086-0.055-0.171-0.087-0.272zM33.607 23.715c0.082-0.082 0.158-0.159 0.258-0.26 0.013 0.035 0.049 0.107 0.040 0.113-0.089 0.063-0.128 0.243-0.298 0.147zM33.97 24.706c-0.087-0.127-0.136-0.199-0.185-0.27 0.005-0.016 0.010-0.033 0.016-0.049 0.079 0.030 0.167 0.049 0.232 0.098 0.018 0.014-0.032 0.117-0.062 0.222zM34.043 22.202c-0.020-0.001-0.049-0.061-0.050-0.094-0.004-0.12 0.018-0.242 0.004-0.36-0.023-0.185 0.137-0.236 0.234-0.37 0.053 0.286 0.061 0.54-0.072 0.78-0.016 0.029-0.077 0.047-0.116 0.043z"></path>
<path fill="#e35028" d="M8.531 12.815c-0.003 0.031-0.007 0.062-0.010 0.093-0.143 0.010-0.288 0.038-0.425-0.008l0.133 0.224c0.025 0.080 0.101 0.304 0.178 0.409l-0.001 0.001 0.283 0.395 0.124 0.152c0.405 0.454 0.942 0.733 1.69 0.878 0.42 0.082 0.747 0.186 1.050 0.335l0.111 0.038c0.13 0.029 0.226 0.071 0.303 0.133l0.348 0.155 0.062-0.183c0.033-0.096 0.088-0.189 0.145-0.288 0.088-0.148 0.178-0.302 0.212-0.494l0.020-0.111-0.092-0.066c-0.388-0.278-0.826-0.409-1.25-0.536-0.118-0.036-0.237-0.071-0.352-0.109-0.021-0.007-0.042-0.014-0.063-0.020 0.093-0.090 0.178-0.185 0.255-0.288-0.026-0.056-0.052-0.112-0.078-0.168 0.071-0.013 0.125-0.003 0.165 0.028 0.028-0.046 0.061-0.086 0.085-0.137 0.090-0.199 0.152-0.4 0.192-0.624 0.391 0.37 0.868 0.685 1.488 0.685 0.149 0 0.304-0.019 0.46-0.056l0.055-0.013 0.038-0.043c0.413-0.467 0.798-0.964 1.144-1.475l0.033-0.048-0.002-0.058c-0.015-0.442-0.172-0.826-0.36-1.214 0.501 0.076 0.981 0.013 1.47-0.195 0.726-0.31 1.199-0.838 1.407-1.57 0.037-0.13 0.066-0.257 0.088-0.382l0.084-0.095-0.072 0.024c0.11-0.717-0.032-1.343-0.43-1.903-0.091-0.129-0.197-0.246-0.323-0.358l-0.939-0.435-0.28 0.577c-0.124-0.145-0.24-0.282-0.286-0.439l-0.046-0.139-0.146 0.018c-0.285 0.035-0.53-0.006-0.723-0.143 0.239 0.012 0.468-0.005 0.688-0.048l0.158-0.032-0.015-0.161c-0.009-0.097-0.016-0.194-0.023-0.292-0.004-0.052-0.008-0.104-0.011-0.156 0.243 0.048 0.474 0.125 0.7 0.235l0.097 0.047 0.087-0.063c0.375-0.273 0.612-0.645 0.787-1.008 0.019 0.035 0.037 0.071 0.056 0.109 0.032 0.063 0.063 0.126 0.1 0.184 0.496 0.784 1.183 1.216 1.937 1.216 0.505 0 1.020-0.2 1.489-0.577 0.207-0.167 0.331-0.387 0.439-0.61 0.145 0.388 0.217 0.712 0.23 1.020 0.029 0.701 0.24 1.352 0.645 1.99l0.071 0.112 0.226-0.061c0.272-0.073 0.553-0.149 0.817-0.292l0.189-0.103-0.135-0.167c-0.375-0.464-0.555-0.89-0.567-1.341l0.017-0.015-0.021-0.151c0.020-0.297-0.058-0.567-0.134-0.829l-0.014-0.034c-0.038-0.074-0.052-0.119-0.048-0.162l0.004-0.038-0.012-0.037c-0.025-0.075-0.044-0.151-0.063-0.228-0.039-0.156-0.080-0.318-0.164-0.476l-0.041-0.079c-0.231-0.44-0.469-0.895-0.823-1.282l-0.064-0.045c-0.029-0.012-0.055-0.041-0.114-0.13-0.265-0.287-0.637-0.634-1.154-0.767l-0.245-0.071c-0.061-0.008-0.122-0.016-0.183-0.025-0.219-0.031-0.433-0.066-0.689-0.042l-0.148 0.017-0.136 0.023-0.317 0.202 0.221 0.154c0.039 0.027 0.082 0.049 0.125 0.071 0.056 0.028 0.092 0.046 0.11 0.072l0.027 0.030c0.105 0.095 0.219 0.17 0.329 0.241 0.098 0.064 0.191 0.125 0.274 0.198 0.363 0.317 0.595 0.7 0.71 1.171 0.096 0.395-0.008 0.687-0.311 0.868-0.409 0.245-0.773 0.227-1.086-0.062-0.411-0.379-0.682-0.877-0.829-1.524-0.042-0.184-0.083-0.397-0.050-0.601l0.008-0.052-0.071-0.165c-0.162-0.387-0.331-0.788-0.756-1.037-0.078-0.045-0.15-0.097-0.222-0.149-0.177-0.127-0.379-0.27-0.658-0.326-0.226-0.044-0.444-0.051-0.655-0.057-0.121-0.004-0.241-0.008-0.343-0.015-0.198-0.042-0.388 0.080-0.495 0.169-0.080 0.067-0.118 0.142-0.113 0.224 0.007 0.123 0.103 0.187 0.16 0.225 0.004 0.003 0.009 0.006 0.013 0.009l0.006 0.185 0.221-0.068c0.001 0 0.011 0.004 0.038 0.023 0.361 0.261 0.669 0.593 0.933 1.001 0.19 0.367 0.275 0.714 0.258 1.058-0.031 0.607-0.256 0.983-0.709 1.183-0.166 0.074-0.331 0.115-0.505 0.127l-0.379 0.026 0.121 0.128-1.371 0.179c0.017-0.427 0.099-0.648 0.282-0.785l0.133-0.1-0.089-0.139c-0.125-0.196-0.214-0.422-0.273-0.688-0.024-0.114-0.040-0.229-0.056-0.344l-0.018-0.128-0.064-0.135-0.257-0.041-0.247 0.481c-0.179 0.581-0.183 1.183-0.005 1.863 0.009 0.022 0.020 0.043 0.032 0.064 0.005 0.011 0.013 0.025 0.017 0.018l-0.018 0.063 0.032 0.063c0.039 0.079 0.079 0.157 0.115 0.238 0.336 0.749 0.873 1.635 2.094 1.834l0.715-0.020 0.051-0.009c0.057-0.019 0.111-0.030 0.162-0.033l0.047 0.065 0.031-0.064c0.122 0.011 0.231 0.070 0.335 0.181 0.017 0.017 0.034 0.034 0.041 0.039 0.323 0.35 0.394 0.764 0.225 1.369-0.013 0.1-0.047 0.185-0.118 0.275-0.042 0.068-0.089 0.128-0.138 0.184l-0.444 0.504 0.729-0.247c-0.398 0.282-0.761 0.353-1.094 0.205l-0.079-0.035-0.076 0.040c-0.094 0.048-0.184 0.041-0.305-0.023l-0.035-0.014c-0.196-0.055-0.343-0.204-0.512-0.375-0.229-0.232-0.326-0.536-0.428-0.858-0.060-0.188-0.122-0.381-0.212-0.566l-0.041-0.083-0.294-0.047-0.054 0.131c-0.186 0.451-0.26 0.925-0.331 1.383l-0.027 0.185-0 0.082 0.118 0.874 0.019 0.063c0.073 0.145 0.148 0.288 0.223 0.432 0.163 0.312 0.331 0.634 0.476 0.957 0.1 0.223 0.078 0.42-0.066 0.585-0.123 0.141-0.291 0.134-0.569 0.095-0.187-0.026-0.323-0.161-0.404-0.269-0.183-0.245-0.272-0.6-0.224-0.929l0.001-0.090-0.092-0.009 0.089-0.012-0.022-0.158c-0.19-0.762-0.73-1.246-1.139-1.555-0.033-0.023-0.128-0.106-0.167-0.141l-0.061-0.036c-0.049-0.018-0.31-0.143-0.357-0.178l-0.129-0.053c-0.089-0.029-0.413-0.069-0.514-0.053l-0.352-0.019c-0.010 0-1.070 0.117-1.136 0.417l-0.026 0.119 0.101 0.068c0.254 0.171 0.464 0.348 0.653 0.551 0.081 0.074 0.161 0.147 0.24 0.221 0.098 0.17 0.164 0.267 0.213 0.321 0.018 0.035 0.046 0.086 0.079 0.144 0.071 0.127 0.189 0.339 0.213 0.416l0.017 0.038c0.036 0.060 0.073 0.129 0.11 0.196 0.052-0.066 0.066-0.16 0.045-0.288-0.036-0.214 0.108-0.194 0.248-0.148 0.012 0.409 0.012 0.409 0.127 0.434-0.045 0.118-0.109 0.286-0.173 0.455-0.028-0.046-0.057-0.092-0.085-0.138-0.003-0.001-0.006-0.002-0.008-0.004 0.12 0.267 0.22 0.565 0.246 0.89 0.040 0.483-0.177 0.805-0.581 0.872l-0.284-0.013-0.023 0.004c-0.128 0.024-0.24-0.030-0.377-0.094-0.056-0.026-0.113-0.052-0.17-0.073l-1.104-0.805 0.196 0.688c0.155 0.011 0.311 0.021 0.468 0.031zM11.415 9.538c0.029-0.001 0.057-0.001 0.086-0.002 0 0.059-0.013 0.122 0.003 0.175 0.023 0.076 0.052 0.164 0.108 0.215 0.11 0.102 0.175 0.491 0.079 0.599-0.018 0.020-0.053 0.036-0.080 0.035-0.021-0.001-0.052-0.027-0.060-0.049-0.052-0.135-0.099-0.273-0.136-0.375 0-0.214 0-0.406 0-0.599zM11.504 10.67c0.056 0.025-0.038 0.285 0.191 0.212-0.167 0.088-0.334 0.177-0.501 0.265-0.007-0.016-0.014-0.032-0.020-0.048 0.105-0.137 0.21-0.274 0.33-0.429z"></path>
</svg>
