<!-- Generated by IcoMoon.io -->
<svg version="1.1" xmlns="http://www.w3.org/2000/svg" width="37" height="32" viewBox="0 0 37 32">
<title>natural</title>
<path fill="#8bc03f" d="M25.498 30.472c0.238-0.305 0.375-0.479 0.465-0.596-0.198-0.148-0.376-0.282-0.546-0.41-0.168 0.021-0.33 0.035-0.483 0.036 0.175 0.306 0.366 0.62 0.564 0.97z"></path>
<path fill="#8bc03f" d="M26.293 26.563c0.027-0.518 0.037-0.806-0.044-1.086-0.074 0.42-0.161 0.841-0.264 1.262l0.308-0.176z"></path>
<path fill="#8bc03f" d="M25.687 27.823c0.1-0.023 0.203-0.050 0.306-0.081 0.093-0.205 0.169-0.422 0.222-0.637l-0.342 0.069c-0.057 0.216-0.119 0.433-0.186 0.649z"></path>
<path fill="#8bc03f" d="M12.816 9.201c-0.479-0.158-0.968-0.227-0.846 0.503 0.048 0.284 0.039 0.514-0.018 0.706 0.364 0.283 0.721 0.572 1.069 0.868 0.084-0.221 0.163-0.427 0.228-0.599-0.392-0.085-0.392-0.085-0.433-1.478z"></path>
<path fill="#8bc03f" d="M19.794 24.364c0.134 0.34 0.254 0.692 0.359 1.063 0.1-0.102 0.203-0.206 0.309-0.314-0.162-0.474-0.333-0.941-0.513-1.399-0.057 0.219-0.116 0.434-0.155 0.649z"></path>
<path fill="#8bc03f" d="M19.496 22.69c0.008-0.005 0.015-0.009 0.023-0.014-0.113-0.258-0.227-0.516-0.347-0.769-0.364-0.049-0.623-0.014-0.821 0.115 0.34 0.359 0.639 0.76 0.899 1.206 0.173 0.035 0.354 0.071 0.542 0.109-0.172-0.378-0.248-0.542-0.296-0.647z"></path>
<path fill="#8bc03f" d="M23.249 25.742c-0.153 0.23-0.177 0.621-0.11 1.054 0.083-0.238 0.162-0.475 0.233-0.715-0.041-0.113-0.081-0.224-0.122-0.34z"></path>
<path fill="#8bc03f" d="M24.298 14.793c0.068-0.075-0.105-0.523-0.155-0.521-0.173 0.008-0.348 0.031-0.535 0.062 0.126 0.243 0.246 0.49 0.36 0.742 0.122-0.088 0.236-0.178 0.331-0.283z"></path>
<path fill="#8bc03f" d="M23.887 11.615c-0.878-0.098-1.333 0.2-1.408 0.858 0.071 0.099 0.146 0.194 0.214 0.296 0.701-0.001 0.681-0.84 1.194-1.154z"></path>
<path fill="#8bc03f" d="M16.923 9.55c-0.406 0.528-0.765 0.995-1.124 1.462 0.023 0.054 0.046 0.109 0.069 0.163 0.569-0.301 1.138-0.602 1.708-0.903-0.781 0.249-0.463-0.638-0.653-0.722z"></path>
<path fill="#8bc03f" d="M10.876 15.633c0.515-0.169 1.031-0.339 1.546-0.509-0.121-0.085-0.241-0.171-0.368-0.253-0.435 0.126-0.871 0.252-1.307 0.378 0.043 0.128 0.086 0.257 0.129 0.385z"></path>
<path fill="#8bc03f" d="M20.66 28.193c0 0.006 0.002 0.010 0.002 0.016 0.010-0.006 0.020-0.009 0.030-0.016-0.011 0-0.022 0-0.033 0z"></path>
<path fill="#8bc03f" d="M15.692 24.076c0.053-0.058 0.105-0.116 0.157-0.174-0.37-0.34-0.74-0.681-1.238-1.14-0.126 1.153 0.473 1.237 1.082 1.313z"></path>
<path fill="#8bc03f" d="M6.755 17.176c0.011-0.106 0.023-0.212 0.034-0.318-0.52-0.033-1.039-0.066-1.559-0.099 0.011 0.014 0.022 0.028 0.033 0.042 0.093 0.107 0.144 0.213 0.178 0.283l0.029 0.060 0.039 0.073c0.405 0.071 0.829-0.013 1.246-0.041z"></path>
<path fill="#8bc03f" d="M0.956 14.39c0.441 0.057 0.622-0.123 0.729-0.368-0.099-0.227-0.194-0.457-0.285-0.692-0.159 0.379-0.299 0.713-0.444 1.060z"></path>
<path fill="#8bc03f" d="M10.453 27.669c0.070 0.104 0.141 0.208 0.211 0.312 0.184 0.111 0.37 0.219 0.558 0.322-0.182-0.272-0.364-0.542-0.545-0.814-0.075 0.060-0.15 0.12-0.225 0.18z"></path>
<path fill="#8bc03f" d="M34.019 25.444c0.11 0.408 0.221 0.815 0.331 1.223 0.078-0.020 0.154-0.039 0.233-0.059 0.198-0.481 0.070-0.885-0.564-1.164z"></path>
<path fill="#8bc03f" d="M15.712 3.38c-0.41-0.472-0.821-0.944-1.231-1.416-0.061 0.058-0.123 0.117-0.184 0.175 0.426 0.459 0.852 0.918 1.279 1.377 0.046-0.046 0.091-0.091 0.136-0.136z"></path>
<path fill="#8bc03f" d="M21.478 7.198c-0.146 0.215-0.282 0.415-0.558 0.821 0.624-0.057 1.017-0.092 1.325-0.12-0.266-0.243-0.505-0.46-0.768-0.7z"></path>
<path fill="#8bc03f" d="M33.824 13.953l-0.037-0.359c-0.044 0.023-0.087 0.046-0.13 0.069-0.006-0.015-0.013-0.031-0.020-0.046 0.044-0.057 0.089-0.115 0.134-0.174l-0.094-0.902-0.88 0.681c0.009 0.275 0.021 0.28 0.119 0.3-0.043 0.114-0.105 0.276-0.167 0.438-0.027-0.044-0.054-0.088-0.081-0.133-0.137-0.062-0.274-0.124-0.411-0.185-1.276 1.058-2.662 1.742-4.239 2.092-0.699 0.154-1.371 0.381-2.022 0.6-0.267 0.090-0.534 0.18-0.801 0.265-0.107 0.033-0.332 0.124-0.512 0.324-0.203-0.64-0.447-1.252-0.715-1.847-0.155 0.111-0.324 0.217-0.497 0.341-0.21-0.333-0.353-0.563-0.597-0.952 0.28-0.048 0.517-0.095 0.735-0.131-0.279-0.541-0.579-1.067-0.916-1.565-0.068 0-0.142-0.005-0.225-0.022-0.003-0.098 0.002-0.188 0.011-0.274-0.817-1.151-1.785-2.187-2.916-3.092-0.589-0.471-1.212-0.893-1.864-1.279 0.047 0.395 0.016 0.78-0.138 0.953-0.061 0.069-0.181 0.124-0.271 0.119-0.072-0.003-0.175-0.093-0.204-0.167-0.178-0.461-0.338-0.929-0.464-1.279 0-0.071 0-0.139 0-0.209-1.268-0.627-2.651-1.12-4.182-1.479-1.296-0.304-2.624-0.621-3.908-1.014 0.005 0.010 0.008 0.017 0.013 0.028-0.353-0.071-0.643-0.129-0.934-0.187 0.016-0.046 0.032-0.085 0.048-0.124-2.383-0.84-4.403-2.364-5.902-3.611-0.076-0.063-0.155-0.122-0.243-0.187l-1.25-0.945-0.123 1.426c-0.083 0.975-0.128 1.911-0.14 2.819 0.476 0.874 0.753 1.743 0.633 2.726-0.018 0.148-0.244 0.328-0.409 0.378-0.029 0.009-0.075-0.012-0.123-0.042 0.079 0.937 0.199 1.844 0.367 2.722 0.227 1.183 0.538 2.279 0.932 3.302 0.061-0.145 0.124-0.296 0.192-0.458 0.114 0.125 0.388 0.362 0.36 0.405-0.131 0.204-0.163 0.506-0.267 0.745 0.391 0.896 0.849 1.736 1.385 2.516l-1.112-0.119-0.402-0.013-0.719 0.725 0.219 0.491c0.115 0.258 0.226 0.519 0.336 0.779 0.248 0.585 0.505 1.19 0.817 1.774 0.644 1.201 1.493 2.261 2.567 3.197v0.856l-0.013 0.29 0.148 0.22c0.045 0.068 0.091 0.133 0.139 0.197 2.297 3.078 5.288 5.155 8.892 6.174 2.138 0.605 4.348 0.786 6.226 0.884 0.080 0.004 0.157 0.006 0.234 0.006 1.36 0 2.389-0.648 2.976-1.874 0.089-0.186 0.18-0.371 0.27-0.557 0.032-0.064 0.062-0.131 0.094-0.195l0.736 0.1c0.139 0.019 0.286 0.028 0.439 0.028 0.006 0 0.011-0.001 0.016-0.001-0.144-0.251-0.276-0.496-0.388-0.749-0.188-0.427 0.292-1.161 0.78-1.318 0.525-0.169 0.722-0.777 0.535-1.323-0.217-0.631-0.333-1.298-0.397-1.969 0.471 0.683 0.691 1.005 0.785 1.335 0.239-1.364 0.325-2.721 0.252-4.059-0.004-0.076-0.013-0.151-0.018-0.226 0.236 0 0.469 0 0.707 0-0.014-0.141-0.030-0.249-0.037-0.358-0.014-0.235-0.025-0.469-0.034-0.704-0.003-0.075-0.026-0.168 0.008-0.223 0.192-0.309 0.487-0.393 0.88-0.219 0.034-0.124 0.118-0.258 0.085-0.352-0.041-0.117-0.17-0.209-0.275-0.295-0.073-0.060-0.168-0.091-0.254-0.134-0.012 0.026-0.024 0.051-0.036 0.078 0.094 0.115 0.189 0.23 0.272 0.33-0.238 0.294-0.635-0.199-0.746 0.241-0.061 0.241-0.463 0.389-0.11 0.764-0.186-0.071-0.274-0.106-0.363-0.141-0.014 0.029-0.028 0.058-0.043 0.087 0.109 0.047 0.221 0.089 0.324 0.146 0.056 0.030 0.11 0.081 0.136 0.137 0.011 0.024-0.048 0.082-0.075 0.124s-0.080 0.089-0.074 0.125c0.032 0.196-0.079 0.23-0.235 0.243-0.047 0.004-0.094 0.014-0.141 0.023-0.068-0.866-0.201-1.722-0.334-2.553-0.028-0.175-0.056-0.351-0.084-0.53 0.148-0.049 0.296-0.098 0.444-0.149 0.499-0.168 0.977-0.328 1.456-0.455-0.009-0.139 0.146-0.229 0.177-0.352 0.079-0.312 0.36 0.037 0.528-0.171-0.058-0.071-0.125-0.152-0.192-0.234 0.009-0.019 0.017-0.036 0.026-0.055 0.060 0.031 0.128 0.053 0.18 0.095 0.075 0.061 0.166 0.127 0.195 0.209 0.023 0.066-0.036 0.162-0.061 0.25-0.278-0.123-0.488-0.064-0.624 0.155-0.008 0.012-0.007 0.030-0.008 0.047 0.061-0.015 0.121-0.031 0.182-0.045 1.428-0.316 2.761-0.892 3.975-1.716 0.002 0.657-0.044 1.301-0.136 1.941 0.031-0.029 0.060-0.072 0.085-0.127 0.042-0.094 0.083-0.19 0.11-0.289 0.048-0.177 0.139-0.184 0.289-0.081-0.242 0.186-0.383 0.377-0.275 0.675 0.044 0.124-0.085 0.223-0.222 0.182-0.014-0.004-0.029-0.009-0.044-0.014-0.014 0.082-0.026 0.165-0.042 0.247-0.256 1.34-0.768 2.425-1.612 3.415l-1.276 1.499 2.152-0.221c-0.485 0.874-1.219 1.576-2.251 2.165l-2.819 1.61c-0.001 0.025-0.003 0.047-0.004 0.074-0.008 0.149-0.034 0.308-0.074 0.468l2.039-0.409c-0.705 0.445-1.525 0.831-2.26 1.046-0.233 0.518-0.564 0.952-0.847 1.030-0.093 0.094-0.187 0.186-0.28 0.28 0.179 0.135 0.359 0.27 0.551 0.414 2.086-0.26 5.24-2.018 5.965-3.753l0.319-0.761c0.785-0.805 1.328-1.756 1.645-2.869l0.32-1.123-0.957 0.1c0.056-0.102 0.103-0.208 0.155-0.313 0.152-0.003 0.27-0.122 0.217-0.267-0.014-0.042-0.024-0.081-0.032-0.12 0.099-0.228 0.187-0.463 0.268-0.702 0.047-0.044 0.098-0.087 0.153-0.13-0.034-0.024-0.066-0.042-0.096-0.057 0.108-0.348 0.205-0.705 0.276-1.079 0.278-1.451 0.335-2.903 0.175-4.439zM0.639 2.128c-0.003-0.036-0.005-0.072-0.008-0.108 0.178-0.003 0.364-0.036 0.53 0.008 0.046 0.012 0.031 0.253 0.053 0.48-0.271-0.179-0.423-0.28-0.574-0.38zM8.651 5.105c0.58 0.278 0.802 0.777 0.918 1.365-0.231-0.216-0.463-0.433-0.667-0.625-0.091 0.092-0.175 0.177-0.258 0.261-0.042-0.136-0.124-0.273-0.117-0.406 0.009-0.198 0.079-0.393 0.125-0.596zM6.118 4.786c0.234 0.215 0.407 0.375 0.58 0.534-0.025 0.027-0.049 0.054-0.074 0.081-0.285-0.036-0.566-0.075-0.507-0.616zM1.652 1.969c0.267 0.017 0.535 0.034 0.802 0.051-0.006 0.050-0.011 0.099-0.016 0.149-0.272 0.018-0.549 0.090-0.801-0.059 0.006-0.047 0.010-0.094 0.015-0.141zM2.899 16.86c0.38-0.008 0.777-0.078 1.13 0.017 0.098 0.026 0.067 0.539 0.113 1.025-0.579-0.383-0.902-0.597-1.226-0.811-0.006-0.077-0.011-0.153-0.017-0.23zM18.361 30.543c-0.381-0.186-0.656-0.305-0.915-0.452-0.114-0.065-0.279-0.196-0.271-0.283 0.011-0.12 0.213-0.337 0.25-0.322 0.322 0.139 0.651 0.292 0.922 0.51 0.089 0.072 0.014 0.347 0.014 0.546zM21.318 28.019c0.095 0.383 0.179 0.769 0.263 1.155-0.264 0.066-0.534 0.125-0.788 0.151l-0.119-1.022c-0.003-0.031-0.008-0.062-0.011-0.094-1.041 0.588-1.812 0.594-2.28-0.016 0.788 0 1.465 0 2.278 0-0.032-0.292-0.064-0.582-0.108-0.869-0.103-0.693-0.235-1.317-0.399-1.897-0.050 0.051-0.102 0.103-0.152 0.154-0.090-0.289-0.263-0.582-0.25-0.866 0.006-0.117 0.022-0.234 0.044-0.351-0.064-0.163-0.131-0.325-0.203-0.482-0.104-0.229-0.221-0.444-0.343-0.654-0.521-0.104-0.985-0.197-1.451-0.291 0.155-0.461 0.311-0.757 0.552-0.915-0.405-0.427-0.864-0.796-1.382-1.099l0.995 0.050-0.399-1.115c-0.071-0.199-0.136-0.392-0.2-0.58-0.144-0.427-0.279-0.831-0.46-1.235-0.055-0.123-0.113-0.245-0.172-0.365 0.302 0.433 0.593 0.875 0.873 1.327 0.576 0.931 1.095 1.898 1.567 2.901 0.308 0.042 0.688 0.14 1.178 0.293-0.331 0.19-0.554 0.317-0.831 0.476 0.149 0.342 0.292 0.688 0.431 1.038 0.024-0.090 0.047-0.18 0.068-0.271 1.237 0.593 1.711 1.657 1.958 2.913-0.493-0.462-0.987-0.924-1.423-1.334-0.031 0.031-0.060 0.060-0.090 0.090 0.318 0.935 0.606 1.899 0.856 2.906zM23.139 26.797c-0.038 0.108-0.075 0.217-0.116 0.325-0.058 0.154-0.12 0.307-0.186 0.46-0.312-1.249-0.677-2.439-1.090-3.584 0.025-0.025 0.048-0.049 0.075-0.075 0.106 0.1 0.227 0.213 0.348 0.326-0.061-0.307-0.176-0.567-0.479-0.712-0.014 0.061-0.030 0.121-0.044 0.182-0.028-0.075-0.059-0.148-0.087-0.223 0.027 0.006 0.049 0.009 0.077 0.015-0.043-0.092-0.061-0.133-0.073-0.158 0.071-0.041 0.126-0.072 0.209-0.12-0.152-0.047-0.261-0.073-0.344-0.075-0.692-1.763-1.511-3.416-2.478-4.98-1.615-2.612-3.578-4.898-5.927-6.898-0.113 0.297-0.237 0.621-0.362 0.95-0.097-0.156-0.193-0.313-0.289-0.469-0.485-0.218-0.969-0.437-1.454-0.655 0.588-0.089 0.921-0.304 1.036-0.694-1.608-1.25-3.381-2.382-5.335-3.401-0.085-0.044-0.175-0.080-0.265-0.114l-0.701-0.261-0.726 1.199 4.005 3.391-1.761-0.055-0.563 0.036-0.545 1.29 0.877 0.287c0.078 0.027 0.157 0.053 0.239 0.073 1.558 0.376 2.891 0.877 4.074 1.531 0.281 0.155 0.547 0.317 0.803 0.483 0.262-0.076 0.524-0.152 0.785-0.227 0.034 0.103 0.069 0.206 0.103 0.309-0.173 0.057-0.347 0.114-0.52 0.171 1.407 0.99 2.411 2.163 3.041 3.567 0.083 0.186 0.159 0.382 0.231 0.586l-3.349-0.169c0.018-0.217-0.057-0.528-0.167-0.63-0.075-0.070-0.115-0.189-0.147-0.292-0.022-0.073-0.004-0.158-0.004-0.238-0.039 0.002-0.078 0.003-0.117 0.003 0 0.261 0 0.523 0 0.814 0.033 0.093 0.074 0.208 0.117 0.327l-5.146-0.26-0.112 1.623 0.735 0.097c0.323 0.044 0.646 0.084 0.968 0.125 0.694 0.089 1.412 0.18 2.109 0.288l0.686 0.105c1.060 0.162 2.156 0.329 3.204 0.567 1.771 0.402 2.975 1.35 3.679 2.899 0.391 0.861 0.657 1.822 0.837 3.023 0.028 0.186 0.052 0.374 0.073 0.562l-5.622 0.497 0.584 0.871c-0.988-0.304-1.922-0.702-2.804-1.185 0.261 0.389 0.521 0.778 0.782 1.168-0.076 0.051-0.152 0.102-0.227 0.152-0.371-0.547-0.741-1.095-1.113-1.642-1.132-0.686-2.17-1.523-3.107-2.512l0.997 0.214 0.252-0.484c-0.069-0.017-0.139-0.033-0.219-0.041 0.026-0.244-0.009-0.521 0.1-0.719 0.051-0.093 0.198-0.133 0.359-0.18l-0.508-0.262c-2.318-1.199-3.933-2.693-4.939-4.57-0.225-0.419-0.419-0.855-0.613-1.311l3.186 0.343-0.664-1.244c-0.158-0.028-0.313-0.078-0.463-0.168 0.011-0.1 0.021-0.2 0.032-0.3 0.051 0.003 0.101 0.007 0.152 0.009-1.613-1.883-2.664-4.182-3.21-7.029-0.391-2.038-0.525-4.235-0.406-6.681 0.869 0.683 1.87 1.393 2.985 2.021 0.004-0.014 0.010-0.027 0.014-0.040 0.080-0.294 0.231-0.305 0.478-0.134-0.119 0.091-0.22 0.184-0.303 0.281 0.787 0.432 1.628 0.82 2.524 1.122 1.569 0.529 3.196 0.91 4.777 1.281 2.568 0.602 4.69 1.595 6.489 3.034 2.367 1.894 3.986 4.406 4.811 7.465 0.744 2.755 0.736 5.441-0.017 8.003 0.366 1.018 0.709 1.97 1.050 2.919-0.63-0.275-1.146-1.329-1.282-2.205zM16.511 20.352c-0.11-0.267-0.214-0.537-0.331-0.801-0.123-0.281-0.256-0.557-0.387-0.838 0.718-0.125 0.965 0.349 0.718 1.64zM13.853 14.209c-0.552-0.432-1.164-0.832-1.837-1.204-0.136-0.075-0.274-0.149-0.413-0.22l0.199-0.47c0.722 0.604 1.405 1.235 2.052 1.895zM33.839 16.257c-0.031-0.075-0.061-0.152-0.094-0.226-0.035-0.080-0.073-0.158-0.11-0.237 0.203-0.036 0.272 0.099 0.203 0.463zM29.995 15.335c-0.002-0.022-0.003-0.043-0.006-0.065 0.108-0.002 0.22-0.022 0.32 0.005 0.028 0.008 0.019 0.152 0.032 0.29-0.163-0.108-0.255-0.168-0.346-0.229zM31.081 15.359c-0.164 0.011-0.331 0.054-0.483-0.036 0.003-0.028 0.006-0.056 0.009-0.085 0.161 0.010 0.322 0.021 0.484 0.031-0.004 0.030-0.007 0.060-0.010 0.090zM32.245 14.923c-0.011-0.036-0.024-0.072-0.036-0.108 0.197-0.057 0.394-0.114 0.591-0.171 0.010 0.029 0.019 0.058 0.029 0.088-0.194 0.064-0.389 0.128-0.584 0.192zM33.301 16.939c0.142 0.13 0.246 0.226 0.35 0.322-0.015 0.017-0.029 0.033-0.044 0.049-0.172-0.021-0.341-0.046-0.306-0.371z"></path>
<path fill="#8bc03f" d="M32.56 13.406l-0.107 0.083c-0.075 0.058-0.135 0.105-0.197 0.154 0.186-0.028 0.284-0.1 0.304-0.237z"></path>
<path fill="#8bc03f" d="M28.462 13.166c0.025 0.055 0.113 0.133 0.147 0.122 0.066-0.020 0.155-0.091 0.163-0.15 0.060-0.488-0.123-0.905-0.404-1.344-0.074 0.288-0.305 0.48-0.142 0.772 0.103 0.186 0.15 0.403 0.236 0.6z"></path>
<path fill="#8bc03f" d="M36.5 19.706c-0.039 0.172-0.099 0.338-0.106 0.506-0.005 0.114 0.064 0.23 0.099 0.345 0.072-0.072 0.142-0.144 0.22-0.222 0.174 0.164 0.371 0.347 0.568 0.532-0.098-0.501-0.287-0.925-0.781-1.162z"></path>
<path fill="#8bc03f" d="M36.293 19.405c0.115-0.066 0.205-0.117 0.34-0.195-0.705-0.221-0.861-0.169-1.017 0.294 0.248 0.049 0.494 0.099 0.795 0.159-0.069-0.151-0.1-0.216-0.118-0.258z"></path>
<path fill="#8bc03f" d="M35.268 12.862c-0.022-0.073-0.004-0.158-0.004-0.239-0.039 0.001-0.078 0.002-0.117 0.003 0 0.262 0 0.523 0 0.813 0.050 0.139 0.114 0.326 0.185 0.51 0.011 0.030 0.053 0.065 0.081 0.067 0.036 0.001 0.084-0.020 0.108-0.048 0.13-0.147 0.042-0.676-0.107-0.814-0.075-0.070-0.115-0.189-0.147-0.293z"></path>
<path fill="#8bc03f" d="M35.267 14.166c-0.162 0.211-0.305 0.397-0.449 0.583 0.009 0.022 0.019 0.043 0.027 0.065 0.227-0.12 0.454-0.24 0.681-0.361-0.311 0.099-0.184-0.254-0.259-0.288z"></path>
<path fill="#8bc03f" d="M30.171 17.496c-0.019-0.194-0.006-0.398-0.045-0.409-0.141-0.037-0.299-0.009-0.451-0.006 0.003 0.030 0.005 0.061 0.007 0.092 0.128 0.086 0.257 0.171 0.488 0.324z"></path>
<path fill="#8bc03f" d="M34.816 17.819c0.052 0.112 0.105 0.222 0.154 0.334 0.046 0.105 0.088 0.213 0.132 0.319 0.098-0.515-0-0.703-0.286-0.654z"></path>
<path fill="#8bc03f" d="M34.776 19.957c0.021-0.023 0.042-0.046 0.062-0.069-0.147-0.135-0.294-0.272-0.494-0.455-0.050 0.46 0.189 0.494 0.431 0.524z"></path>
<path fill="#8bc03f" d="M31.212 17.207c0.005-0.043 0.009-0.084 0.014-0.127-0.227-0.014-0.455-0.029-0.683-0.044-0.004 0.039-0.009 0.080-0.012 0.119 0.214 0.127 0.45 0.067 0.681 0.051z"></path>
<path fill="#8bc03f" d="M34.784 11.705c-0.164-0.188-0.327-0.377-0.49-0.565-0.025 0.023-0.049 0.047-0.074 0.070 0.17 0.183 0.34 0.366 0.51 0.549 0.019-0.018 0.036-0.036 0.054-0.054z"></path>
<path fill="#8bc03f" d="M13.159 25.537c-0.005 0.114 0.064 0.23 0.099 0.345 0.071-0.072 0.142-0.144 0.22-0.222 0.174 0.163 0.371 0.347 0.568 0.531-0.098-0.501-0.288-0.925-0.781-1.161-0.039 0.172-0.099 0.338-0.106 0.507z"></path>
<path fill="#8bc03f" d="M13.057 24.729c0.115-0.066 0.205-0.117 0.34-0.195-0.705-0.221-0.861-0.169-1.017 0.294 0.248 0.050 0.494 0.099 0.795 0.159-0.069-0.151-0.099-0.216-0.118-0.258z"></path>
<path fill="#8bc03f" d="M11.868 23.796c0.098-0.514 0-0.703-0.286-0.654 0.053 0.112 0.105 0.222 0.155 0.334 0.046 0.106 0.088 0.213 0.132 0.319z"></path>
<path fill="#8bc03f" d="M11.541 25.282c0.021-0.023 0.042-0.046 0.062-0.069-0.147-0.136-0.295-0.272-0.494-0.454-0.050 0.459 0.189 0.493 0.432 0.523z"></path>
<path fill="#8bc03f" d="M11.549 17.030c-0.164-0.189-0.327-0.377-0.491-0.565-0.025 0.023-0.049 0.047-0.073 0.070 0.17 0.183 0.34 0.366 0.51 0.549 0.018-0.018 0.036-0.036 0.054-0.053z"></path>
<path fill="#8bc03f" d="M20.455 19.428c-0.024 0.105-0.060 0.207-0.064 0.311-0.003 0.069 0.039 0.141 0.061 0.212 0.044-0.044 0.088-0.089 0.135-0.136 0.107 0.1 0.227 0.213 0.348 0.327-0.060-0.307-0.176-0.567-0.479-0.713z"></path>
<path fill="#8bc03f" d="M20.328 19.243c0.070-0.041 0.126-0.072 0.208-0.12-0.433-0.135-0.528-0.103-0.624 0.18 0.152 0.030 0.303 0.061 0.487 0.098-0.042-0.092-0.061-0.133-0.072-0.158z"></path>
<path fill="#8bc03f" d="M19.7 15.232c-0.014-0.044-0.003-0.097-0.003-0.146-0.024 0-0.047 0.001-0.071 0.002 0 0.161 0 0.321 0 0.499 0.030 0.085 0.069 0.2 0.114 0.312 0.007 0.018 0.032 0.040 0.050 0.041 0.022 0.001 0.052-0.013 0.066-0.029 0.080-0.090 0.026-0.414-0.065-0.499-0.046-0.043-0.070-0.115-0.090-0.179z"></path>
<path fill="#8bc03f" d="M19.7 16.031c-0.1 0.129-0.187 0.243-0.275 0.358 0.006 0.014 0.011 0.027 0.017 0.040 0.139-0.074 0.278-0.147 0.417-0.221-0.192 0.061-0.114-0.155-0.159-0.177z"></path>
<path fill="#8bc03f" d="M19.423 18.271c0.032 0.069 0.064 0.136 0.095 0.205 0.028 0.065 0.054 0.131 0.081 0.196 0.061-0.315-0-0.431-0.175-0.401z"></path>
<path fill="#8bc03f" d="M19.058 14.22c0.104 0.112 0.208 0.224 0.313 0.336 0.011-0.011 0.022-0.022 0.033-0.033-0.1-0.115-0.201-0.231-0.301-0.346-0.015 0.014-0.030 0.028-0.045 0.043z"></path>
<path fill="#8bc03f" d="M20.935 19.341c-0.014-0.044-0.003-0.097-0.003-0.147-0.024 0.001-0.047 0.002-0.071 0.002 0 0.161 0 0.321 0 0.499 0.030 0.086 0.069 0.2 0.113 0.312 0.008 0.019 0.032 0.040 0.050 0.042 0.022 0.001 0.052-0.013 0.067-0.029 0.080-0.090 0.026-0.414-0.066-0.499-0.046-0.043-0.070-0.116-0.089-0.179z"></path>
<path fill="#8bc03f" d="M20.934 20.14c-0.099 0.129-0.187 0.243-0.275 0.357 0.006 0.014 0.011 0.027 0.017 0.040 0.139-0.074 0.278-0.147 0.417-0.221-0.192 0.060-0.114-0.156-0.16-0.177z"></path>
<path fill="#8bc03f" d="M20.638 18.632c-0.1-0.115-0.2-0.231-0.301-0.346-0.015 0.014-0.030 0.028-0.044 0.043 0.104 0.113 0.208 0.224 0.312 0.337 0.011-0.011 0.022-0.022 0.033-0.033z"></path>
</svg>
