<!-- Generated by IcoMoon.io -->
<svg version="1.1" xmlns="http://www.w3.org/2000/svg" width="32" height="32" viewBox="0 0 32 32">
<title>phone</title>
<path fill="#e45028" d="M31.296 28.433c-0.477 1.114-1.751 1.841-2.772 2.409-1.341 0.727-2.705 1.158-4.227 1.158-2.115 0-4.023-0.864-5.955-1.568-1.388-0.5-2.729-1.114-3.977-1.885-3.863-2.385-8.524-7.046-10.909-10.909-0.774-1.251-1.388-2.592-1.885-3.98-0.707-1.932-1.571-3.84-1.571-5.955 0-1.521 0.431-2.886 1.158-4.227 0.57-1.024 1.297-2.295 2.412-2.772 0.751-0.34 2.342-0.704 3.159-0.704 0.16 0 0.317 0 0.477 0.067 0.477 0.16 0.977 1.274 1.204 1.728 0.727 1.295 1.431 2.612 2.182 3.887 0.364 0.591 1.044 1.318 1.044 2.022 0 1.388-4.113 3.409-4.113 4.637 0 0.614 0.567 1.408 0.887 1.955 2.295 4.137 5.161 7.002 9.295 9.297 0.547 0.317 1.341 0.887 1.955 0.887 1.228 0 3.249-4.116 4.637-4.116 0.704 0 1.431 0.684 2.022 1.047 1.274 0.751 2.592 1.455 3.887 2.182 0.454 0.227 1.568 0.727 1.728 1.204 0.067 0.16 0.067 0.317 0.067 0.477 0 0.817-0.364 2.409-0.704 3.159z"></path>
</svg>
