<!-- Generated by IcoMoon.io -->
<svg version="1.1" xmlns="http://www.w3.org/2000/svg" width="31" height="32" viewBox="0 0 31 32">
<title>salad</title>
<path fill="#8bc03f" d="M9.9 29.332c-0.073-0.089-0.157-0.191-0.242-0.294 0.011-0.022 0.021-0.046 0.032-0.070 0.076 0.040 0.162 0.067 0.226 0.121 0.094 0.077 0.209 0.159 0.245 0.263 0.029 0.084-0.046 0.204-0.076 0.314-0.35-0.155-0.615-0.080-0.784 0.195-0.031 0.050-0.011 0.133-0.007 0.199 0.008 0.21 0.017 0.419 0.030 0.629 0.006 0.097 0.020 0.193 0.033 0.32-0.271 0-0.539 0-0.808 0-0.005-0.026-0.010-0.051-0.015-0.076 0.103-0.021 0.205-0.051 0.309-0.059 0.139-0.012 0.239-0.043 0.209-0.218-0.005-0.032 0.042-0.074 0.066-0.111s0.077-0.089 0.067-0.111c-0.024-0.050-0.073-0.095-0.122-0.123-0.092-0.051-0.191-0.087-0.289-0.129 0.013-0.026 0.026-0.052 0.038-0.078 0.080 0.031 0.16 0.061 0.325 0.124-0.315-0.334 0.045-0.466 0.099-0.681 0.099-0.393 0.451 0.046 0.664-0.215z"></path>
<path fill="#8bc03f" d="M14.957 29.522c-0.305 0.234-0.482 0.475-0.346 0.85 0.056 0.156-0.107 0.28-0.278 0.228-0.092-0.028-0.182-0.060-0.316-0.106 0.041 0.129 0.065 0.204 0.106 0.334-0.072-0.044-0.118-0.055-0.122-0.077-0.046-0.233-0.124-0.433-0.405-0.461 0.010-0.086-0.002-0.186 0.036-0.256 0.027-0.049 0.124-0.056 0.207-0.089 0.031 0.034 0.065 0.075 0.1 0.113 0.201 0.227 0.395 0.202 0.518-0.071 0.053-0.118 0.104-0.239 0.138-0.364 0.059-0.222 0.174-0.23 0.362-0.101z"></path>
<path fill="#8bc03f" d="M15.1 24.616c0.014 0.495 0.014 0.495 0.154 0.526-0.055 0.143-0.133 0.347-0.21 0.551-0.035-0.055-0.069-0.111-0.103-0.166-0.172-0.078-0.345-0.156-0.518-0.234 0.311-0.046 0.426-0.19 0.375-0.497-0.044-0.26 0.13-0.236 0.301-0.18z"></path>
<path fill="#8bc03f" d="M12.015 27.71c-0.206-0.136-0.32-0.213-0.436-0.289-0.002-0.027-0.004-0.054-0.006-0.082 0.135-0.003 0.277-0.027 0.402 0.006 0.034 0.010 0.023 0.193 0.040 0.365z"></path>
<path fill="#8bc03f" d="M14.363 26.767c0.248-0.072 0.496-0.143 0.745-0.215 0.012 0.036 0.024 0.074 0.036 0.11-0.245 0.081-0.49 0.161-0.735 0.242-0.015-0.046-0.030-0.090-0.046-0.137z"></path>
<path fill="#8bc03f" d="M12.348 27.301c0.203 0.012 0.406 0.025 0.609 0.038-0.004 0.038-0.008 0.075-0.012 0.113-0.206 0.015-0.417 0.070-0.608-0.045 0.004-0.036 0.008-0.071 0.012-0.106z"></path>
<path fill="#8bc03f" d="M10.882 26.462c0.071-0.171 0.138-0.331 0.226-0.54 0.041 0.045 0.138 0.129 0.128 0.144-0.094 0.147-0.045 0.436-0.354 0.396z"></path>
<path fill="#8bc03f" d="M14.339 31.12c0.157 0.235 0.315 0.47 0.472 0.705-0.027 0.018-0.054 0.036-0.081 0.055-0.157-0.231-0.313-0.465-0.47-0.696 0.027-0.022 0.053-0.042 0.079-0.064z"></path>
<path fill="#8bc03f" d="M26.394 25.805c0.027 0.020 0.056 0.042 0.084 0.063 0.105-0.12 0.203-0.247 0.287-0.387-0.032 0.017-0.065 0.041-0.096 0.051-0.092 0.090-0.184 0.182-0.275 0.273z"></path>
<path fill="#8bc03f" d="M7.080 11.365c0.326 0.162 0.699-0.036 0.861-0.381 0.135-0.287 0.309-0.553 0.495-0.812 0.018-0.104 0.037-0.207 0.066-0.306 0.106-0.361 0.399-0.511 0.726-0.33 0.351 0.195 0.677 0.454 0.966 0.735 0.357 0.345 0.658 0.748 0.994 1.116 0.283 0.311 0.62 0.335 0.873 0.087 0.239-0.235 0.234-0.564-0.046-0.854-0.566-0.584-1.055-1.213-1.111-2.057-0.023-0.356 0.003-0.738 0.111-1.076 0.245-0.77 0.985-1.019 1.642-0.542 0.352 0.256 0.63 0.619 0.921 0.953 0.214-0.224 0.281-0.549 0.203-1.015-0.118-0.708 0.352-0.648 0.817-0.495 0.068-0.463 0.302-0.77 0.797-0.968 0.286-0.115 0.585-0.205 0.887-0.266 0.485-0.099 0.966-0.22 1.443-0.364-0.345-0.285-0.686-0.567-1.049-0.867-0.033 0.128-0.068 0.251-0.146 0.544-0.187-0.345-0.3-0.563-0.421-0.777-0.138-0.245-0.258-0.51-0.43-0.727-1.035 0.219-1.989 0.619-2.693 1.492-0.051 0.063-0.197 0.087-0.288 0.070-0.079-0.013-0.153-0.012-0.23-0.022 0.032 0.026 0.070 0.050 0.101 0.077 0.025 0.022-0.099 0.314-0.166 0.318-0.212 0.014-0.431-0.047-0.68-0.085 0.026-0.122 0.048-0.226 0.070-0.333-1.366 0.071-2.45 0.876-2.927 2.283-0.125 0.366-0.268 0.538-0.684 0.627-1.184 0.255-1.745 1.14-1.966 2.256-0.051 0.255-0.072 0.51-0.089 0.764 0.2-0.407 0.484-0.747 0.744-0.803-0.262 0.581-0.505 1.12-0.747 1.655 0.005 0.104 0.004 0.207 0.014 0.311 0.159-0.244 0.661-0.345 0.942-0.207z"></path>
<path fill="#8bc03f" d="M18.966 2.479c-0.061-0.026-0.157-0.068-0.269-0.117-0.128 0.223-0.181 0.603-0.579 0.36 0.067-0.234 0.128-0.444 0.189-0.655-0.199 0.112-0.401 0.219-0.61 0.309-0.055 0.071-0.104 0.145-0.125 0.226-0.058 0.214 0.144 0.498 0.244 0.787-0.388 0.307-0.38-0.354-0.757-0.354 0.082 0.379 0.073 0.804 0.263 1.101 0.152 0.235 0.405 0.403 0.653 0.576 0.12-0.040 0.24-0.068 0.359-0.113 0-0.571 0-1.111 0-1.642 0.095-0.002 0.19-0.004 0.286-0.007 0 0.196-0.044 0.405 0.011 0.585 0.078 0.254 0.175 0.545 0.359 0.716 0.012 0.012 0.022 0.031 0.033 0.044 0.025-0.013 0.051-0.022 0.076-0.035-0.007 0.036-0.016 0.069-0.023 0.104 0.311 0.447 0.47 1.555 0.177 1.885-0.060 0.067-0.177 0.121-0.265 0.118-0.070-0.004-0.171-0.090-0.2-0.164-0.012-0.031-0.022-0.060-0.034-0.092-0.034 0.378-0.036 0.757-0.010 1.135 0.049 0.176 0.167 0.306 0.523 0.193-0.159 0.084-0.319 0.169-0.479 0.253 0.017 0.118 0.027 0.235 0.048 0.352 0.064 0.364 0.312 0.553 0.65 0.504 0.324-0.046 0.538-0.335 0.462-0.682-0.26-1.2 0.176-2.129 1.102-2.862 0.73-0.579 1.483-1.132 2.442-1.274 0.793-0.118 1.27 0.276 1.27 1.081-0.001 0.382-0.096 0.764-0.152 1.145-0.017 0.121-0.055 0.239-0.070 0.359-0.048 0.338 0.132 0.606 0.441 0.673 0.287 0.060 0.555-0.115 0.654-0.427 0.023-0.075 0.045-0.152 0.066-0.228-0.329-0.018-0.658-0.046-0.986-0.109 0.34 0 0.68 0.007 1.020 0.009 0.019-0.060 0.037-0.12 0.063-0.176 0.394-0.861 1.287-1.062 1.947-0.387 0.121 0.124 0.222 0.272 0.327 0.415 0.191-0.023 0.388-0.047 0.569-0.067-0.178-0.932-0.354-1.852-0.529-2.776-0.436-0.164-0.916-0.25-1.449-0.239-0.083 0.001-0.199-0.079-0.248-0.154-0.73-1.109-1.791-1.518-3.061-1.379-0.605 0.066-1.193 0.273-1.808 0.42-0.018-0.065-0.044-0.17-0.078-0.273-0.259-0.797-1.219-1.101-1.819-0.523-0.014 0.012-0.029 0.022-0.042 0.035-0.075 0.204-0.142 0.386-0.199 0.544-0.802-0.050-0.162 0.573-0.441 0.806z"></path>
<path fill="#8bc03f" d="M30.909 11.453c-0.096-0.156-0.104-0.254-0.003-0.409 0.39-0.6 0.574-1.266 0.564-1.982-0.014-0.987-0.259-1.899-0.648-2.76-0.473 0.037-0.952 0.075-1.448 0.114 0.095 0.171 0.188 0.337 0.406 0.729-0.548-0.172-0.89-0.287-1.232-0.388 0.066 0.101 0.129 0.2 0.2 0.3-0.371 0.157-0.668 0.249-0.93 0.4-0.717 0.411-1.432 0.831-2.127 1.28-0.371 0.24-0.422 0.6-0.192 0.879 0.212 0.258 0.552 0.265 0.883 0.009 0.804-0.62 1.68-1.103 2.638-1.435 0.436 0.767 0.169 1.691-0.579 2.056-0.428 0.21-0.651 0.559-0.646 1.036 0.007 0.492 0.254 0.829 0.699 1.037 0.167 0.079 0.322 0.186 0.484 0.279-0.017 0.043-0.032 0.084-0.048 0.127-0.75-0.101-1.501-0.202-2.252-0.305-0.108-0.015-0.217-0.042-0.326-0.056-0.345-0.046-0.616 0.135-0.67 0.44-0.055 0.321 0.108 0.595 0.456 0.658 0.663 0.121 1.333 0.207 2 0.308 0.051 0.007 0.101 0.014 0.164 0.022-0.639 0.685-0.636 0.906-0.311 1.789 0.229 0.625 0.33 1.299 0.484 1.952 0.041 0.171-0.042 0.254-0.21 0.304-0.816 0.244-1.6 0.18-2.345-0.232-0.388-0.215-0.758-0.457-1.135-0.689-0.36-0.22-0.682-0.179-0.874 0.117-0.189 0.292-0.094 0.612 0.261 0.84 0.288 0.186 0.581 0.364 0.875 0.54 1.3 0.774 1.39 2.491 0.173 3.383-0.089 0.065-0.183 0.122-0.259 0.174-0.586-0.445-1.156-0.879-1.728-1.309-0.106-0.080-0.219-0.154-0.337-0.212-0.267-0.129-0.558-0.046-0.72 0.19 0.508 0.374 0.841 0.859 1.068 1.418 0.541 0.417 1.021 0.899 1.453 1.437-0.046-0.38-0.022-0.722 0.115-0.928 0.404 1.124 0.777 2.157 1.147 3.187-0.48-0.21-0.89-0.881-1.112-1.574-0.017 0.037-0.032 0.075-0.055 0.11-0.087 0.133-0.316 0.226-0.486 0.236-0.236 0.015-0.481-0.056-0.717-0.107-0.411-0.087-0.82-0.183-1.227-0.283-0.568-0.141-1.073-0.399-1.519-0.783-0.31-0.267-0.632-0.524-0.967-0.755-0.293-0.202-0.605-0.134-0.791 0.126-0.192 0.27-0.128 0.586 0.165 0.811 0.212 0.162 0.423 0.324 0.635 0.482 0.341 0.254 0.493 0.576 0.485 0.948 0.65 0 1.246 0 1.944 0-0.847 0.485-1.51 0.572-1.978 0.259-0.006 0.029-0.004 0.056-0.012 0.087-0.137 0.537-0.496 0.871-1.015 1.008 0.251 0.115 0.5 0.239 0.711 0.41 0.086 0.070 0.014 0.339 0.014 0.534-0.373-0.182-0.641-0.298-0.894-0.441-0.112-0.064-0.273-0.191-0.265-0.277 0.005-0.051 0.046-0.118 0.092-0.177-1.142 0.078-2.297-0.886-2.38-2.080-0.020-0.296 0.003-0.597 0.016-0.895 0.012-0.359-0.168-0.607-0.48-0.643-0.321-0.039-0.59 0.141-0.634 0.491-0.051 0.414-0.046 0.836-0.067 1.301-0.853-0.079-1.527 0.311-2.046 0.909-0.014 0.015-0.029 0.027-0.042 0.043 0.161 0.24 0.321 0.481 0.483 0.721-0.074 0.051-0.148 0.1-0.223 0.149-0.151-0.222-0.302-0.446-0.453-0.668-0.694 0.673-1.53 0.975-2.509 1.018-0.751 0.033-1.502 0.111-2.252 0.166-0.038 0.003-0.078-0.008-0.188-0.019 0.416-0.427 0.773-0.831 1.169-1.195 0.825-0.756 1.622-1.545 2.524-2.211-0.173-0.1-0.285-0.136-0.296-0.188-0.065-0.329-0.156-0.634-0.33-0.864-0.515 0.511-1.053 1.005-1.617 1.477-1.938 1.626-3.587 3.55-5.29 5.413-0.144 0.157-0.248 0.215-0.437 0.086-0.21-0.14-0.438-0.253-0.687-0.393 0.796-0.726 1.566-1.434 2.343-2.137 1.241-1.121 2.462-2.264 3.734-3.351 0.529-0.453 1.024-0.931 1.493-1.427-0.096-0.034-0.2-0.062-0.322-0.074 0.026-0.239-0.008-0.509 0.099-0.704 0.073-0.132 0.343-0.157 0.57-0.246 0.083 0.094 0.178 0.205 0.275 0.314 0.002 0.003 0.005 0.005 0.007 0.008 1.264-1.477 2.295-3.124 3.108-4.938 0.606-1.351 1.232-2.698 1.929-4.004 0.477-0.894 1.086-1.719 1.654-2.56 0.245-0.364 0.261-0.694-0.017-0.909-0.263-0.204-0.604-0.128-0.864 0.19-1.244 1.524-2.097 3.274-2.919 5.041-0.326 0.702-0.656 1.402-0.985 2.104-0.046 0.096-0.101 0.188-0.179 0.331-0.193-1.014-0.53-1.906-1.082-2.71-0.069-0.1-0.137-0.202-0.214-0.296-0.227-0.279-0.565-0.34-0.819-0.154-0.265 0.195-0.302 0.518-0.094 0.824 0.093 0.138 0.197 0.268 0.284 0.409 0.582 0.945 0.928 1.96 0.845 3.083-0.064 0.858-0.422 1.613-0.982 2.243-0.728 0.817-1.487 1.613-2.283 2.364-1.587 1.495-3.208 2.953-4.818 4.429-0.145-0.089-0.272-0.175-0.406-0.248-0.259-0.143-0.349-0.361-0.292-0.641 0.060-0.297 0.27-0.313 0.529-0.299 0.788 0.041 1.349-0.625 1.185-1.385-0.071-0.33 0.009-0.422 0.354-0.398 0.121 0.007 0.244 0.032 0.363 0.018 0.685-0.080 1.128-0.712 0.98-1.389-0.017-0.075-0.030-0.15-0.047-0.238 0.276-0.027 0.538-0.058 0.803-0.076 0.605-0.044 1.010-0.332 1.152-0.832 0.146-0.513-0.035-0.95-0.538-1.307-0.84-0.595-0.946-1.706-0.228-2.386 0.572-0.544 1.57-0.48 2.070 0.132 0.239 0.293 0.544 0.349 0.812 0.152 0.249-0.185 0.301-0.501 0.117-0.8-0.093-0.151-0.2-0.293-0.313-0.429-1.419-1.685-2.015-3.662-2.119-5.811-0.095 0.169-0.237 0.305-0.502 0.55-0.412 0.382-1.235 0.646-1.522 0.487-0.065 0.001-0.129 0.002-0.194 0.002 0.063 0.483 0.152 0.965 0.267 1.443 0.021 0.086 0.051 0.171 0.073 0.257 0.162-0.099 0.324-0.197 0.504-0.307 0.126 0.124 0.197 0.292 0.225 0.476 0.486 0.031 0.972 0.062 1.458 0.094-0.012 0.104-0.022 0.206-0.034 0.311-0.482 0.032-0.973 0.143-1.433-0.017-0.026 0.125-0.069 0.253-0.137 0.379-0.118-0.042-0.234-0.083-0.352-0.125 0.101 0.319 0.205 0.638 0.303 0.959-1.704 1.123-2.346 2.655-1.734 4.678-0.687 0.054-0.968 0.529-1.164 1.087-0.044 0.124-0.096 0.255-0.099 0.384-0.005 0.279-0.164 0.398-0.402 0.486-0.499 0.183-0.793 0.526-0.86 1.075-0.019 0.159-0.14 0.374-0.275 0.441-0.764 0.374-1.19 1.011-1.43 1.786-0.234 0.757-0.084 1.486 0.286 2.196-0.273 0.208-0.535 0.409-0.798 0.609-0.832 0.633-0.773 1.55 0.137 2.062 0.886 0.5 1.777 0.993 2.666 1.487 0.836 0.465 1.217 0.445 1.951-0.178 0.326-0.277 0.619-0.603 0.886-0.938 0.676-0.845 1.506-1.383 2.613-1.45 0.783-0.048 1.568-0.109 2.35-0.181 1.342-0.122 2.548-0.555 3.473-1.589 0.148-0.165 0.277-0.348 0.414-0.523 0.050 0.001 0.099 0.002 0.148 0.003 0.067 0.103 0.112 0.237 0.205 0.304 0.518 0.374 1.010 0.81 1.578 1.083 2.216 1.063 4.407 0.123 5.276-1.584 0.036-0.071 0.211-0.121 0.308-0.105 0.393 0.066 0.775 0.182 1.168 0.243 1.046 0.165 1.957-0.137 2.576-0.74-0.092-0.17-0.18-0.339-0.256-0.511-0.184-0.418 0.287-1.135 0.763-1.29 0.129-0.041 0.238-0.11 0.325-0.199 0.005-0.197-0.002-0.399-0.032-0.609-0.017-0.123 0.045-0.297 0.129-0.393 0.034-0.037 0.062-0.078 0.094-0.115-0.208-0.612-0.32-1.256-0.383-1.905 0.487 0.706 0.696 1.018 0.779 1.362 0.199-0.321 0.354-0.664 0.436-1.043 0.080-0.374 0.091-0.764 0.135-1.17 0.065-0.016 0.153-0.026 0.233-0.060 0.538-0.223 1.088-0.422 1.608-0.682 0.38-0.191 0.546-0.557 0.57-0.988 0.052-0.981-0.023-1.948-0.335-2.884-0.064-0.191-0.007-0.296 0.121-0.428 0.994-1.034 1.142-2.424 0.384-3.655z"></path>
<path fill="#8bc03f" d="M29.828 4.588c-0.284-0.379-0.605-0.697-0.967-0.947 0.009 0.165 0.031 0.322 0.104 0.452 0.134 0.24 0.509 0.348 0.864 0.495z"></path>
<path fill="#8bc03f" d="M28.865 5.082c0.478 0.32 0.906 0.78 1.415 0.899 0.132 0.031 0.268 0.042 0.408 0.041-0.191-0.389-0.408-0.77-0.648-1.14-0.014-0.022-0.030-0.041-0.045-0.062-0.171 0.461-0.762-0.092-1.13 0.263z"></path>
<path fill="#8bc03f" d="M21.826 11.71c0.869-0.547 1.592-1.253 2.229-2.042 0.031-0.449 0.229-0.74 0.605-0.862 0.082-0.244 0.014-0.483-0.198-0.635-0.263-0.191-0.597-0.144-0.811 0.167-0.822 1.203-1.916 2.104-3.119 2.896-1.69 1.114-3.020 2.587-4.143 4.257-0.42 0.624-0.85 1.244-1.232 1.892-0.469 0.796-0.991 1.546-1.537 2.276 0.159-0.021 0.354 0.058 0.595 0.224-0.838 0.643-1.325 1.304-0.952 2.336 0.039 0.108 0.040 0.21 0.011 0.301 0.216-0.177 0.419-0.377 0.62-0.57 0.753-0.72 1.586-1.261 2.504-1.617-0.051-0.17-0.068-0.39-0.036-0.681 0.203 0.188 0.38 0.351 0.548 0.505 0.479-0.144 0.977-0.245 1.502-0.29 0.141-0.012 0.294-0.028 0.417-0.090 0.261-0.132 0.34-0.368 0.274-0.646-0.065-0.271-0.324-0.461-0.64-0.401-0.801 0.151-1.596 0.337-2.392 0.513-0.094 0.020-0.181 0.067-0.318 0.036 0.354-0.287 0.693-0.594 1.066-0.854 0.991-0.694 2.125-1.076 3.261-1.451 1.227-0.406 2.46-0.802 3.688-1.204 0.422-0.138 0.595-0.431 0.467-0.769-0.123-0.323-0.406-0.448-0.795-0.312-1.704 0.593-3.459 1.051-5.136 1.719 0.010 0.235-0.016 0.525-0.085 0.887-0.099-0.243-0.195-0.486-0.299-0.726-0.387 0.163-0.77 0.335-1.145 0.528-0.007 0.003-0.019-0.004-0.061-0.015 0.043-0.075 0.079-0.147 0.121-0.215 0.229-0.374 0.474-0.732 0.726-1.083-0.014-0.031-0.028-0.061-0.043-0.092 0.042-0.007 0.077-0.006 0.116-0.008 1.143-1.569 2.513-2.917 4.192-3.974z"></path>
<path fill="#8bc03f" d="M11.63 22.557c0.108 0.341 0.174 0.547 0.278 0.875 0.274-0.2 0.561-0.384 0.858-0.557-0.086 0.006-0.176 0.002-0.269-0.026-0.252-0.076-0.499-0.167-0.867-0.292z"></path>
<path fill="#8bc03f" d="M15.326 9.054c0.248-0.248 0.229-0.575-0.079-0.875-0.089-0.088-0.167-0.181-0.241-0.274-0.121 0.319-0.277 0.729-0.442 1.159 0.256 0.2 0.553 0.199 0.762-0.011z"></path>
<path fill="#8bc03f" d="M14.638 7.176c0.031 0.51 0.093 0.586 0.301 0.639-0.138-0.195-0.239-0.407-0.301-0.639z"></path>
<path fill="#8bc03f" d="M13.211 20.187c-0.42 0.529-0.861 1.042-1.324 1.535 0.374 0.157 0.711-0.024 0.952-0.558 0.143-0.32 0.28-0.643 0.373-0.977z"></path>
<path fill="#8bc03f" d="M18.088 5.089c0.046-0.065 0.090-0.128 0.136-0.193-0.079-0.064-0.165-0.125-0.251-0.185-0.083 0.027-0.165 0.053-0.248 0.078 0.118 0.098 0.244 0.201 0.363 0.3z"></path>
<path fill="#8bc03f" d="M15.481 2.573c-0.34-0.296-0.651-0.624-0.975-0.938 0.329 0.467 0.753 0.839 1.127 1.256 0.018 0.021 0.030 0.049 0.047 0.070 0.075-0.016 0.149-0.032 0.224-0.046-0.142-0.111-0.285-0.223-0.423-0.343z"></path>
<path fill="#8bc03f" d="M5.686 7.513c-0.137 0.129-0.189 0.347-0.279 0.526 0.168-0.003 0.335-0.007 0.517-0.011 0.020 0.395 0.041 0.841 0.063 1.286 0.46-0.709 0.725-1.432 0.411-2.282-0.246 0.161-0.508 0.289-0.711 0.48z"></path>
<path fill="#8bc03f" d="M7.010 14.067c0.078 0.046 0.157 0.080 0.239 0.108 0.028-0.136 0.027-0.264 0.007-0.388-0.071-0.004-0.143-0.009-0.215-0.014-0.010 0.099-0.020 0.195-0.031 0.294z"></path>
<path fill="#8bc03f" d="M5.77 14.079c0.308 0.109 0.646 0.229 0.99 0.35-0.085-0.268-0.161-0.539-0.233-0.811-0.282 0.171-0.544 0.33-0.757 0.46z"></path>
<path fill="#8bc03f" d="M4.884 15.184c0.475-0.099 0.951-0.199 1.426-0.296-0.005-0.055-0.012-0.108-0.017-0.163-0.302-0.084-0.6-0.217-0.907-0.243-0.479-0.040-0.679 0.259-0.503 0.703z"></path>
<path fill="#8bc03f" d="M12.476 3.087c0.357 0.523 0.768 0.020 1.193 0.116-0.419-0.509-0.815-0.532-1.193-0.116z"></path>
<path fill="#8bc03f" d="M4.535 9.595c-0.394-0.381-0.717-0.695-1.097-1.063-0.059 0.509 0.317 0.865 1.097 1.063z"></path>
<path fill="#8bc03f" d="M2.124 8.744c-0.044 0.037-0.026 0.175-0.002 0.259 0.055 0.189 0.131 0.371 0.226 0.635 0.092-0.094 0.254-0.191 0.244-0.266-0.028-0.228-0.114-0.451-0.203-0.665-0.010-0.025-0.205-0.015-0.266 0.036z"></path>
<path fill="#8bc03f" d="M14.557 0c-0.167 0.035-0.325 0.068-0.642 0.133 0.322 0.26 0.526 0.423 0.684 0.552-0.015-0.237-0.028-0.45-0.042-0.685z"></path>
</svg>
