<!-- Generated by IcoMoon.io -->
<svg version="1.1" xmlns="http://www.w3.org/2000/svg" width="30" height="32" viewBox="0 0 30 32">
<title>sauce</title>
<path fill="#e35028" d="M11.356 4.585c0.029 0.067 0.138 0.162 0.18 0.148 0.080-0.024 0.191-0.111 0.2-0.184 0.073-0.597-0.151-1.107-0.494-1.644-0.091 0.352-0.372 0.587-0.174 0.944 0.125 0.227 0.183 0.494 0.288 0.735z"></path>
<path fill="#e35028" d="M17.599 7.112c0.107-0.279 0.212-0.559 0.287-0.755-0.192-0.041-0.192-0.041-0.212-0.721-0.233-0.077-0.472-0.111-0.413 0.245 0.071 0.421-0.086 0.618-0.514 0.683 0.236 0.107 0.473 0.213 0.71 0.32 0.046 0.076 0.094 0.153 0.141 0.228z"></path>
<path fill="#e35028" d="M20.105 12.335c0.303 0.060 0.604 0.122 0.972 0.195-0.084-0.185-0.121-0.264-0.144-0.315 0.141-0.081 0.251-0.144 0.416-0.239-0.863-0.271-1.054-0.207-1.244 0.359z"></path>
<path fill="#e35028" d="M19.857 5.624c0.045 0.002 0.102-0.024 0.133-0.058 0.16-0.18 0.052-0.826-0.131-0.997-0.092-0.085-0.139-0.231-0.178-0.357-0.027-0.090-0.006-0.195-0.006-0.292-0.048 0.001-0.095 0.002-0.142 0.004 0 0.32 0 0.64 0 0.994 0.062 0.17 0.139 0.399 0.227 0.624 0.013 0.036 0.063 0.080 0.098 0.082z"></path>
<path fill="#e35028" d="M19.996 6.158c-0.381 0.121-0.226-0.311-0.318-0.353-0.199 0.258-0.373 0.486-0.548 0.713 0.011 0.027 0.022 0.054 0.034 0.079 0.277-0.145 0.554-0.292 0.832-0.439z"></path>
<path fill="#e35028" d="M17.736 8.441c-0.015-0.050-0.033-0.101-0.049-0.151-0.341 0.1-0.681 0.198-1.021 0.296 0.021 0.062 0.042 0.125 0.063 0.187 0.336-0.111 0.671-0.22 1.007-0.332z"></path>
<path fill="#e35028" d="M14.72 9.526c0.005-0.052 0.011-0.104 0.017-0.155-0.278-0.018-0.556-0.035-0.834-0.053-0.005 0.048-0.011 0.097-0.015 0.146 0.262 0.155 0.551 0.080 0.833 0.062z"></path>
<path fill="#e35028" d="M7.104 16.985c0.003 0.038 0.005 0.075 0.008 0.113 0.158 0.105 0.315 0.209 0.598 0.395-0.023-0.236-0.007-0.486-0.055-0.5-0.172-0.046-0.366-0.012-0.551-0.008z"></path>
<path fill="#e35028" d="M8.152 17.078c0.262 0.155 0.551 0.080 0.833 0.062 0.005-0.052 0.011-0.104 0.017-0.155-0.278-0.018-0.556-0.035-0.834-0.053-0.005 0.048-0.011 0.097-0.015 0.146z"></path>
<path fill="#e35028" d="M0.635 21.849c-0.242 0.103-0.432 0.331-0.635 0.497 0.238 0.098 0.476 0.262 0.723 0.277 0.204 0.013 0.462-0.106 0.611-0.254 0.081-0.080 0.035-0.465-0.043-0.496-0.195-0.079-0.469-0.105-0.656-0.024z"></path>
<path fill="#e35028" d="M2.413 25.627c0.462 0.497 0.924 0.995 1.386 1.492 0.049-0.049 0.099-0.098 0.148-0.147-0.445-0.512-0.89-1.024-1.335-1.535-0.066 0.063-0.133 0.127-0.2 0.19z"></path>
<path fill="#e35028" d="M9.593 32c0.676-0.061 1.103-0.101 1.437-0.131-0.288-0.263-0.547-0.499-0.832-0.758-0.158 0.232-0.306 0.449-0.604 0.89z"></path>
<path fill="#e35028" d="M11.236 16.307c0.255-0.083 0.511-0.168 0.766-0.252-0.016-0.050-0.033-0.101-0.049-0.151-0.249 0.073-0.499 0.144-0.748 0.217l-0.512-2.947c-0.051-0.295-0.216-0.541-0.441-0.705 0.162-0.022 0.343 0 0.55 0.091 0.042-0.151 0.144-0.316 0.105-0.43-0.050-0.142-0.208-0.256-0.337-0.361-0.089-0.073-0.206-0.11-0.31-0.164-0.015 0.032-0.029 0.063-0.044 0.095 0.116 0.14 0.231 0.281 0.332 0.404-0.259 0.321-0.671-0.118-0.854 0.162-0.092-0.008-0.184-0.008-0.279 0.009-0.601 0.105-1.005 0.677-0.9 1.278l1.862 10.712c0.105 0.601 0.677 1.004 1.279 0.9 0.601-0.105 1.005-0.677 0.9-1.278l-1.318-7.578z"></path>
<path fill="#e35028" d="M23.362 25.675c-0.105 0.080 0.186 0.999 0.316 1.005 0.468 0.021 0.944-0.187 1.579-0.35-0.166-0.646-0.264-1.033-0.363-1.419-0.522 0.241-1.089 0.422-1.533 0.764z"></path>
<path fill="#e35028" d="M29.014 4.588c0.070-0.346 0.151-0.691 0.233-1.034 0.135-0.566 0.274-1.151 0.36-1.739 0.052-0.353-0.035-1.123-0.388-1.335l-0.063-0.032c-0.432-0.172-1.077 0.007-1.427 0.271-0.623 0.472-1.219 0.991-1.797 1.493-0.303 0.264-0.606 0.528-0.913 0.786-0.123 0.104-0.227 0.167-0.28 0.19-1.009-0.408-1.434 0.334-1.758 0.9l-0.137 0.245c-0.186 0.332-0.361 0.646-0.581 0.924-0.105 0.134-0.318 0.255-0.456 0.262-1.035 0.045-1.828 0.511-2.355 1.386l-2.622 4.355c-0.348 0.577-0.694 1.154-1.041 1.732-0.057 0.018-0.107 0.038-0.127 0.074-0.032 0.059-0.038 0.132-0.041 0.206-0.422 0.701-0.843 1.401-1.264 2.103l0.54 3.223c0.452-0.752 0.904-1.503 1.356-2.255l0.669-1.113c0.083 0.121 0.164 0.242 0.247 0.363 0.037-0.024 0.074-0.049 0.111-0.074-0.093-0.139-0.186-0.279-0.28-0.418l0.266-0.441 1.036-1.723c0.085-0.14 0.169-0.28 0.254-0.42 0.051 0.305 0.284 0.343 0.523 0.372 0.025-0.028 0.050-0.056 0.077-0.085-0.15-0.139-0.31-0.284-0.497-0.457 0.266-0.442 0.533-0.883 0.799-1.325 0.007 0.017 0.014 0.034 0.021 0.051 0.008-0.042 0.007-0.068 0.013-0.106 0.554-0.922 1.109-1.844 1.666-2.765 0.383-0.633 0.523-0.669 1.149-0.296 0.101 0.060 0.2 0.119 0.299 0.179 0.235-0.486 0.47-0.971 0.705-1.457 0.099 0.685 0.198 1.37 0.296 2.056 0.157 0.094 0.315 0.187 0.472 0.282 0.576 0.346 1.151 0.694 1.724 1.044 0.61 0.372 0.644 0.523 0.262 1.159-0.706 1.176-1.414 2.35-2.121 3.524-0.006 0.326-0.012 0.668-0.018 1.046-0.19-0.097-0.332-0.182-0.45-0.266-1.714 2.849-3.428 5.7-5.145 8.549-0.405 0.672-0.54 0.707-1.207 0.31-0.461-0.275-0.92-0.554-1.38-0.831-0.196-1.132-0.392-2.264-0.589-3.396 0.064 0.013 0.121 0.024 0.189 0.038-0.084-0.185-0.121-0.264-0.144-0.315 0.141-0.081 0.25-0.144 0.416-0.239-0.24-0.076-0.425-0.122-0.575-0.142-0.001-0.010-0.003-0.019-0.005-0.029l-0.388-2.23c-0.119-0.685-0.235-1.371-0.352-2.057-0.070-0.416-0.145-0.842-0.217-1.263 0.061-0.032 0.123-0.065 0.184-0.097-0.099 0.032-0.161 0.024-0.201-0.002-0.055-0.321-0.108-0.639-0.165-0.962 0.040 0.111 0.083 0.229 0.128 0.347 0.014 0.037 0.064 0.080 0.099 0.082 0.044 0.002 0.102-0.024 0.133-0.058 0.159-0.18 0.051-0.826-0.131-0.996-0.092-0.085-0.14-0.231-0.179-0.357-0.027-0.090-0.005-0.195-0.005-0.292-0.047 0.001-0.095 0.003-0.143 0.004 0 0.231 0 0.467 0 0.711-0.146-0.816-0.3-1.634-0.464-2.444 0.037 0.024 0.072 0.047 0.113 0.075-0.023-0.236-0.007-0.486-0.055-0.5-0.049-0.013-0.103-0.011-0.156-0.013-0.15-0.524-0.476-1.196-0.945-1.505 0.024-0.085 0.046-0.171 0.088-0.237 0.014-0.021-0.12-0.137-0.175-0.198-0.048 0.115-0.090 0.214-0.131 0.314-0.758-0.335-0.84-0.875-0.954-1.658l-0.028-0.209c-0.031-0.258-0.064-0.523-0.164-0.776-0.097-0.244-0.361-0.811-0.733-0.811-0.479 0.001-0.629-0.261-0.851-0.725-0.051-0.108-0.102-0.214-0.159-0.315-0.173-0.307-0.337-0.621-0.5-0.935-0.268-0.515-0.547-1.050-0.867-1.551-0.192-0.301-0.762-0.825-1.167-0.754l-0.069 0.017c-0.439 0.153-0.809 0.71-0.901 1.139-0.161 0.764-0.273 1.547-0.38 2.305-0.056 0.398-0.112 0.796-0.175 1.193-0.026 0.158-0.062 0.273-0.088 0.327-1.029 0.352-0.865 1.192-0.739 1.831l0.056 0.275c0.077 0.373 0.15 0.725 0.167 1.078 0.008 0.17-0.074 0.402-0.173 0.497-0.753 0.712-1.047 1.583-0.872 2.591l0.002 0.013c0.653 0.859 1.319 1.735 2.025 2.664-0.141 0.189-0.366 0.493-0.592 0.797-0.295-0.27-0.568-0.568-0.888-0.804-0.038-0.028-0.064-0.063-0.1-0.093l0.422 2.432c0.184 1.055 0.369 2.111 0.552 3.167-0.021-0.017-0.043-0.037-0.063-0.053-0.089-0.073-0.206-0.11-0.31-0.164-0.015 0.032-0.029 0.063-0.044 0.095 0.116 0.14 0.231 0.281 0.332 0.404-0.291 0.359-0.776-0.243-0.912 0.295-0.074 0.294-0.567 0.475-0.135 0.934-0.226-0.087-0.336-0.13-0.445-0.171-0.017 0.035-0.035 0.071-0.052 0.107 0.133 0.058 0.27 0.108 0.396 0.178 0.068 0.038 0.134 0.1 0.167 0.168 0.014 0.029-0.059 0.099-0.092 0.152-0.032 0.052-0.097 0.108-0.090 0.153 0.040 0.239-0.096 0.281-0.287 0.297-0.142 0.011-0.282 0.052-0.423 0.081 0.007 0.035 0.013 0.069 0.020 0.104 0.369 0 0.736 0 1.108 0-0.018-0.172-0.038-0.304-0.046-0.439-0.017-0.287-0.030-0.573-0.041-0.861-0.004-0.092-0.031-0.206 0.010-0.273 0.226-0.366 0.576-0.468 1.033-0.282 0.369 2.118 0.735 4.235 1.106 6.353 0.29 1.646 1.559 2.53 3.233 2.253 0.632-0.105 1.264-0.213 1.895-0.323 0.733-0.128 1.466-0.258 2.198-0.387l0.091-0.015c0.745-0.133 1.319-0.425 1.728-0.84-0.035-0.184-0.070-0.37-0.105-0.554 0.091-0.043 0.183-0.085 0.273-0.128 0.049 0.096 0.097 0.192 0.144 0.289 0.295-0.47 0.436-1.048 0.391-1.727l0.193 1.153c0.343 0.195 0.678 0.316 1.005 0.389 0.031-0.098 0.058-0.186 0.099-0.297 0.054 0.122 0.106 0.235 0.153 0.343 1.060 0.139 2.003-0.364 2.689-1.501 0.866-1.434 1.73-2.869 2.593-4.304-0.182-0.14-0.369-0.273-0.547-0.418-0.147-0.12-0.069-0.521-0.096-0.792 0.474-0.023 0.953-0.091 1.421-0.083l0.522-0.867c0.358-0.597 0.721-1.191 1.082-1.786 0.957-1.574 1.948-3.202 2.866-4.837 0.295-0.527 0.623-1.539 0.311-2.164-0.385-0.775-0.088-1.24 0.347-1.919l0.116-0.177c0.144-0.214 0.293-0.437 0.384-0.694 0.086-0.248 0.258-0.849-0.024-1.092-0.363-0.313-0.304-0.609-0.167-1.106 0.034-0.115 0.065-0.229 0.088-0.343zM16.402 15.719c-0.128-0.123-0.379-0.266-0.361-0.365 0.041-0.245 0.204-0.47 0.403-0.876 0.036 0.052 0.072 0.097 0.106 0.142-0.009 0.007-0.018 0.015-0.027 0.021 0.097 0.142 0.195 0.286 0.291 0.429-0.088 0.234-0.268 0.434-0.413 0.648zM8.975 6.524l0.163 0.937-2.448 0.425-0.163-0.937 2.448-0.425zM6.928 2.009l1.56 2.39-2.222 0.385 0.662-2.775zM13.124 25.955c-1.313 0.234-2.628 0.463-3.945 0.686-0.759 0.128-0.862 0.052-1.001-0.739-0.226-1.291-0.45-2.583-0.674-3.875-0.153 0.041-0.321 0.084-0.522 0.139 0.139-0.382 0.254-0.712 0.368-1.024-0.038-0.218-0.077-0.437-0.114-0.656l-0.336-1.935-0.345-1.982c-0.049-0.279-0.097-0.558-0.145-0.837 0.147-0.106 0.139-0.351 0.233-0.496 0.014-0.021-0.12-0.137-0.175-0.198-0.046 0.11-0.086 0.205-0.125 0.3-0.175-1.002-0.348-2.004-0.521-3.006 0.077-0.031 0.171-0.105 0.179-0.171 0.068-0.556-0.128-1.038-0.431-1.536 0.024-0.299 0.211-0.389 0.717-0.48 0.677-0.121 1.355-0.241 2.034-0.359 0.662-0.114 1.325-0.229 1.987-0.339 0.705-0.119 0.829-0.027 0.957 0.704 0.178 1.020 0.354 2.040 0.532 3.060-0.175-0.035-0.315 0.001-0.268 0.282 0.071 0.421-0.086 0.618-0.514 0.683 0.237 0.107 0.473 0.213 0.709 0.32 0.047 0.077 0.094 0.153 0.141 0.229 0.046-0.119 0.091-0.237 0.133-0.351 0.326 1.879 0.654 3.758 0.98 5.637-0.054-0.049-0.102-0.094-0.162-0.15-0.041 0.369 0.072 0.512 0.237 0.578 0.26 1.497 0.522 2.994 0.781 4.49 0.133 0.773 0.054 0.888-0.709 1.024zM26.22 7.746l-2.129-1.282 0.491-0.814 2.129 1.282-0.491 0.814zM27.733 5.005l-1.933-1.163 2.319-1.664-0.386 2.827z"></path>
<path fill="#e35028" d="M16.53 22.771c0.523 0.315 1.202 0.146 1.517-0.377l5.606-9.314c0.315-0.524 0.147-1.202-0.377-1.518-0.523-0.315-1.202-0.146-1.517 0.377l-5.606 9.314c-0.315 0.524-0.147 1.202 0.377 1.518z"></path>
</svg>
