<!-- Generated by IcoMoon.io -->
<svg version="1.1" xmlns="http://www.w3.org/2000/svg" width="38" height="32" viewBox="0 0 38 32">
<title>twitter</title>
<path fill="#fff" d="M37.343 0.592c-1.524 0.925-3.208 1.597-5.008 1.957-1.432-1.569-3.481-2.549-5.749-2.549-4.347 0-7.876 3.617-7.876 8.078 0 0.634 0.068 1.248 0.203 1.839-6.547-0.337-12.352-3.55-16.24-8.443-0.679 1.198-1.066 2.586-1.066 4.066 0 2.8 1.39 5.274 3.505 6.723-1.289-0.039-2.506-0.406-3.569-1.006v0.098c0 3.916 2.715 7.181 6.323 7.921-0.661 0.191-1.357 0.284-2.076 0.284-0.508 0-1.004-0.048-1.484-0.143 1.004 3.208 3.912 5.545 7.361 5.607-2.697 2.169-6.094 3.46-9.786 3.46-0.635 0-1.263-0.038-1.879-0.112 3.486 2.288 7.629 3.627 12.076 3.627 14.494 0 22.416-12.308 22.416-22.984 0-0.352-0.006-0.702-0.022-1.047 1.54-1.14 2.878-2.561 3.929-4.181-1.411 0.642-2.929 1.077-4.524 1.271 1.628-0.999 2.877-2.582 3.466-4.468z"></path>
</svg>
