<!-- Generated by IcoMoon.io -->
<svg version="1.1" xmlns="http://www.w3.org/2000/svg" width="56" height="32" viewBox="0 0 56 32">
<title>vk</title>
<path fill="#fff" d="M55.344 28.668c-0.068-0.146-0.13-0.265-0.189-0.363-0.965-1.738-2.811-3.872-5.533-6.4l-0.057-0.060-0.029-0.028-0.029-0.029h-0.028c-1.236-1.178-2.019-1.971-2.347-2.375-0.599-0.772-0.734-1.556-0.406-2.347 0.232-0.599 1.101-1.862 2.608-3.795 0.792-1.023 1.42-1.844 1.882-2.462 3.342-4.443 4.79-7.281 4.345-8.517l-0.172-0.288c-0.116-0.173-0.415-0.333-0.898-0.477-0.483-0.145-1.101-0.17-1.854-0.072l-8.343 0.056c-0.134-0.047-0.328-0.044-0.578 0.015-0.252 0.058-0.379 0.087-0.379 0.087l-0.144 0.074-0.115 0.087c-0.097 0.057-0.203 0.157-0.32 0.304-0.115 0.144-0.212 0.314-0.288 0.508-0.91 2.337-1.941 4.509-3.101 6.517-0.715 1.198-1.372 2.236-1.971 3.115s-1.101 1.526-1.505 1.94c-0.406 0.416-0.772 0.749-1.101 0.998-0.33 0.252-0.58 0.358-0.753 0.32-0.174-0.040-0.339-0.079-0.493-0.117-0.271-0.173-0.488-0.41-0.651-0.71-0.165-0.299-0.276-0.676-0.333-1.13s-0.092-0.844-0.102-1.172c-0.009-0.328-0.004-0.793 0.016-1.391 0.019-0.6 0.029-1.006 0.029-1.217 0-0.735 0.014-1.532 0.042-2.391 0.029-0.86 0.054-1.54 0.073-2.042s0.029-1.033 0.029-1.594c0-0.559-0.035-0.998-0.102-1.318-0.066-0.318-0.168-0.627-0.304-0.927-0.136-0.299-0.333-0.531-0.594-0.694-0.26-0.165-0.584-0.295-0.969-0.392-1.024-0.232-2.328-0.356-3.911-0.377-3.592-0.038-5.9 0.195-6.924 0.696-0.406 0.212-0.772 0.502-1.1 0.868-0.347 0.425-0.396 0.657-0.146 0.696 1.16 0.174 1.979 0.589 2.464 1.245l0.173 0.348c0.136 0.25 0.271 0.695 0.405 1.332 0.135 0.638 0.222 1.343 0.26 2.115 0.097 1.41 0.097 2.617 0 3.622-0.095 1.003-0.187 1.786-0.274 2.345-0.087 0.561-0.217 1.013-0.391 1.362-0.173 0.348-0.29 0.559-0.349 0.638-0.057 0.076-0.106 0.124-0.144 0.144-0.252 0.098-0.512 0.146-0.783 0.146-0.269 0-0.597-0.135-0.984-0.406-0.385-0.27-0.786-0.642-1.201-1.116-0.415-0.472-0.884-1.133-1.406-1.984-0.521-0.849-1.060-1.852-1.621-3.012l-0.464-0.84c-0.29-0.54-0.686-1.327-1.188-2.361-0.502-1.032-0.946-2.031-1.332-2.998-0.155-0.404-0.387-0.713-0.696-0.928l-0.144-0.086c-0.097-0.076-0.252-0.158-0.464-0.247-0.213-0.086-0.434-0.149-0.667-0.188l-7.937 0.059c-0.811 0-1.361 0.184-1.651 0.55l-0.116 0.174c-0.057 0.097-0.087 0.251-0.087 0.464s0.057 0.473 0.174 0.783c1.16 2.722 2.418 5.348 3.781 7.878 1.361 2.532 2.544 4.568 3.547 6.113 1.005 1.546 2.028 3.004 3.071 4.373 1.044 1.372 1.734 2.25 2.071 2.638 0.339 0.387 0.604 0.675 0.797 0.868l0.724 0.696c0.464 0.464 1.144 1.019 2.044 1.665 0.898 0.648 1.892 1.285 2.983 1.913 1.092 0.627 2.361 1.139 3.811 1.535 1.448 0.396 2.858 0.556 4.229 0.477h3.332c0.676-0.057 1.188-0.271 1.535-0.637l0.115-0.144c0.078-0.116 0.151-0.296 0.217-0.537 0.068-0.241 0.102-0.507 0.102-0.796-0.019-0.83 0.044-1.578 0.188-2.245 0.144-0.665 0.309-1.167 0.493-1.506s0.391-0.623 0.623-0.854c0.231-0.232 0.396-0.372 0.493-0.42 0.096-0.049 0.172-0.082 0.231-0.103 0.464-0.154 1.009-0.003 1.637 0.45 0.627 0.455 1.215 1.014 1.768 1.68 0.55 0.667 1.212 1.415 1.983 2.245 0.774 0.83 1.45 1.448 2.028 1.854l0.58 0.347c0.387 0.233 0.889 0.444 1.507 0.638s1.158 0.243 1.621 0.145l7.417-0.116c0.732 0 1.304-0.121 1.708-0.362 0.406-0.242 0.646-0.508 0.724-0.795 0.078-0.29 0.082-0.619 0.016-0.987-0.070-0.366-0.138-0.623-0.204-0.768v0z"></path>
</svg>
